<?xml version="1.0" encoding="UTF-8"?>
<!DOCTYPE svg PUBLIC "-//W3C//DTD SVG 1.1//EN" "http://www.w3.org/Graphics/SVG/1.1/DTD/svg11.dtd">
<!-- Creator: CorelDRAW 2020 (64 Bit) -->
<svg xmlns="http://www.w3.org/2000/svg" xml:space="preserve" width="84.6667mm" height="26.6567mm" version="1.1" style="shape-rendering:geometricPrecision; text-rendering:geometricPrecision; image-rendering:optimizeQuality; fill-rule:evenodd; clip-rule:evenodd"
viewBox="0 0 1987.99 625.9"
 xmlns:xlink="http://www.w3.org/1999/xlink"
 xmlns:xodm="http://www.corel.com/coreldraw/odm/2003">
 <defs>
  <style type="text/css">
   <![CDATA[
    .fil1 {fill:#FEFEFE}
    .fil0 {fill:#FEFEFE;fill-rule:nonzero}
   ]]>
  </style>
 </defs>
 <g id="Camada_x0020_1">
  <metadata id="CorelCorpID_0Corel-Layer"/>
  <path class="fil0" d="M19.49 408.28l39.52 0 -2.25 7.62 -30.08 0 -6.45 21.9 29.14 0 -2.06 7.62 -29.32 0 -8.55 28.74 -9.44 0 19.49 -65.88zm46.1 44.53c-0.91,3.24 -1.34,5.82 -1.31,7.75 0,2.81 0.88,5.02 2.64,6.64 1.76,1.62 3.99,2.41 6.7,2.34 3.89,0 6.91,-1.21 9.03,-3.65 0.93,-1.02 1.98,-2.52 3.13,-4.48l9.15 0 -1.16 2.35 -1.65 2.57c-0.84,1.21 -1.69,2.23 -2.56,3.08 -4.15,4.11 -9.95,6.14 -17.44,6.07 -8.44,-0.03 -13.68,-2.92 -15.74,-8.64 -0.88,-2.18 -1.29,-4.32 -1.26,-6.44 -0.03,-4.73 0.92,-9.47 2.85,-14.21 2.09,-5.14 4.63,-9.28 7.61,-12.43 1.75,-1.87 4.13,-3.43 7.15,-4.67 3.28,-1.4 6.72,-2.1 10.34,-2.1 2.94,0.03 5.75,0.56 8.4,1.6 1.83,0.73 3.43,1.8 4.77,3.17 2.22,2.33 3.32,5.44 3.32,9.3 -0.04,1.96 -0.23,3.95 -0.56,5.98l-0.75 3.27 -0.8 2.52 -31.86 0zm1.82 -5.93l21.69 0 0.75 -2.57c0.33,-1.37 0.53,-2.7 0.56,-3.97 -0.03,-4.87 -2.73,-7.34 -8.09,-7.43 -5.64,-0.06 -9.9,2.94 -12.8,8.98l-2.11 4.99zm68.64 22.52c-5.53,4.05 -10.56,6.07 -15.04,6.07 -4.64,-0.03 -8.25,-1.53 -10.83,-4.48 -2.44,-2.78 -3.64,-6.53 -3.6,-11.26 0,-7.91 2.2,-15.15 6.59,-21.74 4.9,-7.29 11.26,-10.96 19.11,-11.02 5.88,-0.06 10.4,2.19 13.54,6.73l7.43 -25.52 8.84 0 -19.01 65.97 -7.89 0 0.88 -4.77zm-20.32 -9.39c-0.03,6.43 2.78,9.6 8.4,9.54 3.52,0 6.62,-1.37 9.3,-4.11 2.68,-2.74 4.74,-6.03 6.17,-9.86 0.75,-1.96 1.43,-4.06 2.06,-6.31 0.78,-2.86 1.16,-5.34 1.16,-7.42 -0.06,-2.68 -0.96,-4.85 -2.68,-6.48 -1.74,-1.64 -3.94,-2.46 -6.62,-2.46 -5.2,0 -9.63,3.43 -13.31,10.28 -3.01,5.6 -4.51,11.21 -4.48,16.81zm56.2 -7.19c-0.91,3.24 -1.34,5.82 -1.31,7.75 0,2.81 0.88,5.02 2.65,6.64 1.75,1.62 3.99,2.41 6.7,2.34 3.89,0 6.9,-1.21 9.03,-3.65 0.93,-1.02 1.98,-2.52 3.12,-4.48l9.16 0 -1.16 2.35 -1.64 2.57c-0.84,1.21 -1.69,2.23 -2.56,3.08 -4.15,4.11 -9.96,6.14 -17.43,6.07 -8.44,-0.03 -13.68,-2.92 -15.74,-8.64 -0.87,-2.18 -1.29,-4.32 -1.26,-6.44 -0.03,-4.73 0.92,-9.47 2.85,-14.21 2.09,-5.14 4.62,-9.28 7.61,-12.43 1.75,-1.87 4.13,-3.43 7.15,-4.67 3.28,-1.4 6.72,-2.1 10.33,-2.1 2.95,0.03 5.76,0.56 8.4,1.6 1.84,0.73 3.43,1.8 4.77,3.17 2.22,2.33 3.32,5.44 3.32,9.3 -0.03,1.96 -0.23,3.95 -0.56,5.98l-0.75 3.27 -0.79 2.52 -31.86 0zm1.82 -5.93l21.69 0 0.75 -2.57c0.33,-1.37 0.53,-2.7 0.56,-3.97 -0.03,-4.87 -2.73,-7.34 -8.08,-7.43 -5.64,-0.06 -9.91,2.94 -12.81,8.98l-2.11 4.99zm35.97 27.29l13.36 -45.88 7.66 0 -1.53 7.8c2.52,-3.24 4.63,-5.41 6.3,-6.49 2.6,-1.71 5.46,-2.58 8.61,-2.62l2.43 0.34 -2.52 8.08 -3.55 -0.24c-3.43,0 -6.4,1.32 -8.93,3.97 -0.95,0.97 -1.72,1.96 -2.28,2.98 -0.68,1.16 -1.31,2.46 -1.88,3.89 -0.93,2.3 -1.74,4.61 -2.43,6.91l-6.39 21.26 -8.84 0zm43.09 -36.87c0.34,-0.94 0.8,-1.86 1.37,-2.77 0.58,-0.93 1.24,-1.73 1.95,-2.41 3.33,-3.37 8.53,-5.07 15.6,-5.14 9.01,-0.03 14.55,2.34 16.63,7.14 0.59,1.34 0.9,2.65 0.9,3.92 -0.03,2.54 -0.74,6.07 -2.11,10.65 -2.43,8.23 -4.24,15.26 -5.47,21.13l-0.83 4.34 -8.13 0 0 0 0.75 -5.56c-1.21,1.24 -2.24,2.18 -3.05,2.8 -3.49,2.78 -7.56,4.13 -12.23,4.07 -2.31,0.03 -4.48,-0.35 -6.51,-1.16 -1.67,-0.59 -3.08,-1.51 -4.21,-2.76 -2.04,-2.09 -3.06,-4.83 -3.03,-8.23 0.03,-5.98 2.78,-10.7 8.23,-14.16 3.86,-2.42 9.36,-3.82 16.49,-4.19 2.93,-0.16 6.35,-0.26 10.24,-0.29 0.72,-2.49 1.09,-4.53 1.12,-6.12 -0.03,-3.67 -2.9,-5.55 -8.59,-5.65 -1.99,0 -3.84,0.32 -5.56,0.97 -1.96,0.72 -3.43,2.04 -4.38,3.97l-0.85 2.01 -9.15 0 0.84 -2.57zm25.38 13.32l-8.84 0.42c-10.42,0.78 -15.66,4.66 -15.76,11.64 -0.03,4.52 2.37,6.81 7.19,6.88 4.34,-0.03 7.85,-1.64 10.52,-4.81 1.71,-2 3.38,-4.79 5,-8.37 0.54,-1.12 0.95,-2.22 1.27,-3.32l0.61 -2.43zm32.36 29.22l7.99 0 -7.99 12.06 -9.95 0 9.95 -12.06zm27.09 -19.54l-0.51 1.65c-1.84,4.97 -5.07,8.61 -9.69,10.92 -3.2,1.68 -7.46,2.55 -12.79,2.62 -5.04,0 -8.99,-1.27 -11.86,-3.83 -3.21,-2.9 -4.79,-6.71 -4.72,-11.45 0,-4.27 0.89,-8.9 2.66,-13.87 1.77,-4.99 4.2,-8.98 7.24,-11.96 2.81,-2.84 5.97,-4.85 9.49,-6.03 2.59,-0.88 5.47,-1.32 8.68,-1.35 3.22,0 6.2,0.54 8.98,1.64 4.8,1.9 7.17,5.34 7.14,10.37 0,0.85 -0.08,1.61 -0.24,2.33l-0.42 1.55 -8.96 0c0.3,-1.47 0.46,-2.76 0.46,-3.88 -0.07,-2.68 -1.29,-4.45 -3.68,-5.33 -1.29,-0.49 -2.62,-0.75 -4.02,-0.75 -6.49,0.07 -11.45,4.4 -14.91,13.03 -0.99,2.38 -1.8,4.91 -2.41,7.62 -0.61,2.71 -0.89,5.16 -0.86,7.38 -0.06,4.15 1.52,6.76 4.72,7.85 1.27,0.53 2.68,0.78 4.21,0.75 2.92,0 5.49,-0.83 7.7,-2.47 1.53,-1.13 3.06,-3.38 4.63,-6.78l9.15 0zm17.97 -22.99c0.34,-0.94 0.8,-1.86 1.37,-2.77 0.58,-0.93 1.23,-1.73 1.95,-2.41 3.33,-3.37 8.53,-5.07 15.6,-5.14 9.01,-0.03 14.54,2.34 16.63,7.14 0.59,1.34 0.9,2.65 0.9,3.92 -0.03,2.54 -0.74,6.07 -2.11,10.65 -2.43,8.23 -4.24,15.26 -5.47,21.13l-0.83 4.34 -8.13 0 0 0 0.75 -5.56c-1.22,1.24 -2.24,2.18 -3.05,2.8 -3.49,2.78 -7.56,4.13 -12.23,4.07 -2.31,0.03 -4.48,-0.35 -6.51,-1.16 -1.67,-0.59 -3.08,-1.51 -4.21,-2.76 -2.04,-2.09 -3.06,-4.83 -3.03,-8.23 0.03,-5.98 2.77,-10.7 8.23,-14.16 3.86,-2.42 9.36,-3.82 16.49,-4.19 2.93,-0.16 6.35,-0.26 10.24,-0.29 0.72,-2.49 1.08,-4.53 1.12,-6.12 -0.03,-3.67 -2.9,-5.55 -8.6,-5.65 -1.99,0 -3.84,0.32 -5.56,0.97 -1.97,0.72 -3.43,2.04 -4.39,3.97l-0.85 2.01 -9.15 0 0.84 -2.57zm25.38 13.32l-8.84 0.42c-10.42,0.78 -15.66,4.66 -15.76,11.64 -0.03,4.52 2.37,6.81 7.19,6.88 4.34,-0.03 7.85,-1.64 10.53,-4.81 1.71,-2 3.38,-4.79 4.99,-8.37 0.54,-1.12 0.96,-2.22 1.27,-3.32l0.61 -2.43zm-15.15 -29.76c0.36,-1.8 0.81,-3.39 1.31,-4.77 1.4,-4.2 4.03,-6.3 7.89,-6.3 1.76,-0.03 3.21,0.27 4.4,0.89l6.45 3.22c0.46,0.27 1.02,0.4 1.64,0.36 1.34,0.1 2.38,-0.67 3.13,-2.28l0.75 -1.91 5.88 0 -0.32 1.68c-1.59,6.39 -4.54,9.52 -8.83,9.39 -1.6,0.03 -3.07,-0.3 -4.4,-0.97l-6.13 -2.95c-0.81,-0.34 -1.55,-0.53 -2.23,-0.56 -1.43,0 -2.49,0.89 -3.14,2.7l-0.51 1.5 -5.88 0zm34.95 38.88c-0.04,-4.71 1,-9.58 3.08,-14.62 0.72,-1.85 1.64,-3.67 2.76,-5.47 4.4,-7.22 10.46,-11.37 18.23,-12.42 1.21,-0.16 2.5,-0.24 3.87,-0.24 5.63,-0.03 9.98,1.13 13.02,3.51 3.69,2.82 5.49,6.86 5.43,12.11 0,2.55 -0.35,5.23 -1.07,8.02 -1.27,4.9 -3.13,9.22 -5.52,12.95 -1.22,1.9 -2.49,3.53 -3.83,4.87 -4.74,4.75 -10.83,7.11 -18.28,7.05 -5.46,0.03 -9.71,-1.19 -12.71,-3.68 -3.35,-2.81 -5.03,-6.83 -4.99,-12.06zm9.15 0.46c-0.13,6.14 2.97,9.25 9.25,9.35 5.42,0.1 9.81,-2.87 13.17,-8.88 0.88,-1.55 1.68,-3.19 2.39,-4.89 2.15,-5.3 3.24,-9.89 3.27,-13.8 0,-2.86 -0.83,-5.09 -2.47,-6.68 -1.66,-1.58 -3.86,-2.38 -6.59,-2.38 -4.83,0.1 -8.91,2.39 -12.24,6.92 -2.81,3.76 -4.75,8.16 -5.84,13.22 -0.65,2.84 -0.97,5.21 -0.94,7.14zm107.02 9.2c-5.53,4.05 -10.55,6.07 -15.04,6.07 -4.64,-0.03 -8.24,-1.53 -10.83,-4.48 -2.44,-2.78 -3.64,-6.53 -3.61,-11.26 0,-7.91 2.2,-15.15 6.58,-21.74 4.9,-7.29 11.27,-10.96 19.11,-11.02 5.89,-0.06 10.4,2.19 13.54,6.73l7.43 -25.52 8.84 0 -19.01 65.97 -7.9 0 0.88 -4.77zm-20.32 -9.39c-0.03,6.43 2.77,9.6 8.4,9.54 3.52,0 6.62,-1.37 9.3,-4.11 2.67,-2.74 4.74,-6.03 6.17,-9.86 0.75,-1.96 1.43,-4.06 2.06,-6.31 0.78,-2.86 1.16,-5.34 1.16,-7.42 -0.07,-2.68 -0.96,-4.85 -2.68,-6.48 -1.74,-1.64 -3.94,-2.46 -6.62,-2.46 -5.2,0 -9.63,3.43 -13.32,10.28 -3.01,5.6 -4.52,11.21 -4.48,16.81zm52 -22.71c0.33,-0.94 0.8,-1.86 1.37,-2.77 0.58,-0.93 1.23,-1.73 1.95,-2.41 3.33,-3.37 8.53,-5.07 15.59,-5.14 9.01,-0.03 14.54,2.34 16.63,7.14 0.59,1.34 0.9,2.65 0.9,3.92 -0.03,2.54 -0.73,6.07 -2.1,10.65 -2.42,8.23 -4.24,15.26 -5.47,21.13l-0.83 4.34 -8.13 0 0 0 0.75 -5.56c-1.21,1.24 -2.23,2.18 -3.04,2.8 -3.5,2.78 -7.56,4.13 -12.24,4.07 -2.31,0.03 -4.48,-0.35 -6.51,-1.16 -1.67,-0.59 -3.07,-1.51 -4.21,-2.76 -2.05,-2.09 -3.06,-4.83 -3.03,-8.23 0.03,-5.98 2.78,-10.7 8.23,-14.16 3.86,-2.42 9.36,-3.82 16.49,-4.19 2.93,-0.16 6.34,-0.26 10.24,-0.29 0.72,-2.49 1.08,-4.53 1.12,-6.12 -0.03,-3.67 -2.9,-5.55 -8.59,-5.65 -2,0 -3.84,0.32 -5.57,0.97 -1.96,0.72 -3.43,2.04 -4.38,3.97l-0.85 2.01 -9.15 0 0.84 -2.57zm25.37 13.32l-8.84 0.42c-10.41,0.78 -15.66,4.66 -15.76,11.64 -0.03,4.52 2.36,6.81 7.19,6.88 4.34,-0.03 7.85,-1.64 10.53,-4.81 1.7,-2 3.38,-4.79 4.99,-8.37 0.54,-1.12 0.95,-2.22 1.27,-3.32l0.61 -2.43zm26.49 9.17c-0.3,1.68 -0.46,3.05 -0.46,4.11 0.06,3.73 2.95,5.61 8.69,5.65 2.82,0.03 5.4,-0.54 7.7,-1.72 3.08,-1.59 4.63,-3.62 4.63,-6.08 0.03,-2.15 -1.51,-4.06 -4.63,-5.75l-6.92 -3.49c-1.87,-0.91 -3.6,-1.88 -5.23,-2.9 -3.86,-2.36 -5.77,-5.23 -5.74,-8.6 -0.03,-1.59 0.32,-3.14 1.02,-4.67 1.43,-3.21 4.19,-5.65 8.28,-7.29 3.3,-1.34 7.01,-2.02 11.16,-2.06 2.12,0 4.16,0.21 6.13,0.61 6.41,1.31 9.6,4.83 9.57,10.56l-0.14 2.61 -9.02 0 0 -1.68c-0.03,-4.02 -2.71,-6.07 -8.03,-6.17 -2.33,0 -4.4,0.42 -6.2,1.26 -2.41,1.12 -3.6,2.71 -3.6,4.77 0.03,1.89 1.32,3.63 3.87,5.18l3.97 2.25 5.28 2.71c2.41,1.21 4.45,2.55 6.17,4.02 2.16,1.84 3.22,4.23 3.22,7.19 0,5.23 -2.51,9.23 -7.56,12.01 -3.9,2.15 -8.69,3.21 -14.4,3.17 -11.64,-0.03 -17.43,-3.67 -17.37,-10.92 -0.03,-1.07 0.1,-2.02 0.37,-2.9l0.7 -1.86 8.55 0zm89.83 -51.5l9.48 0 -19.47 65.88 -9.44 0 19.44 -65.88zm19.07 20l8.07 0 -1.26 6.32 2.16 -2.1c0.84,-0.75 1.86,-1.48 3.07,-2.2 3.59,-2.19 7.74,-3.28 12.44,-3.32 3.36,0 6.09,0.75 8.18,2.25 2.49,1.8 3.92,4.18 4.29,7.14l0.14 2.06c0,2.65 -0.5,5.64 -1.54,9.01l-8.08 26.73 -8.65 0 7.91 -26.87c0.93,-3.27 1.4,-5.9 1.44,-7.9 -0.11,-4.29 -2.52,-6.46 -7.19,-6.49 -8.6,0.07 -15.18,7.78 -19.76,23.17l-5.28 18.08 -8.88 0 12.94 -45.88zm75.02 41.11c-5.53,4.05 -10.56,6.07 -15.04,6.07 -4.64,-0.03 -8.24,-1.53 -10.83,-4.48 -2.44,-2.78 -3.63,-6.53 -3.6,-11.26 0,-7.91 2.2,-15.15 6.58,-21.74 4.9,-7.29 11.26,-10.96 19.11,-11.02 5.88,-0.06 10.4,2.19 13.54,6.73l7.43 -25.52 8.83 0 -19.01 65.97 -7.89 0 0.88 -4.77zm-20.32 -9.39c-0.03,6.43 2.78,9.6 8.41,9.54 3.53,0 6.62,-1.37 9.3,-4.11 2.68,-2.74 4.74,-6.03 6.17,-9.86 0.75,-1.96 1.44,-4.06 2.06,-6.31 0.78,-2.86 1.17,-5.34 1.17,-7.42 -0.07,-2.68 -0.96,-4.85 -2.68,-6.48 -1.74,-1.64 -3.94,-2.46 -6.62,-2.46 -5.2,0 -9.63,3.43 -13.32,10.28 -3.01,5.6 -4.51,11.21 -4.48,16.81zm54.85 -31.72l8.69 0 -7.11 24.77 -1.48 5.13c-0.48,1.74 -0.68,3.33 -0.65,4.77 -0.07,2.09 0.63,3.73 2.09,4.94 1.34,1.13 3.09,1.67 5.25,1.64 1.65,0.03 3.32,-0.32 4.99,-1.02 3.75,-1.5 6.87,-4.45 9.39,-8.84 0.91,-1.5 1.7,-3.16 2.43,-5.01 0.61,-1.4 1.19,-3.01 1.78,-4.85l1.12 -3.6 5.33 -17.94 8.69 0 -9.39 32.28 -1.26 4.59 -1.26 4.75 -0.94 4.26 -8.17 0 1.44 -6.35 -3.44 2.98c-4.12,3.14 -8.51,4.7 -13.17,4.67 -1.4,0.03 -2.84,-0.11 -4.3,-0.41 -6.36,-1.2 -9.52,-4.77 -9.49,-10.75 0,-1.8 0.26,-3.81 0.75,-6.03l1.4 -5.33 7.34 -24.67zm26.17 -19.37l11.36 0 -13.84 13.68 -7.75 0 10.24 -13.68zm26.39 50.87c-0.3,1.68 -0.46,3.05 -0.46,4.11 0.06,3.73 2.95,5.61 8.69,5.65 2.82,0.03 5.41,-0.54 7.71,-1.72 3.07,-1.59 4.62,-3.62 4.62,-6.08 0.03,-2.15 -1.52,-4.06 -4.62,-5.75l-6.92 -3.49c-1.86,-0.91 -3.6,-1.88 -5.23,-2.9 -3.86,-2.36 -5.78,-5.23 -5.74,-8.6 -0.03,-1.59 0.32,-3.14 1.02,-4.67 1.43,-3.21 4.19,-5.65 8.28,-7.29 3.3,-1.34 7.02,-2.02 11.16,-2.06 2.12,0 4.17,0.21 6.12,0.61 6.41,1.31 9.6,4.83 9.57,10.56l-0.14 2.61 -9.01 0 0 -1.68c-0.03,-4.02 -2.71,-6.07 -8.04,-6.17 -2.33,0 -4.4,0.42 -6.21,1.26 -2.4,1.12 -3.6,2.71 -3.6,4.77 0.03,1.89 1.32,3.63 3.87,5.18l3.97 2.25 5.28 2.71c2.4,1.21 4.45,2.55 6.17,4.02 2.16,1.84 3.22,4.23 3.22,7.19 0,5.23 -2.52,9.23 -7.56,12.01 -3.9,2.15 -8.69,3.21 -14.4,3.17 -11.64,-0.03 -17.43,-3.67 -17.37,-10.92 -0.03,-1.07 0.1,-2.02 0.37,-2.9l0.7 -1.86 8.55 0zm45.23 -31.5l9.82 0 2.84 -9.12 9.25 -2.57 -3.59 11.69 9.71 0 -1.86 5.94 -9.71 0 -7.82 25.79 -0.92 3.65c-0.28,1.08 -0.43,1.98 -0.43,2.66 -0.08,2.09 1.35,3.16 4.35,3.22 0.96,0 2.01,-0.11 3.13,-0.34l2.16 -0.51 -1.86 5.93 -2.35 0.38c-2.02,0.34 -3.8,0.5 -5.32,0.46 -5.95,-0.03 -8.98,-2.41 -9.11,-7.14 -0.03,-1.13 0.13,-2.42 0.46,-3.88l0.99 -4.02 0.88 -3 7.57 -23.22 -10.19 0 2.01 -5.94zm28.21 45.88l13.36 -45.88 7.66 0 -1.53 7.8c2.52,-3.24 4.62,-5.41 6.3,-6.49 2.6,-1.71 5.45,-2.58 8.61,-2.62l2.43 0.34 -2.52 8.08 -3.56 -0.24c-3.42,0 -6.39,1.32 -8.93,3.97 -0.96,0.97 -1.72,1.96 -2.28,2.98 -0.69,1.16 -1.31,2.46 -1.88,3.89 -0.93,2.3 -1.74,4.61 -2.43,6.91l-6.4 21.26 -8.83 0zm46.82 -45.88l8.96 0 -13.92 45.88 -8.64 0 13.6 -45.88zm5.09 -20.09l10.05 0 -2.57 9.15 -10.19 0 2.71 -9.15zm14.21 29.1c0.34,-0.94 0.8,-1.86 1.37,-2.77 0.58,-0.93 1.23,-1.73 1.94,-2.41 3.33,-3.37 8.53,-5.07 15.6,-5.14 9.01,-0.03 14.55,2.34 16.63,7.14 0.59,1.34 0.9,2.65 0.9,3.92 -0.03,2.54 -0.74,6.07 -2.11,10.65 -2.43,8.23 -4.24,15.26 -5.47,21.13l-0.83 4.34 -8.13 0 0 0 0.75 -5.56c-1.22,1.24 -2.24,2.18 -3.05,2.8 -3.49,2.78 -7.55,4.13 -12.23,4.07 -2.31,0.03 -4.48,-0.35 -6.5,-1.16 -1.68,-0.59 -3.08,-1.51 -4.22,-2.76 -2.04,-2.09 -3.06,-4.83 -3.02,-8.23 0.03,-5.98 2.77,-10.7 8.23,-14.16 3.86,-2.42 9.36,-3.82 16.49,-4.19 2.93,-0.16 6.35,-0.26 10.23,-0.29 0.72,-2.49 1.09,-4.53 1.12,-6.12 -0.03,-3.67 -2.9,-5.55 -8.59,-5.65 -2,0 -3.84,0.32 -5.57,0.97 -1.96,0.72 -3.43,2.04 -4.38,3.97l-0.85 2.01 -9.15 0 0.84 -2.57zm25.38 13.32l-8.84 0.42c-10.41,0.78 -15.66,4.66 -15.76,11.64 -0.03,4.52 2.36,6.81 7.19,6.88 4.33,-0.03 7.85,-1.64 10.52,-4.81 1.71,-2 3.38,-4.79 4.99,-8.37 0.54,-1.12 0.96,-2.22 1.27,-3.32l0.61 -2.43zm26.48 9.17c-0.3,1.68 -0.46,3.05 -0.46,4.11 0.07,3.73 2.96,5.61 8.7,5.65 2.82,0.03 5.41,-0.54 7.7,-1.72 3.08,-1.59 4.62,-3.62 4.62,-6.08 0.03,-2.15 -1.52,-4.06 -4.62,-5.75l-6.92 -3.49c-1.87,-0.91 -3.6,-1.88 -5.23,-2.9 -3.86,-2.36 -5.77,-5.23 -5.74,-8.6 -0.03,-1.59 0.32,-3.14 1.02,-4.67 1.43,-3.21 4.19,-5.65 8.28,-7.29 3.3,-1.34 7.01,-2.02 11.16,-2.06 2.12,0 4.17,0.21 6.13,0.61 6.41,1.31 9.59,4.83 9.56,10.56l-0.14 2.61 -9.01 0 0 -1.68c-0.03,-4.02 -2.71,-6.07 -8.04,-6.17 -2.33,0 -4.4,0.42 -6.2,1.26 -2.41,1.12 -3.61,2.71 -3.61,4.77 0.03,1.89 1.32,3.63 3.88,5.18l3.97 2.25 5.28 2.71c2.4,1.21 4.44,2.55 6.17,4.02 2.15,1.84 3.22,4.23 3.22,7.19 0,5.23 -2.52,9.23 -7.56,12.01 -3.91,2.15 -8.69,3.21 -14.4,3.17 -11.64,-0.03 -17.43,-3.67 -17.37,-10.92 -0.03,-1.07 0.1,-2.02 0.37,-2.9l0.7 -1.86 8.55 0zm102.4 9.62c-5.53,4.05 -10.55,6.07 -15.03,6.07 -4.64,-0.03 -8.25,-1.53 -10.83,-4.48 -2.44,-2.78 -3.64,-6.53 -3.61,-11.26 0,-7.91 2.2,-15.15 6.58,-21.74 4.9,-7.29 11.26,-10.96 19.11,-11.02 5.89,-0.06 10.4,2.19 13.54,6.73l7.43 -25.52 8.84 0 -19.01 65.97 -7.9 0 0.88 -4.77zm-20.32 -9.39c-0.03,6.43 2.78,9.6 8.4,9.54 3.53,0 6.62,-1.37 9.3,-4.11 2.68,-2.74 4.74,-6.03 6.17,-9.86 0.75,-1.96 1.43,-4.06 2.06,-6.31 0.78,-2.86 1.16,-5.34 1.16,-7.42 -0.07,-2.68 -0.96,-4.85 -2.68,-6.48 -1.74,-1.64 -3.94,-2.46 -6.62,-2.46 -5.2,0 -9.63,3.43 -13.32,10.28 -3.01,5.6 -4.52,11.21 -4.48,16.81zm45.79 -0.27c-0.03,-4.71 1,-9.58 3.08,-14.62 0.72,-1.85 1.64,-3.67 2.76,-5.47 4.4,-7.22 10.46,-11.37 18.22,-12.42 1.21,-0.16 2.51,-0.24 3.88,-0.24 5.63,-0.03 9.98,1.13 13.03,3.51 3.68,2.82 5.48,6.86 5.42,12.11 0,2.55 -0.35,5.23 -1.07,8.02 -1.28,4.9 -3.13,9.22 -5.52,12.95 -1.21,1.9 -2.49,3.53 -3.83,4.87 -4.74,4.75 -10.83,7.11 -18.27,7.05 -5.47,0.03 -9.72,-1.19 -12.71,-3.68 -3.35,-2.81 -5.02,-6.83 -4.99,-12.06zm9.15 0.46c-0.13,6.14 2.96,9.25 9.25,9.35 5.42,0.1 9.81,-2.87 13.17,-8.88 0.88,-1.55 1.67,-3.19 2.39,-4.89 2.15,-5.3 3.24,-9.89 3.27,-13.8 0,-2.86 -0.84,-5.09 -2.47,-6.68 -1.66,-1.58 -3.86,-2.38 -6.59,-2.38 -4.83,0.1 -8.92,2.39 -12.25,6.92 -2.81,3.76 -4.75,8.16 -5.83,13.22 -0.66,2.84 -0.97,5.21 -0.94,7.14zm94.93 -51.91l39.71 0 -2.33 7.62 -30.19 0 -6.27 20.73 29.07 0 -2.25 7.62 -28.88 0 -6.71 22.28 32.03 0 -2.29 7.62 -41.33 0 19.44 -65.88zm44.24 51.5c-0.3,1.68 -0.46,3.05 -0.46,4.11 0.07,3.73 2.95,5.61 8.69,5.65 2.82,0.03 5.41,-0.54 7.7,-1.72 3.08,-1.59 4.63,-3.62 4.63,-6.08 0.03,-2.15 -1.51,-4.06 -4.63,-5.75l-6.92 -3.49c-1.87,-0.91 -3.61,-1.88 -5.23,-2.9 -3.86,-2.36 -5.78,-5.23 -5.74,-8.6 -0.04,-1.59 0.32,-3.14 1.02,-4.67 1.43,-3.21 4.2,-5.65 8.28,-7.29 3.3,-1.34 7.01,-2.02 11.16,-2.06 2.12,0 4.16,0.21 6.12,0.61 6.41,1.31 9.6,4.83 9.57,10.56l-0.14 2.61 -9.01 0 0 -1.68c-0.03,-4.02 -2.71,-6.07 -8.04,-6.17 -2.33,0 -4.4,0.42 -6.21,1.26 -2.41,1.12 -3.6,2.71 -3.6,4.77 0.03,1.89 1.33,3.63 3.87,5.18l3.97 2.25 5.28 2.71c2.41,1.21 4.45,2.55 6.17,4.02 2.15,1.84 3.22,4.23 3.22,7.19 0,5.23 -2.52,9.23 -7.56,12.01 -3.91,2.15 -8.69,3.21 -14.4,3.17 -11.64,-0.03 -17.42,-3.67 -17.36,-10.92 -0.03,-1.07 0.09,-2.02 0.37,-2.9l0.7 -1.86 8.55 0zm45.23 -31.5l9.82 0 2.84 -9.12 9.25 -2.57 -3.59 11.69 9.71 0 -1.86 5.94 -9.72 0 -7.81 25.79 -0.93 3.65c-0.29,1.08 -0.43,1.98 -0.43,2.66 -0.08,2.09 1.35,3.16 4.35,3.22 0.96,0 2.01,-0.11 3.13,-0.34l2.15 -0.51 -1.86 5.93 -2.34 0.38c-2.03,0.34 -3.8,0.5 -5.33,0.46 -5.95,-0.03 -8.98,-2.41 -9.11,-7.14 -0.03,-1.13 0.13,-2.42 0.46,-3.88l0.99 -4.02 0.88 -3 7.58 -23.22 -10.19 0 2.01 -5.94zm37.62 9.01c0.34,-0.94 0.8,-1.86 1.37,-2.77 0.58,-0.93 1.23,-1.73 1.94,-2.41 3.33,-3.37 8.53,-5.07 15.6,-5.14 9.01,-0.03 14.54,2.34 16.63,7.14 0.59,1.34 0.89,2.65 0.89,3.92 -0.03,2.54 -0.73,6.07 -2.11,10.65 -2.42,8.23 -4.24,15.26 -5.47,21.13l-0.83 4.34 -8.13 0 0 0 0.75 -5.56c-1.21,1.24 -2.23,2.18 -3.05,2.8 -3.49,2.78 -7.56,4.13 -12.23,4.07 -2.31,0.03 -4.48,-0.35 -6.51,-1.16 -1.67,-0.59 -3.08,-1.51 -4.21,-2.76 -2.04,-2.09 -3.06,-4.83 -3.03,-8.23 0.03,-5.98 2.78,-10.7 8.23,-14.16 3.86,-2.42 9.36,-3.82 16.49,-4.19 2.94,-0.16 6.35,-0.26 10.24,-0.29 0.72,-2.49 1.09,-4.53 1.11,-6.12 -0.03,-3.67 -2.9,-5.55 -8.59,-5.65 -1.99,0 -3.84,0.32 -5.56,0.97 -1.96,0.72 -3.43,2.04 -4.38,3.97l-0.85 2.01 -9.15 0 0.85 -2.57zm25.37 13.32l-8.83 0.42c-10.41,0.78 -15.66,4.66 -15.76,11.64 -0.03,4.52 2.36,6.81 7.19,6.88 4.33,-0.03 7.84,-1.64 10.52,-4.81 1.71,-2 3.38,-4.79 4.99,-8.37 0.54,-1.12 0.95,-2.22 1.27,-3.32l0.61 -2.43zm49.28 18.79c-5.54,4.05 -10.56,6.07 -15.04,6.07 -4.64,-0.03 -8.24,-1.53 -10.83,-4.48 -2.44,-2.78 -3.63,-6.53 -3.6,-11.26 0,-7.91 2.2,-15.15 6.59,-21.74 4.9,-7.29 11.26,-10.96 19.11,-11.02 5.88,-0.06 10.39,2.19 13.54,6.73l7.43 -25.52 8.83 0 -19.01 65.97 -7.89 0 0.88 -4.77zm-20.32 -9.39c-0.03,6.43 2.78,9.6 8.4,9.54 3.52,0 6.62,-1.37 9.3,-4.11 2.68,-2.74 4.74,-6.03 6.17,-9.86 0.75,-1.96 1.43,-4.06 2.06,-6.31 0.79,-2.86 1.17,-5.34 1.17,-7.42 -0.07,-2.68 -0.96,-4.85 -2.68,-6.48 -1.74,-1.64 -3.94,-2.46 -6.62,-2.46 -5.2,0 -9.63,3.43 -13.32,10.28 -3.01,5.6 -4.51,11.21 -4.48,16.81zm45.78 -0.27c-0.03,-4.71 1,-9.58 3.08,-14.62 0.71,-1.85 1.64,-3.67 2.75,-5.47 4.41,-7.22 10.46,-11.37 18.23,-12.42 1.21,-0.16 2.5,-0.24 3.87,-0.24 5.63,-0.03 9.98,1.13 13.02,3.51 3.69,2.82 5.49,6.86 5.42,12.11 0,2.55 -0.35,5.23 -1.07,8.02 -1.27,4.9 -3.12,9.22 -5.51,12.95 -1.22,1.9 -2.49,3.53 -3.83,4.87 -4.74,4.75 -10.83,7.11 -18.28,7.05 -5.47,0.03 -9.71,-1.19 -12.71,-3.68 -3.35,-2.81 -5.03,-6.83 -4.99,-12.06zm9.15 0.46c-0.12,6.14 2.97,9.25 9.25,9.35 5.42,0.1 9.81,-2.87 13.17,-8.88 0.88,-1.55 1.68,-3.19 2.39,-4.89 2.15,-5.3 3.24,-9.89 3.27,-13.8 0,-2.86 -0.83,-5.09 -2.47,-6.68 -1.66,-1.58 -3.86,-2.38 -6.59,-2.38 -4.83,0.1 -8.91,2.39 -12.24,6.92 -2.81,3.76 -4.75,8.16 -5.84,13.22 -0.65,2.84 -0.97,5.21 -0.94,7.14zm107.02 9.2c-5.53,4.05 -10.55,6.07 -15.04,6.07 -4.64,-0.03 -8.24,-1.53 -10.82,-4.48 -2.44,-2.78 -3.64,-6.53 -3.61,-11.26 0,-7.91 2.2,-15.15 6.58,-21.74 4.9,-7.29 11.26,-10.96 19.11,-11.02 5.88,-0.06 10.4,2.19 13.54,6.73l7.43 -25.52 8.84 0 -19.01 65.97 -7.9 0 0.88 -4.77zm-20.32 -9.39c-0.03,6.43 2.78,9.6 8.41,9.54 3.52,0 6.62,-1.37 9.3,-4.11 2.68,-2.74 4.74,-6.03 6.17,-9.86 0.75,-1.96 1.43,-4.06 2.06,-6.31 0.78,-2.86 1.16,-5.34 1.16,-7.42 -0.06,-2.68 -0.95,-4.85 -2.67,-6.48 -1.74,-1.64 -3.94,-2.46 -6.62,-2.46 -5.2,0 -9.63,3.43 -13.32,10.28 -3.02,5.6 -4.52,11.21 -4.48,16.81z"/>
  <path class="fil0" d="M1674.14 452.8c-0.91,3.24 -1.34,5.82 -1.31,7.75 0,2.81 0.88,5.02 2.65,6.64 1.76,1.62 3.99,2.41 6.7,2.34 3.89,0 6.91,-1.21 9.03,-3.65 0.93,-1.02 1.97,-2.52 3.13,-4.48l9.16 0 -1.16 2.35 -1.65 2.57c-0.85,1.21 -1.69,2.23 -2.56,3.08 -4.15,4.11 -9.95,6.14 -17.43,6.07 -8.44,-0.03 -13.68,-2.92 -15.74,-8.64 -0.88,-2.18 -1.29,-4.32 -1.26,-6.44 -0.03,-4.73 0.93,-9.47 2.86,-14.21 2.09,-5.14 4.62,-9.28 7.61,-12.43 1.75,-1.87 4.13,-3.43 7.14,-4.67 3.28,-1.4 6.71,-2.1 10.33,-2.1 2.95,0.03 5.76,0.56 8.41,1.6 1.83,0.73 3.43,1.8 4.77,3.17 2.21,2.33 3.32,5.44 3.32,9.3 -0.03,1.96 -0.23,3.95 -0.56,5.98l-0.75 3.27 -0.8 2.52 -31.86 0zm1.82 -5.93l21.69 0 0.75 -2.57c0.34,-1.37 0.53,-2.7 0.56,-3.97 -0.03,-4.87 -2.73,-7.34 -8.08,-7.43 -5.64,-0.06 -9.9,2.94 -12.8,8.98l-2.11 4.99zm107.9 -7.38l24.75 0 -9.71 32.71 -5.85 1.55c-4.77,1.12 -9.66,1.69 -14.72,1.72 -6.08,0 -11.1,-0.85 -15.09,-2.52 -2.42,-0.94 -4.54,-2.38 -6.36,-4.31 -3.83,-3.89 -5.72,-9.28 -5.69,-16.16 0.03,-11.82 3.35,-22.31 9.95,-31.49 6.69,-9.35 16.38,-14.02 29.02,-14.02 3.36,0 6.57,0.35 9.61,1.07 2.41,0.57 4.53,1.48 6.36,2.76 4.45,3.11 6.65,7.4 6.59,12.84l-0.1 2.3 -9.44 0 0 -2.1c-0.13,-6.43 -4.82,-9.73 -14.06,-9.89 -10.83,0.03 -18.92,6.42 -24.24,19.2 -2.81,6.54 -4.2,12.92 -4.17,19.15 -0.09,7.65 2.7,12.52 8.36,14.56 1.62,0.66 3.4,1.1 5.33,1.31 1.62,0.22 3.35,0.33 5.2,0.33 2.64,0.04 4.99,-0.22 7.05,-0.75 1.01,-0.22 2.49,-0.7 4.48,-1.45l5.57 -19.19 -15.09 0 2.25 -7.62zm33.9 20.24c-0.04,-4.71 1,-9.58 3.07,-14.62 0.72,-1.85 1.65,-3.67 2.76,-5.47 4.4,-7.22 10.46,-11.37 18.23,-12.42 1.21,-0.16 2.5,-0.24 3.87,-0.24 5.63,-0.03 9.98,1.13 13.03,3.51 3.69,2.82 5.48,6.86 5.42,12.11 0,2.55 -0.35,5.23 -1.07,8.02 -1.27,4.9 -3.12,9.22 -5.52,12.95 -1.21,1.9 -2.49,3.53 -3.83,4.87 -4.74,4.75 -10.83,7.11 -18.28,7.05 -5.47,0.03 -9.71,-1.19 -12.71,-3.68 -3.35,-2.81 -5.02,-6.83 -4.99,-12.06zm9.15 0.46c-0.12,6.14 2.97,9.25 9.25,9.35 5.42,0.1 9.81,-2.87 13.17,-8.88 0.88,-1.55 1.68,-3.19 2.39,-4.89 2.16,-5.3 3.24,-9.89 3.28,-13.8 0,-2.86 -0.83,-5.09 -2.47,-6.68 -1.66,-1.58 -3.86,-2.38 -6.59,-2.38 -4.83,0.1 -8.92,2.39 -12.25,6.92 -2.81,3.76 -4.75,8.16 -5.84,13.22 -0.65,2.84 -0.97,5.21 -0.94,7.14zm55.74 -31.91l8.96 0 -13.92 45.88 -8.64 0 13.6 -45.88zm5.09 -20.09l10.04 0 -2.57 9.15 -10.19 0 2.71 -9.15zm14.21 29.1c0.33,-0.94 0.8,-1.86 1.37,-2.77 0.58,-0.93 1.23,-1.73 1.94,-2.41 3.33,-3.37 8.53,-5.07 15.6,-5.14 9.01,-0.03 14.54,2.34 16.63,7.14 0.59,1.34 0.89,2.65 0.89,3.92 -0.03,2.54 -0.73,6.07 -2.1,10.65 -2.42,8.23 -4.24,15.26 -5.47,21.13l-0.83 4.34 -8.13 0 0 0 0.75 -5.56c-1.21,1.24 -2.23,2.18 -3.05,2.8 -3.49,2.78 -7.56,4.13 -12.23,4.07 -2.31,0.03 -4.48,-0.35 -6.51,-1.16 -1.67,-0.59 -3.08,-1.51 -4.21,-2.76 -2.04,-2.09 -3.06,-4.83 -3.03,-8.23 0.03,-5.98 2.78,-10.7 8.23,-14.16 3.86,-2.42 9.36,-3.82 16.49,-4.19 2.93,-0.16 6.34,-0.26 10.24,-0.29 0.72,-2.49 1.09,-4.53 1.12,-6.12 -0.03,-3.67 -2.9,-5.55 -8.6,-5.65 -1.99,0 -3.84,0.32 -5.57,0.97 -1.96,0.72 -3.43,2.04 -4.38,3.97l-0.85 2.01 -9.15 0 0.84 -2.57zm25.37 13.32l-8.84 0.42c-10.41,0.78 -15.66,4.66 -15.76,11.64 -0.03,4.52 2.36,6.81 7.19,6.88 4.34,-0.03 7.85,-1.64 10.52,-4.81 1.71,-2 3.38,-4.79 5,-8.37 0.54,-1.12 0.96,-2.22 1.27,-3.32l0.61 -2.43zm1.87 -41.7l11.36 0 -13.84 13.68 -7.75 0 10.24 -13.68zm24.62 50.87c-0.3,1.68 -0.46,3.05 -0.46,4.11 0.07,3.73 2.95,5.61 8.69,5.65 2.82,0.03 5.41,-0.54 7.7,-1.72 3.08,-1.59 4.63,-3.62 4.63,-6.08 0.03,-2.15 -1.52,-4.06 -4.63,-5.75l-6.92 -3.49c-1.87,-0.91 -3.6,-1.88 -5.23,-2.9 -3.86,-2.36 -5.77,-5.23 -5.74,-8.6 -0.03,-1.59 0.32,-3.14 1.02,-4.67 1.43,-3.21 4.19,-5.65 8.28,-7.29 3.3,-1.34 7.02,-2.02 11.16,-2.06 2.12,0 4.16,0.21 6.12,0.61 6.41,1.31 9.6,4.83 9.57,10.56l-0.14 2.61 -9.01 0 0 -1.68c-0.03,-4.02 -2.71,-6.07 -8.03,-6.17 -2.33,0 -4.4,0.42 -6.21,1.26 -2.41,1.12 -3.6,2.71 -3.6,4.77 0.03,1.89 1.32,3.63 3.87,5.18l3.97 2.25 5.28 2.71c2.41,1.21 4.45,2.55 6.17,4.02 2.16,1.84 3.22,4.23 3.22,7.19 0,5.23 -2.52,9.23 -7.56,12.01 -3.91,2.15 -8.69,3.21 -14.4,3.17 -11.64,-0.03 -17.43,-3.67 -17.37,-10.92 -0.03,-1.07 0.1,-2.02 0.37,-2.9l0.7 -1.86 8.55 0z"/>
  <path class="fil1" d="M492.27 349.64l1003.87 0 0 -349.64 -1003.87 0 0 54.91 85.1 0 0 7.42 -85.1 0 0 49.82 85.1 0 0 7.22 -85.1 0 0 49.83 85.1 0 0 6.99 -85.1 0 0 50.25 85.1 0 0 6.78 -85.1 0 0 50.04 85.1 0 0 7.21 -85.1 0 0 59.15zm829.43 -224.75l64.78 0c0,-5.72 1.28,-12.72 1.28,-18.45 0,-47.7 -44.04,-55.76 -96.33,-55.76 -97.39,1.06 -139.08,68.49 -149.46,122.98 -2.34,10.61 -2.34,20.99 -3.6,31.38 1.26,54.7 34.72,86.09 96.33,89.48 37.04,1.27 87,-8.05 119.39,-13.99l26.68 -124.25 -112.41 0 -9.32 45.37 48.69 0 -9.31 41.78c-12.71,3.6 -24.35,4.67 -33.66,4.67 -39.38,0 -58.01,-20.99 -58.01,-53.44 4.65,-45.36 25.61,-99.86 80.02,-99.86 17.36,0 36,7 34.93,30.11zm-360.73 -69.54l-49.96 233.44 177.61 0 9.11 -45.37 -112.42 0 10.37 -49.83 104.37 0 9.31 -45.37 -104.36 0 10.37 -47.71 113.68 0 9.31 -45.16 -177.4 0zm-107.96 0l-51.03 233.44 66.27 0 48.7 -233.44 -63.93 0zm-195.83 0l-49.96 233.44 63.72 0 19.9 -88.41 92.73 0 9.32 -45.15 -92.94 0 11.64 -54.71 100.98 0 9.31 -45.16 -164.7 0zm838.74 235.14l-85.52 0 0 -6.78 85.52 0 0 6.78zm0 -56.82l-85.52 0 0 -7.21 85.52 0 0 7.21zm0 -57.03l-85.52 0 0 -7.42 85.52 0 0 7.42zm-0.42 -57.25l-85.1 0 0 -7.22 85.1 0 0 7.22zm0 -57.04l-85.1 0 0 -7.42 85.1 0 0 7.42z"/>
  <path class="fil0" d="M337.55 564.72l28.96 0c4.04,0.11 7.5,0.56 10.39,1.35 2.89,0.79 5.21,1.98 6.95,3.56 1.74,1.53 3.05,3.46 3.93,5.81 0.87,2.34 1.31,5.05 1.31,8.1 0,3.16 -0.44,5.89 -1.31,8.18 -0.87,2.29 -2.18,4.14 -3.93,5.56 -1.69,1.36 -3.51,2.48 -5.44,3.35 -1.94,0.87 -3.94,1.47 -6.01,1.8 -0.43,0.05 -0.87,0.12 -1.31,0.2 -0.43,0.08 -0.87,0.12 -1.31,0.12 -0.44,0.06 -0.87,0.08 -1.31,0.08 -0.43,0 -0.87,0 -1.31,0l-12.84 -0.16 0 21.27 -16.77 0 0 -59.23zm16.77 11.54l0 14.81 7.69 0c1.58,0.11 2.97,-0.01 4.17,-0.37 1.2,-0.35 2.21,-0.89 3.03,-1.59 0.81,-0.76 1.43,-1.59 1.84,-2.5 0.41,-0.9 0.62,-1.92 0.62,-3.07 0,-1.25 -0.26,-2.35 -0.78,-3.27 -0.52,-0.93 -1.3,-1.66 -2.33,-2.21 -1.03,-0.55 -2.21,-0.96 -3.52,-1.23 -1.31,-0.27 -2.75,-0.41 -4.34,-0.41l-6.38 -0.16zm41.8 -11.54l45.08 0 0 12.19 -28.3 0 0 11.62 26.42 0 0 12.27 -26.42 0 0 11.53 28.3 0 0 11.62 -45.08 0 0 -59.23zm54.73 0l16.77 0 0 46.96 26.42 0 0 12.27 -43.19 0 0 -59.23zm48.26 30.27c0.16,-3.98 0.78,-7.77 1.84,-11.37 1.06,-3.6 2.58,-7.03 4.54,-10.31 1.96,-3.22 5.04,-5.64 9.24,-7.28 4.21,-1.64 9.52,-2.46 15.95,-2.46 0.12,0 0.19,0 0.25,0 0.05,0 0.13,0 0.24,0 0.05,0 0.12,0 0.2,0 0.08,0 0.15,0 0.21,0 0.1,0 0.19,0 0.24,0 0.06,0 0.14,0 0.25,0 0.06,0 0.12,0 0.21,0 0.08,0 0.15,0 0.2,0 3.55,0.16 6.96,0.79 10.23,1.88 3.27,1.09 6.38,2.67 9.32,4.75 2.95,2.07 5.17,5.14 6.67,9.2 1.5,4.06 2.25,9.1 2.25,15.1 0,0.81 -0.01,1.63 -0.04,2.45 -0.03,0.82 -0.1,1.66 -0.2,2.54 -0.06,0.44 -0.11,0.88 -0.16,1.31 -0.05,0.44 -0.12,0.87 -0.16,1.31 -0.12,0.49 -0.2,0.96 -0.29,1.39 -0.08,0.44 -0.18,0.88 -0.29,1.31 -0.65,2.62 -1.68,5.1 -3.07,7.45 -1.39,2.34 -3.12,4.58 -5.2,6.71 -2.07,2.12 -4.78,3.71 -8.14,4.74 -3.35,1.04 -7.37,1.56 -12.06,1.56 -6.22,0 -11.4,-0.72 -15.54,-2.17 -4.14,-1.45 -7.29,-3.64 -9.41,-6.59 -2.12,-2.94 -3.79,-6.04 -4.99,-9.28 -1.2,-3.24 -1.93,-6.67 -2.21,-10.27 0,-0.05 0,-0.11 0,-0.16 0,-0.05 0,-0.14 0,-0.25 -0.05,-0.05 -0.08,-0.12 -0.08,-0.2 0,-0.08 0,-0.15 0,-0.2 0,-0.16 0,-0.33 0,-0.49 0,-0.16 0,-0.33 0,-0.49l0 -0.16zm17.42 -0.66c0,2.51 0.29,4.87 0.86,7.07 0.57,2.21 1.43,4.32 2.58,6.34 1.15,2.02 2.62,3.53 4.41,4.54 1.81,1.01 3.9,1.51 6.3,1.51 2.08,0 3.92,-0.4 5.52,-1.19 1.61,-0.79 2.96,-2.01 4.05,-3.64 1.09,-1.58 1.93,-3.58 2.5,-6.02 0.57,-2.43 0.86,-5.25 0.86,-8.46 0,-2.56 -0.26,-4.98 -0.78,-7.24 -0.51,-2.26 -1.32,-4.35 -2.41,-6.26 -1.03,-1.91 -2.43,-3.35 -4.17,-4.34 -1.74,-0.98 -3.81,-1.47 -6.21,-1.47 -2.4,0 -4.45,0.5 -6.14,1.51 -1.69,1 -3.03,2.52 -4.01,4.54 -0.98,2.02 -1.74,4.13 -2.29,6.34 -0.54,2.21 -0.9,4.51 -1.07,6.91l0 -0.16zm79.92 -29.62l41.89 0 0 12.19 -25.11 0 0 13.58 23.15 0 0 11.54 -23.15 0 0 21.92 -16.77 0 0 -59.23zm50.88 0l16.77 0 0 34.77c0,2.18 0.22,4.13 0.65,5.85 0.44,1.72 1.09,3.23 1.97,4.54 0.92,1.31 2.12,2.29 3.59,2.95 1.48,0.65 3.25,0.98 5.32,0.98 2.4,0 4.41,-0.33 6.05,-0.98 1.63,-0.66 2.86,-1.66 3.68,-3.03 0.81,-1.36 1.44,-2.94 1.88,-4.75 0.44,-1.8 0.65,-3.82 0.65,-6.05l0 -34.28 16.77 0 0 36.65c0,3.65 -0.57,6.95 -1.72,9.9 -1.14,2.95 -2.83,5.56 -5.07,7.85 -2.29,2.29 -5.28,4 -8.96,5.11 -3.68,1.12 -8.11,1.68 -13.29,1.68 -4.31,0 -8.2,-0.54 -11.66,-1.63 -3.47,-1.09 -6.48,-2.78 -9.04,-5.07 -2.51,-2.29 -4.4,-4.85 -5.68,-7.69 -1.28,-2.83 -1.93,-5.95 -1.93,-9.33l0 -37.47zm63.16 0l53.41 0 0 12.19 -18.65 0 0 47.04 -16.12 0 0 -47.04 -18.65 0 0 -12.19zm59.88 0l16.77 0 0 34.77c0,2.18 0.23,4.13 0.66,5.85 0.44,1.72 1.09,3.23 1.97,4.54 0.93,1.31 2.13,2.29 3.6,2.95 1.47,0.65 3.25,0.98 5.32,0.98 2.4,0 4.42,-0.33 6.05,-0.98 1.63,-0.66 2.86,-1.66 3.68,-3.03 0.82,-1.36 1.45,-2.94 1.89,-4.75 0.44,-1.8 0.65,-3.82 0.65,-6.05l0 -34.28 16.77 0 0 36.65c0,3.65 -0.58,6.95 -1.72,9.9 -1.15,2.95 -2.83,5.56 -5.07,7.85 -2.29,2.29 -5.28,4 -8.96,5.11 -3.68,1.12 -8.11,1.68 -13.29,1.68 -4.31,0 -8.19,-0.54 -11.66,-1.63 -3.46,-1.09 -6.47,-2.78 -9.04,-5.07 -2.51,-2.29 -4.4,-4.85 -5.68,-7.69 -1.28,-2.83 -1.92,-5.95 -1.92,-9.33l0 -37.47zm67 0l26.42 0c0.11,0.11 0.23,0.16 0.37,0.16 0.14,0 0.26,0 0.37,0 0.11,0 0.23,0 0.37,0 0.13,0 0.28,0 0.45,0 2.78,0.06 5.44,0.35 7.98,0.9 2.54,0.55 4.97,1.31 7.32,2.29 2.29,1.04 4.02,2.58 5.19,4.63 1.17,2.04 1.76,4.59 1.76,7.65 0,2.4 -0.35,4.48 -1.02,6.26 -0.68,1.77 -1.73,3.2 -3.15,4.29 -1.36,1.09 -2.89,1.99 -4.58,2.7 -1.69,0.71 -3.49,1.23 -5.4,1.55 2.89,0.11 5.23,0.65 7.03,1.64 1.8,0.98 3.05,2.4 3.76,4.25 0.71,1.85 1.3,3.79 1.76,5.81 0.46,2.02 0.81,4.12 1.02,6.3 0,0.05 0,0.11 0,0.16 0,0.05 0,0.11 0,0.16 0,0.05 0,0.11 0,0.16 0,0.05 0.03,0.11 0.08,0.16 0.11,0.87 0.2,1.76 0.29,2.66 0.08,0.9 0.18,1.81 0.29,2.74 0.11,0.88 0.27,1.7 0.49,2.5 0.23,0.79 0.47,1.54 0.74,2.25l-18 0c-0.22,-0.44 -0.4,-0.96 -0.53,-1.55 -0.13,-0.6 -0.26,-1.26 -0.36,-1.97 -0.06,-0.71 -0.11,-1.43 -0.16,-2.17 -0.05,-0.73 -0.11,-1.49 -0.16,-2.25 0,-0.11 0,-0.19 0,-0.24 0,-0.06 0,-0.14 0,-0.25 -0.05,-0.05 -0.08,-0.12 -0.08,-0.2 0,-0.08 0,-0.15 0,-0.21 0,-0.16 0,-0.33 0,-0.49 0,-0.16 0,-0.33 0,-0.49 -0.11,-1.58 -0.3,-3.09 -0.57,-4.54 -0.27,-1.44 -0.63,-2.82 -1.06,-4.13 -0.44,-1.31 -1.17,-2.29 -2.21,-2.95 -1.04,-0.66 -2.34,-0.98 -3.93,-0.98l-7.69 -0.16 0 22.58 -16.77 0 0 -59.23zm16.77 12.19l0 12.92 6.46 0c0.11,0.11 0.23,0.16 0.37,0.16 0.13,0 0.26,0 0.37,0 0.11,0 0.23,0 0.37,0 0.14,0 0.28,0 0.45,0 0.98,-0.06 1.94,-0.2 2.86,-0.45 0.93,-0.25 1.83,-0.56 2.7,-0.94 0.82,-0.44 1.45,-1.06 1.88,-1.88 0.44,-0.82 0.66,-1.88 0.66,-3.19 0,-1.09 -0.22,-2.05 -0.66,-2.86 -0.43,-0.82 -1.09,-1.5 -1.96,-2.04 -0.88,-0.49 -1.85,-0.88 -2.94,-1.15 -1.09,-0.27 -2.27,-0.41 -3.52,-0.41l-7.03 -0.16zm41.15 18.08c0.16,-3.98 0.78,-7.77 1.84,-11.37 1.07,-3.6 2.58,-7.03 4.54,-10.31 1.96,-3.22 5.04,-5.64 9.24,-7.28 4.2,-1.64 9.52,-2.46 15.95,-2.46 0.11,0 0.19,0 0.25,0 0.05,0 0.14,0 0.24,0 0.06,0 0.13,0 0.21,0 0.08,0 0.15,0 0.2,0 0.11,0 0.19,0 0.24,0 0.05,0 0.14,0 0.25,0 0.05,0 0.12,0 0.2,0 0.08,0 0.15,0 0.21,0 3.55,0.16 6.95,0.79 10.23,1.88 3.27,1.09 6.38,2.67 9.33,4.75 2.94,2.07 5.17,5.14 6.67,9.2 1.5,4.06 2.24,9.1 2.24,15.1 0,0.81 -0.01,1.63 -0.04,2.45 -0.03,0.82 -0.09,1.66 -0.21,2.54 -0.05,0.44 -0.11,0.88 -0.16,1.31 -0.05,0.44 -0.11,0.87 -0.16,1.31 -0.11,0.49 -0.2,0.96 -0.28,1.39 -0.08,0.44 -0.18,0.88 -0.29,1.31 -0.66,2.62 -1.68,5.1 -3.07,7.45 -1.39,2.34 -3.13,4.58 -5.19,6.71 -2.08,2.12 -4.79,3.71 -8.14,4.74 -3.36,1.04 -7.37,1.56 -12.07,1.56 -6.22,0 -11.4,-0.72 -15.54,-2.17 -4.14,-1.45 -7.28,-3.64 -9.41,-6.59 -2.12,-2.94 -3.79,-6.04 -4.99,-9.28 -1.2,-3.24 -1.94,-6.67 -2.21,-10.27 0,-0.05 0,-0.11 0,-0.16 0,-0.05 0,-0.14 0,-0.25 -0.06,-0.05 -0.08,-0.12 -0.08,-0.2 0,-0.08 0,-0.15 0,-0.2 0,-0.16 0,-0.33 0,-0.49 0,-0.16 0,-0.33 0,-0.49l0 -0.16zm17.42 -0.66c0,2.51 0.28,4.87 0.86,7.07 0.57,2.21 1.43,4.32 2.58,6.34 1.15,2.02 2.62,3.53 4.42,4.54 1.8,1.01 3.9,1.51 6.3,1.51 2.07,0 3.91,-0.4 5.52,-1.19 1.61,-0.79 2.96,-2.01 4.05,-3.64 1.09,-1.58 1.92,-3.58 2.49,-6.02 0.58,-2.43 0.86,-5.25 0.86,-8.46 0,-2.56 -0.26,-4.98 -0.77,-7.24 -0.52,-2.26 -1.32,-4.35 -2.42,-6.26 -1.03,-1.91 -2.43,-3.35 -4.17,-4.34 -1.75,-0.98 -3.82,-1.47 -6.22,-1.47 -2.4,0 -4.44,0.5 -6.14,1.51 -1.69,1 -3.02,2.52 -4.01,4.54 -0.98,2.02 -1.74,4.13 -2.29,6.34 -0.54,2.21 -0.89,4.51 -1.06,6.91l0 -0.16zm80.58 -29.62l25.11 0c6.76,0.11 12.41,0.91 16.93,2.42 4.53,1.5 7.94,3.75 10.23,6.75 2.29,3 4.02,6.24 5.2,9.73 1.17,3.49 1.79,7.2 1.84,11.12 0,0.06 0,0.11 0,0.16 0,0.06 0,0.08 0,0.08 0,0.05 0,0.11 0,0.16 0,0.05 0,0.11 0,0.16 0,0.06 0,0.11 0,0.16 0,0.05 0,0.08 0,0.08 0,0.05 0,0.11 0,0.16 0,0.05 0,0.11 0,0.16 -0.05,0.11 -0.08,0.22 -0.08,0.33 0,0.11 0,0.22 0,0.33 0,0.05 0,0.12 0,0.2 0,0.08 0,0.18 0,0.29 -0.16,4.69 -0.99,8.75 -2.49,12.19 -1.5,3.44 -3.67,6.22 -6.5,8.34 -2.83,2.18 -5.81,3.79 -8.92,4.83 -3.11,1.04 -6.35,1.55 -9.74,1.55l-31.57 0 0 -59.23zm16.77 47.61l8.34 0c2.73,0.11 5.09,-0.23 7.08,-1.02 1.99,-0.79 3.67,-2 5.03,-3.64 1.36,-1.64 2.43,-3.36 3.19,-5.15 0.76,-1.8 1.23,-3.68 1.39,-5.64 0,-0.06 0,-0.11 0,-0.16 0,-0.05 0.03,-0.14 0.08,-0.25 0,-0.05 0,-0.12 0,-0.2 0,-0.08 0,-0.15 0,-0.2 0,-0.11 0,-0.19 0,-0.25 0,-0.05 0,-0.14 0,-0.24 0,-0.05 0,-0.12 0,-0.2 0,-0.08 0,-0.15 0,-0.21 0,-0.11 0,-0.22 0,-0.33 0,-0.11 0,-0.25 0,-0.41 -0.05,-0.11 -0.08,-0.22 -0.08,-0.33 0,-0.11 0,-0.21 0,-0.32 0,-0.27 -0.01,-0.53 -0.04,-0.78 -0.03,-0.25 -0.07,-0.48 -0.12,-0.7 -0.33,-1.91 -0.91,-3.74 -1.76,-5.48 -0.85,-1.74 -1.98,-3.41 -3.4,-4.99 -1.42,-1.58 -3.03,-2.77 -4.83,-3.56 -1.8,-0.79 -3.76,-1.19 -5.89,-1.19l-9 -0.16 0 35.42zm69.53 -47.61l19.96 0 23.23 59.23 -18.65 0 -3.93 -10.96 -23.15 0 -3.85 10.96 -17.42 0 23.8 -59.23zm16.12 36.08l-7.04 -23.89 -7.77 23.89 14.81 0zm60.61 -36.08l16.77 0 0 59.23 -16.77 0 0 -59.23zm27.08 0l23.15 0 20.04 43.77 0 -43.77 14.81 0 0 59.23 -23.23 0 -19.96 -44.42 0 44.42 -14.8 0 0 -59.23zm68.96 0l25.11 0c6.76,0.11 12.41,0.91 16.94,2.42 4.52,1.5 7.94,3.75 10.23,6.75 2.28,3 4.02,6.24 5.19,9.73 1.17,3.49 1.79,7.2 1.84,11.12 0,0.06 0,0.11 0,0.16 0,0.06 0,0.08 0,0.08 0,0.05 0,0.11 0,0.16 0,0.05 0,0.11 0,0.16 0,0.06 0,0.11 0,0.16 0,0.05 0,0.08 0,0.08 0,0.05 0,0.11 0,0.16 0,0.05 0,0.11 0,0.16 -0.05,0.11 -0.08,0.22 -0.08,0.33 0,0.11 0,0.22 0,0.33 0,0.05 0,0.12 0,0.2 0,0.08 0,0.18 0,0.29 -0.16,4.69 -1,8.75 -2.5,12.19 -1.5,3.44 -3.66,6.22 -6.5,8.34 -2.84,2.18 -5.81,3.79 -8.92,4.83 -3.11,1.04 -6.35,1.55 -9.74,1.55l-31.57 0 0 -59.23zm16.77 47.61l8.34 0c2.73,0.11 5.09,-0.23 7.08,-1.02 1.99,-0.79 3.67,-2 5.03,-3.64 1.37,-1.64 2.43,-3.36 3.2,-5.15 0.76,-1.8 1.22,-3.68 1.39,-5.64 0,-0.06 0,-0.11 0,-0.16 0,-0.05 0.02,-0.14 0.08,-0.25 0,-0.05 0,-0.12 0,-0.2 0,-0.08 0,-0.15 0,-0.2 0,-0.11 0,-0.19 0,-0.25 0,-0.05 0,-0.14 0,-0.24 0,-0.05 0,-0.12 0,-0.2 0,-0.08 0,-0.15 0,-0.21 0,-0.11 0,-0.22 0,-0.33 0,-0.11 0,-0.25 0,-0.41 -0.06,-0.11 -0.08,-0.22 -0.08,-0.33 0,-0.11 0,-0.21 0,-0.32 0,-0.27 -0.02,-0.53 -0.05,-0.78 -0.02,-0.25 -0.07,-0.48 -0.12,-0.7 -0.33,-1.91 -0.92,-3.74 -1.76,-5.48 -0.85,-1.74 -1.97,-3.41 -3.4,-4.99 -1.42,-1.58 -3.03,-2.77 -4.83,-3.56 -1.8,-0.79 -3.76,-1.19 -5.89,-1.19l-9 -0.16 0 35.42zm51.54 -47.61l16.77 0 0 34.11c0,2.18 0.22,4.13 0.65,5.85 0.44,1.72 1.09,3.23 1.96,4.54 0.93,1.31 2.12,2.29 3.6,2.95 1.47,0.66 3.24,0.98 5.32,0.98 2.39,0 4.41,-0.33 6.05,-0.98 1.63,-0.66 2.86,-1.66 3.68,-3.03 0.82,-1.36 1.44,-2.95 1.88,-4.75 0.43,-1.8 0.65,-3.82 0.65,-6.05l0 -33.62 16.77 0 0 36.08c0,3.65 -0.58,6.94 -1.72,9.86 -1.15,2.92 -2.84,5.52 -5.07,7.81 -2.29,2.29 -5.28,4 -8.96,5.12 -3.68,1.12 -8.11,1.68 -13.29,1.68 -4.31,0 -8.2,-0.54 -11.66,-1.63 -3.46,-1.09 -6.47,-2.78 -9.04,-5.07 -2.51,-2.29 -4.4,-4.86 -5.68,-7.69 -1.29,-2.83 -1.93,-5.95 -1.93,-9.33l0 -36.81zm21.27 -6.46l9 -12.27 18 0 -16.03 12.27 -10.97 0zm44.42 46.38l16.77 0c0,0.27 0,0.53 0,0.78 0,0.25 0.03,0.51 0.08,0.78 0,0.11 0.01,0.23 0.04,0.37 0.03,0.14 0.04,0.26 0.04,0.37 0.05,0.16 0.09,0.31 0.12,0.45 0.03,0.14 0.07,0.26 0.12,0.37 0.16,0.71 0.45,1.36 0.86,1.96 0.41,0.6 0.94,1.2 1.6,1.8 0.65,0.54 1.5,0.95 2.53,1.23 1.04,0.27 2.24,0.41 3.6,0.41 1.48,0 2.77,-0.14 3.89,-0.41 1.12,-0.27 2.06,-0.68 2.82,-1.23 0.76,-0.6 1.35,-1.23 1.76,-1.88 0.41,-0.66 0.64,-1.34 0.7,-2.05 0,-0.05 0,-0.11 0,-0.16 0,-0.05 0,-0.11 0,-0.16 -0.06,0 -0.08,-0.03 -0.08,-0.08 0,-0.05 0,-0.11 0,-0.16 0,-0.05 0,-0.11 0,-0.16 0,-0.05 0,-0.11 0,-0.16 -0.05,-0.05 -0.08,-0.11 -0.08,-0.16 0,-0.06 0,-0.11 0,-0.16 -0.22,-0.6 -0.57,-1.2 -1.07,-1.8 -0.49,-0.6 -1.12,-1.17 -1.88,-1.72 -0.81,-0.6 -1.78,-1.1 -2.9,-1.51 -1.12,-0.41 -2.38,-0.75 -3.8,-1.02 -0.05,0 -0.11,0 -0.16,0 -0.06,0 -0.11,0 -0.16,0 -0.05,0 -0.12,-0.01 -0.16,-0.04 -0.05,-0.03 -0.11,-0.07 -0.17,-0.12 -4.36,-0.93 -8.04,-1.95 -11.04,-3.07 -3,-1.12 -5.29,-2.28 -6.88,-3.48 -1.58,-1.25 -2.81,-2.84 -3.68,-4.75 -0.87,-1.91 -1.39,-4.12 -1.55,-6.63 0,-0.11 0,-0.2 0,-0.29 0,-0.08 0,-0.15 0,-0.2 0,-0.05 0,-0.09 0,-0.12 0,-0.03 0,-0.07 0,-0.12 0,0 0,-0.01 0,-0.04 0,-0.03 0,-0.07 0,-0.12 -0.05,-2.89 0.53,-5.44 1.76,-7.65 1.23,-2.21 3.07,-4.08 5.52,-5.6 2.46,-1.47 5.17,-2.59 8.14,-3.35 2.98,-0.76 6.21,-1.15 9.7,-1.15 4.85,0.16 8.88,0.72 12.06,1.68 3.19,0.96 5.55,2.31 7.08,4.05 1.58,1.69 2.77,3.63 3.56,5.81 0.79,2.18 1.19,4.55 1.19,7.11l-16.77 -0.16c0,-0.87 -0.16,-1.69 -0.49,-2.46 -0.33,-0.76 -0.82,-1.44 -1.47,-2.04 -0.65,-0.6 -1.47,-1.05 -2.46,-1.35 -0.98,-0.3 -2.1,-0.45 -3.35,-0.45 -1.14,0 -2.15,0.14 -3.02,0.41 -0.87,0.27 -1.61,0.68 -2.21,1.23 -0.54,0.54 -0.98,1.1 -1.31,1.67 -0.33,0.58 -0.49,1.19 -0.49,1.84 0,0.05 0,0.11 0,0.16 0,0.06 0,0.11 0,0.16 0,0.05 0,0.1 0,0.12 0,0.03 0,0.07 0,0.12 0.11,0.54 0.33,1.1 0.66,1.68 0.32,0.57 0.76,1.1 1.31,1.59 0.6,0.54 1.32,0.98 2.17,1.31 0.85,0.33 1.81,0.54 2.9,0.66 0.6,0.11 1.23,0.23 1.88,0.36 0.66,0.14 1.31,0.26 1.96,0.37 0.66,0.11 1.31,0.23 1.96,0.37 0.66,0.14 1.34,0.28 2.05,0.45 2.29,0.55 4.5,1.25 6.63,2.13 2.13,0.87 4.17,1.94 6.14,3.19 1.91,1.2 3.35,2.79 4.33,4.79 0.98,1.99 1.48,4.34 1.48,7.08 0,3.54 -0.63,6.58 -1.88,9.12 -1.25,2.53 -3.17,4.6 -5.73,6.17 -2.51,1.53 -5.28,2.66 -8.31,3.4 -3.02,0.73 -6.31,1.1 -9.85,1.1 -4.31,0 -8.1,-0.42 -11.37,-1.27 -3.28,-0.85 -5.97,-2.11 -8.1,-3.81 -2.18,-1.74 -3.84,-3.9 -4.99,-6.46 -1.15,-2.56 -1.8,-5.54 -1.97,-8.92l0 -0.16zm56.69 -39.92l53.42 0 0 12.19 -18.65 0 0 47.04 -16.12 0 0 -47.04 -18.66 0 0 -12.19zm58.57 0l26.43 0c0.1,0.11 0.23,0.16 0.36,0.16 0.14,0 0.26,0 0.37,0 0.11,0 0.23,0 0.37,0 0.13,0 0.28,0 0.45,0 2.78,0.06 5.44,0.35 7.98,0.9 2.54,0.55 4.98,1.31 7.32,2.29 2.29,1.04 4.02,2.58 5.2,4.63 1.17,2.04 1.76,4.59 1.76,7.65 0,2.4 -0.34,4.48 -1.02,6.26 -0.68,1.77 -1.73,3.2 -3.15,4.29 -1.36,1.09 -2.89,1.99 -4.58,2.7 -1.69,0.71 -3.49,1.23 -5.4,1.55 2.89,0.11 5.23,0.65 7.03,1.64 1.8,0.98 3.05,2.4 3.76,4.25 0.71,1.85 1.3,3.79 1.76,5.81 0.46,2.02 0.81,4.12 1.02,6.3 0,0.05 0,0.11 0,0.16 0,0.05 0,0.11 0,0.16 0,0.05 0,0.11 0,0.16 0,0.05 0.03,0.11 0.08,0.16 0.11,0.87 0.2,1.76 0.29,2.66 0.08,0.9 0.18,1.81 0.29,2.74 0.11,0.88 0.27,1.7 0.49,2.5 0.22,0.79 0.46,1.54 0.74,2.25l-18 0c-0.21,-0.44 -0.39,-0.96 -0.53,-1.55 -0.14,-0.6 -0.26,-1.26 -0.37,-1.97 -0.06,-0.71 -0.11,-1.43 -0.16,-2.17 -0.06,-0.73 -0.11,-1.49 -0.16,-2.25 0,-0.11 0,-0.19 0,-0.24 0,-0.06 0,-0.14 0,-0.25 -0.06,-0.05 -0.08,-0.12 -0.08,-0.2 0,-0.08 0,-0.15 0,-0.21 0,-0.16 0,-0.33 0,-0.49 0,-0.16 0,-0.33 0,-0.49 -0.11,-1.58 -0.3,-3.09 -0.57,-4.54 -0.27,-1.44 -0.63,-2.82 -1.06,-4.13 -0.44,-1.31 -1.17,-2.29 -2.21,-2.95 -1.04,-0.66 -2.35,-0.98 -3.93,-0.98l-7.69 -0.16 0 22.58 -16.77 0 0 -59.23zm16.77 12.19l0 12.92 6.46 0c0.11,0.11 0.23,0.16 0.37,0.16 0.13,0 0.26,0 0.36,0 0.11,0 0.23,0 0.37,0 0.14,0 0.29,0 0.45,0 0.98,-0.06 1.94,-0.2 2.86,-0.45 0.93,-0.25 1.83,-0.56 2.7,-0.94 0.82,-0.44 1.44,-1.06 1.88,-1.88 0.43,-0.82 0.66,-1.88 0.66,-3.19 0,-1.09 -0.22,-2.05 -0.66,-2.86 -0.44,-0.82 -1.09,-1.5 -1.96,-2.04 -0.88,-0.49 -1.85,-0.88 -2.95,-1.15 -1.09,-0.27 -2.26,-0.41 -3.51,-0.41l-7.03 -0.16zm43.11 -12.19l16.77 0 0 59.23 -16.77 0 0 -59.23zm45.73 0l19.96 0 23.23 59.23 -18.65 0 -3.93 -10.96 -23.15 0 -3.84 10.96 -17.43 0 23.81 -59.23zm16.12 36.08l-7.03 -23.89 -7.78 23.89 14.81 0z"/>
 </g>
</svg>
