<?xml version="1.0" encoding="UTF-8"?>
<!DOCTYPE svg PUBLIC "-//W3C//DTD SVG 1.1//EN" "http://www.w3.org/Graphics/SVG/1.1/DTD/svg11.dtd">
<!-- Creator: CorelDRAW 2020 (64 Bit) -->
<svg xmlns="http://www.w3.org/2000/svg" xml:space="preserve" width="71.8777mm" height="26.6564mm" version="1.1" style="shape-rendering:geometricPrecision; text-rendering:geometricPrecision; image-rendering:optimizeQuality; fill-rule:evenodd; clip-rule:evenodd"
viewBox="0 0 2307.22 855.65"
 xmlns:xlink="http://www.w3.org/1999/xlink"
 xmlns:xodm="http://www.corel.com/coreldraw/odm/2003">
 <defs>
  <style type="text/css">
   <![CDATA[
    .fil0 {fill:#FEFEFE}
    .fil1 {fill:#FEFEFE;fill-rule:nonzero}
   ]]>
  </style>
 </defs>
 <g id="Camada_x0020_1">
  <metadata id="CorelCorpID_0Corel-Layer"/>
  <g id="_2939871342096">
   <path class="fil0" d="M455.85 614.8l1395.53 0 0 -104.14 -150.69 0 0 -12.06 150.69 0 0 -87.73 -150.69 0 0 -12.73 150.69 0 0 -87.73 -150.69 0 0 -12.72 150.69 0 0 -297.69 -1395.53 0 0 96.77 150.02 0 0 12.72 -150.02 0 0 87.73 150.02 0 0 12.73 -150.02 0 0 87.73 150.68 0 0 12.06 -150.68 0 0 88.4 150.68 0 0 12.07 -150.68 0 0 87.73 150.68 0 0 12.72 -150.68 0 0 104.14zm582.81 -424.02c7.52,-30.95 22.52,-60.97 56.3,-61.91 23.44,0 32.83,15.01 32.83,37.52 0,34.71 -15.95,85.37 -57.22,86.31 -25.34,0.94 -33.77,-15.95 -34.72,-37.52 0.95,-7.51 1.87,-15.95 2.81,-24.4zm25.34 99.44c15.95,-1.88 31.89,-4.68 35.64,-4.68l67.55 0 7.51 -33.78c-13.13,0 -29.09,-0.93 -45.98,4.69l0 -0.94c33.77,-18.76 55.34,-54.41 55.34,-92.87 0,-53.47 -38.45,-69.41 -78.8,-69.41 -77.87,0 -111.62,49.72 -121.94,100.37 -0.95,8.45 -1.88,15.95 -2.81,24.4 0.93,39.4 20.62,72.23 83.48,72.23zm-148.21 -134.15l54.41 0c0.92,-4.69 1.87,-10.32 1.87,-15.01 0,-29.08 -25.34,-47.83 -78.8,-47.83 -54.4,0.93 -98.5,28.14 -112.57,104.13 -1.88,8.44 -1.88,16.89 -2.81,25.32 0.93,42.21 24.39,68.48 79.74,67.55 64.72,-2.82 90.99,-31.89 98.49,-64.73l-55.34 0c-4.7,15.01 -13.14,24.39 -35.65,27.21 -22.51,1.88 -31.88,-11.26 -31.88,-32.83 0,-8.45 0.93,-17.83 2.8,-27.21 9.38,-37.52 21.58,-63.79 52.53,-63.79 18.76,0 30.03,10.32 27.22,27.2zm-194.18 -59.09l-40.35 188.56 52.54 0 39.4 -188.56 -51.59 0zm822.3 224.59l-40.34 188.55 137.89 0 8.45 -36.59 -85.36 0 31.88 -151.96 -52.53 0zm-86.31 0l-40.33 188.55 52.54 0 39.4 -188.55 -51.6 0zm-223.25 128.52c-0.94,5.63 -0.94,10.32 -1.88,15.95 0.93,32.83 24.38,48.78 72.23,48.78 45.03,0 89.11,-20.64 95.68,-62.85 7.51,-45.03 -29.09,-49.72 -64.73,-59.1 -19.69,-4.69 -28.14,-11.26 -26.27,-20.64 1.88,-9.38 13.14,-18.77 28.15,-18.77 13.14,0 20.63,6.57 20.63,17.83 0,1.87 0,3.75 0,5.62l52.53 0c0.94,-5.62 1.88,-12.2 1.88,-16.88 0,-26.26 -20.65,-42.21 -65.67,-42.21 -45.03,0 -85.36,16.88 -93.8,59.1 -7.51,40.34 25.33,47.84 59.1,56.28 19.69,5.63 33.77,7.51 32.83,22.51 -0.93,12.2 -16.88,22.52 -35.65,21.59 -17.82,-0.95 -23.45,-11.26 -23.45,-20.65 0,-2.81 0.93,-4.69 0.93,-6.56l-52.52 0zm-94.76 -13.14l-50.65 0 42.22 -78.8 0.93 0 7.5 78.8zm-29.07 -115.38l-114.45 188.55 51.6 0 20.64 -36.59 76.92 0 4.69 36.59 59.1 0 -34.7 -188.55 -63.79 0zm-204.5 36.58l22.51 0c16.88,0 26.26,3.75 26.26,15.95 0,19.7 -15.94,27.2 -33.77,27.2l-24.39 0 9.39 -43.15zm-45.03 -36.58l-40.33 188.55 52.52 0 15.95 -72.23 12.2 0c0,0 0.93,0 2.81,0 16.88,0 29.09,0.94 28.14,17.82 0,12.2 -3.74,36.58 -3.74,50.66 0,0.94 0,2.81 0,3.75l57.22 0c-0.93,-5.63 -0.93,-12.19 -1.87,-17.83 0.94,-17.82 2.81,-31.89 2.81,-43.15 0,-19.7 -5.63,-30.96 -33.77,-31.9l0.94 -0.93c25.33,-2.82 51.59,-16.89 57.22,-46.9 8.45,-42.22 -33.77,-47.85 -68.48,-47.85l-81.61 0zm-167.91 151.96l8.44 -41.27 33.77 0c10.31,0 15.95,7.5 15.95,16.88 0,15.01 -15.02,24.39 -29.08,24.39l-29.09 0zm15.95 -77.85l8.43 -37.53 26.27 0c13.12,0 19.7,3.75 19.7,14.08 0,15.01 -11.25,23.45 -25.34,23.45l-29.06 0zm-35.66 -74.11l-40.34 188.55 86.31 0c47.84,0 77.87,-16.89 85.37,-51.59 0,-3.76 0.93,-7.5 0.93,-10.32 0,-23.45 -18.76,-32.83 -36.58,-35.65l0 0c31.89,-6.56 48.77,-25.32 50.65,-48.77 4.7,-42.22 -48.77,-42.22 -63.79,-42.22l-82.55 0zm1027.99 -111.61l150.02 0 0 -12.73 -150.02 0 0 12.73zm0 -100.46l150.02 0 0 -12.72 -150.02 0 0 12.72z"/>
   <path class="fil1" d="M-0 748.12l50.89 0c7.09,0.19 13.18,0.98 18.25,2.38 5.07,1.39 9.16,3.47 12.22,6.25 3.06,2.69 5.37,6.09 6.9,10.21 1.52,4.12 2.3,8.87 2.3,14.24 0,5.56 -0.78,10.35 -2.3,14.37 -1.53,4.03 -3.84,7.28 -6.9,9.78 -2.98,2.4 -6.16,4.36 -9.56,5.89 -3.4,1.53 -6.93,2.59 -10.56,3.16 -0.77,0.1 -1.53,0.22 -2.3,0.36 -0.76,0.14 -1.53,0.22 -2.3,0.22 -0.77,0.1 -1.53,0.14 -2.3,0.14 -0.76,0 -1.52,0 -2.3,0l-22.57 -0.29 0 37.38 -29.47 0 0 -104.09zm29.47 20.27l0 26.02 13.52 0c2.78,0.19 5.22,-0.03 7.33,-0.65 2.11,-0.62 3.88,-1.56 5.32,-2.8 1.44,-1.34 2.52,-2.81 3.24,-4.39 0.71,-1.58 1.08,-3.38 1.08,-5.39 0,-2.21 -0.46,-4.12 -1.37,-5.75 -0.91,-1.63 -2.28,-2.92 -4.1,-3.88 -1.82,-0.96 -3.88,-1.68 -6.18,-2.16 -2.3,-0.48 -4.84,-0.72 -7.62,-0.72l-11.21 -0.29zm73.46 -20.27l79.21 0 0 21.42 -49.73 0 0 20.42 46.43 0 0 21.56 -46.43 0 0 20.27 49.73 0 0 20.42 -79.21 0 0 -104.09zm96.18 0l29.48 0 0 82.52 46.43 0 0 21.57 -75.91 0 0 -104.09zm84.82 53.2c0.29,-7 1.37,-13.66 3.24,-19.99 1.87,-6.32 4.53,-12.36 7.98,-18.11 3.45,-5.65 8.87,-9.92 16.25,-12.79 7.38,-2.88 16.72,-4.31 28.03,-4.31 0.2,0 0.34,0 0.43,0 0.09,0 0.24,0 0.44,0 0.09,0 0.21,0 0.35,0 0.14,0 0.26,0 0.37,0 0.18,0 0.33,0 0.43,0 0.1,0 0.24,0 0.43,0 0.1,0 0.22,0 0.36,0 0.14,0 0.26,0 0.36,0 6.23,0.29 12.23,1.39 17.97,3.31 5.75,1.92 11.22,4.7 16.39,8.34 5.18,3.64 9.08,9.03 11.72,16.17 2.63,7.15 3.96,15.99 3.96,26.53 0,1.43 -0.02,2.87 -0.07,4.31 -0.05,1.44 -0.16,2.92 -0.35,4.45 -0.1,0.77 -0.2,1.54 -0.3,2.3 -0.09,0.77 -0.2,1.53 -0.29,2.3 -0.2,0.86 -0.36,1.68 -0.5,2.44 -0.14,0.77 -0.31,1.54 -0.51,2.3 -1.15,4.6 -2.94,8.97 -5.39,13.09 -2.44,4.12 -5.49,8.05 -9.13,11.79 -3.63,3.73 -8.4,6.52 -14.3,8.33 -5.89,1.83 -12.96,2.73 -21.2,2.73 -10.93,0 -20.04,-1.27 -27.31,-3.81 -7.28,-2.54 -12.8,-6.4 -16.53,-11.58 -3.73,-5.17 -6.66,-10.61 -8.77,-16.32 -2.11,-5.7 -3.4,-11.72 -3.87,-18.04 0,-0.1 0,-0.19 0,-0.29 0,-0.1 0,-0.24 0,-0.43 -0.11,-0.1 -0.15,-0.22 -0.15,-0.36 0,-0.14 0,-0.27 0,-0.36 0,-0.29 0,-0.57 0,-0.86 0,-0.29 0,-0.58 0,-0.86l0 -0.28zm30.63 -1.15c0,4.41 0.5,8.55 1.51,12.43 1,3.88 2.51,7.59 4.53,11.14 2.01,3.55 4.6,6.2 7.76,7.98 3.17,1.77 6.86,2.66 11.07,2.66 3.65,0 6.88,-0.7 9.71,-2.09 2.82,-1.39 5.19,-3.52 7.11,-6.39 1.92,-2.78 3.39,-6.3 4.39,-10.57 1,-4.26 1.51,-9.22 1.51,-14.87 0,-4.51 -0.46,-8.75 -1.37,-12.72 -0.91,-3.98 -2.33,-7.64 -4.25,-11 -1.81,-3.35 -4.26,-5.89 -7.33,-7.62 -3.06,-1.73 -6.71,-2.59 -10.92,-2.59 -4.22,0 -7.82,0.89 -10.79,2.66 -2.98,1.77 -5.33,4.43 -7.04,7.98 -1.73,3.55 -3.07,7.26 -4.03,11.14 -0.96,3.88 -1.59,7.93 -1.87,12.15l0 -0.29zm140.45 -52.05l73.61 0 0 21.42 -44.14 0 0 23.86 40.68 0 0 20.27 -40.68 0 0 38.53 -29.48 0 0 -104.09zm89.42 0l29.48 0 0 61.1c0,3.84 0.39,7.26 1.15,10.28 0.77,3.02 1.91,5.68 3.45,7.98 1.62,2.3 3.73,4.03 6.32,5.18 2.6,1.15 5.7,1.73 9.35,1.73 4.21,0 7.76,-0.57 10.64,-1.73 2.87,-1.15 5.03,-2.92 6.47,-5.32 1.43,-2.4 2.53,-5.17 3.3,-8.34 0.77,-3.16 1.15,-6.71 1.15,-10.63l0 -60.24 29.48 0 0 64.41c0,6.42 -1.01,12.22 -3.02,17.39 -2.01,5.18 -4.98,9.78 -8.92,13.8 -4.03,4.02 -9.27,7.02 -15.74,8.98 -6.47,1.96 -14.25,2.95 -23.35,2.95 -7.57,0 -14.41,-0.96 -20.49,-2.87 -6.09,-1.92 -11.38,-4.89 -15.89,-8.92 -4.41,-4.03 -7.74,-8.53 -9.98,-13.51 -2.26,-4.98 -3.39,-10.45 -3.39,-16.39l0 -65.85zm110.99 0l93.87 0 0 21.42 -32.77 0 0 82.67 -28.32 0 0 -82.67 -32.77 0 0 -21.42zm105.23 0l29.47 0 0 61.1c0,3.84 0.39,7.26 1.15,10.28 0.77,3.02 1.92,5.68 3.45,7.98 1.62,2.3 3.73,4.03 6.32,5.18 2.59,1.15 5.7,1.73 9.35,1.73 4.21,0 7.76,-0.57 10.64,-1.73 2.87,-1.15 5.02,-2.92 6.47,-5.32 1.43,-2.4 2.54,-5.17 3.31,-8.34 0.76,-3.16 1.15,-6.71 1.15,-10.63l0 -60.24 29.48 0 0 64.41c0,6.42 -1.01,12.22 -3.02,17.39 -2.02,5.18 -4.99,9.78 -8.92,13.8 -4.03,4.02 -9.27,7.02 -15.75,8.98 -6.47,1.96 -14.25,2.95 -23.35,2.95 -7.57,0 -14.4,-0.96 -20.49,-2.87 -6.09,-1.92 -11.37,-4.89 -15.89,-8.92 -4.41,-4.03 -7.74,-8.53 -9.99,-13.51 -2.25,-4.98 -3.38,-10.45 -3.38,-16.39l0 -65.85zm117.74 0l46.43 0c0.19,0.19 0.4,0.29 0.64,0.29 0.25,0 0.46,0 0.65,0 0.19,0 0.4,0 0.64,0 0.24,0 0.5,0 0.79,0 4.89,0.1 9.56,0.62 14.02,1.58 4.45,0.96 8.74,2.3 12.87,4.02 4.02,1.82 7.07,4.53 9.12,8.13 2.06,3.59 3.09,8.07 3.09,13.44 0,4.21 -0.6,7.88 -1.8,10.99 -1.19,3.12 -3.04,5.63 -5.54,7.55 -2.39,1.92 -5.07,3.5 -8.05,4.75 -2.97,1.24 -6.13,2.16 -9.49,2.73 5.08,0.19 9.2,1.15 12.37,2.88 3.16,1.73 5.36,4.21 6.61,7.48 1.25,3.25 2.27,6.66 3.09,10.21 0.82,3.55 1.41,7.24 1.8,11.07 0,0.09 0,0.19 0,0.29 0,0.09 0,0.19 0,0.29 0,0.09 0,0.19 0,0.29 0,0.09 0.05,0.19 0.14,0.29 0.2,1.53 0.37,3.09 0.51,4.67 0.13,1.58 0.3,3.19 0.5,4.81 0.19,1.54 0.48,2.99 0.86,4.38 0.39,1.39 0.82,2.71 1.3,3.96l-31.63 0c-0.39,-0.77 -0.69,-1.68 -0.94,-2.73 -0.24,-1.05 -0.45,-2.21 -0.64,-3.45 -0.1,-1.25 -0.2,-2.52 -0.29,-3.81 -0.09,-1.3 -0.19,-2.61 -0.29,-3.96 0,-0.19 0,-0.33 0,-0.43 0,-0.1 0,-0.24 0,-0.43 -0.09,-0.09 -0.14,-0.21 -0.14,-0.36 0,-0.14 0,-0.26 0,-0.36 0,-0.29 0,-0.58 0,-0.86 0,-0.29 0,-0.58 0,-0.86 -0.19,-2.78 -0.52,-5.44 -1,-7.98 -0.48,-2.54 -1.1,-4.96 -1.87,-7.25 -0.77,-2.3 -2.06,-4.03 -3.88,-5.18 -1.82,-1.15 -4.12,-1.73 -6.9,-1.73l-13.51 -0.29 0 39.68 -29.47 0 0 -104.09zm29.47 21.42l0 22.71 11.36 0c0.19,0.19 0.41,0.29 0.64,0.29 0.24,0 0.46,0 0.65,0 0.19,0 0.41,0 0.65,0 0.23,0 0.49,0 0.79,0 1.73,-0.1 3.41,-0.36 5.03,-0.79 1.63,-0.43 3.21,-0.98 4.74,-1.65 1.45,-0.77 2.55,-1.87 3.31,-3.31 0.77,-1.44 1.16,-3.31 1.16,-5.6 0,-1.92 -0.39,-3.6 -1.16,-5.03 -0.76,-1.44 -1.92,-2.64 -3.45,-3.59 -1.54,-0.86 -3.25,-1.54 -5.17,-2.02 -1.92,-0.48 -3.98,-0.71 -6.18,-0.71l-12.37 -0.29zm72.32 31.78c0.29,-7 1.36,-13.66 3.24,-19.99 1.86,-6.32 4.53,-12.36 7.98,-18.11 3.45,-5.65 8.86,-9.92 16.25,-12.79 7.37,-2.88 16.72,-4.31 28.03,-4.31 0.19,0 0.33,0 0.43,0 0.1,0 0.24,0 0.43,0 0.1,0 0.21,0 0.36,0 0.14,0 0.26,0 0.35,0 0.2,0 0.34,0 0.43,0 0.1,0 0.24,0 0.43,0 0.1,0 0.22,0 0.36,0 0.15,0 0.27,0 0.37,0 6.23,0.29 12.21,1.39 17.97,3.31 5.75,1.92 11.21,4.7 16.39,8.34 5.17,3.64 9.07,9.03 11.72,16.17 2.63,7.15 3.95,15.99 3.95,26.53 0,1.43 -0.02,2.87 -0.07,4.31 -0.05,1.44 -0.17,2.92 -0.36,4.45 -0.09,0.77 -0.19,1.54 -0.29,2.3 -0.09,0.77 -0.19,1.53 -0.28,2.3 -0.19,0.86 -0.36,1.68 -0.5,2.44 -0.15,0.77 -0.31,1.54 -0.5,2.3 -1.16,4.6 -2.95,8.97 -5.39,13.09 -2.44,4.12 -5.49,8.05 -9.14,11.79 -3.64,3.73 -8.41,6.52 -14.3,8.33 -5.9,1.83 -12.96,2.73 -21.21,2.73 -10.92,0 -20.03,-1.27 -27.31,-3.81 -7.28,-2.54 -12.8,-6.4 -16.53,-11.58 -3.73,-5.17 -6.65,-10.61 -8.76,-16.32 -2.12,-5.7 -3.41,-11.72 -3.88,-18.04 0,-0.1 0,-0.19 0,-0.29 0,-0.1 0,-0.24 0,-0.43 -0.1,-0.1 -0.14,-0.22 -0.14,-0.36 0,-0.14 0,-0.27 0,-0.36 0,-0.29 0,-0.57 0,-0.86 0,-0.29 0,-0.58 0,-0.86l0 -0.28zm30.62 -1.15c0,4.41 0.5,8.55 1.51,12.43 1.01,3.88 2.52,7.59 4.53,11.14 2.02,3.55 4.6,6.2 7.77,7.98 3.16,1.77 6.85,2.66 11.07,2.66 3.64,0 6.88,-0.7 9.7,-2.09 2.83,-1.39 5.2,-3.52 7.12,-6.39 1.91,-2.78 3.37,-6.3 4.38,-10.57 1.01,-4.26 1.51,-9.22 1.51,-14.87 0,-4.51 -0.45,-8.75 -1.36,-12.72 -0.91,-3.98 -2.32,-7.64 -4.24,-11 -1.82,-3.35 -4.26,-5.89 -7.33,-7.62 -3.08,-1.73 -6.71,-2.59 -10.93,-2.59 -4.21,0 -7.81,0.89 -10.78,2.66 -2.97,1.77 -5.31,4.43 -7.04,7.98 -1.72,3.55 -3.06,7.26 -4.03,11.14 -0.95,3.88 -1.58,7.93 -1.86,12.15l0 -0.29zm141.61 -52.05l44.13 0c11.88,0.19 21.81,1.61 29.76,4.24 7.95,2.63 13.95,6.59 17.97,11.86 4.03,5.27 7.06,10.97 9.13,17.1 2.06,6.14 3.14,12.65 3.23,19.55 0,0.1 0,0.19 0,0.29 0,0.1 0,0.15 0,0.15 0,0.09 0,0.19 0,0.28 0,0.1 0,0.19 0,0.29 0,0.1 0,0.19 0,0.29 0,0.1 0,0.14 0,0.14 0,0.1 0,0.19 0,0.29 0,0.1 0,0.19 0,0.29 -0.09,0.19 -0.14,0.39 -0.14,0.57 0,0.19 0,0.39 0,0.58 0,0.09 0,0.22 0,0.36 0,0.14 0,0.31 0,0.5 -0.29,8.24 -1.75,15.38 -4.38,21.42 -2.64,6.04 -6.44,10.93 -11.43,14.67 -4.99,3.84 -10.21,6.66 -15.67,8.48 -5.46,1.82 -11.16,2.73 -17.11,2.73l-55.48 0 0 -104.09zm29.47 83.67l14.67 0c4.79,0.19 8.94,-0.41 12.44,-1.8 3.49,-1.39 6.44,-3.52 8.84,-6.39 2.39,-2.88 4.26,-5.9 5.6,-9.06 1.34,-3.16 2.15,-6.47 2.44,-9.92 0,-0.1 0,-0.19 0,-0.29 0,-0.1 0.05,-0.24 0.14,-0.43 0,-0.1 0,-0.22 0,-0.36 0,-0.14 0,-0.26 0,-0.36 0,-0.19 0,-0.34 0,-0.43 0,-0.1 0,-0.24 0,-0.43 0,-0.1 0,-0.22 0,-0.36 0,-0.15 0,-0.27 0,-0.36 0,-0.19 0,-0.39 0,-0.57 0,-0.2 0,-0.44 0,-0.73 -0.09,-0.19 -0.14,-0.38 -0.14,-0.57 0,-0.19 0,-0.38 0,-0.57 0,-0.48 -0.02,-0.93 -0.07,-1.36 -0.05,-0.43 -0.12,-0.84 -0.22,-1.22 -0.58,-3.36 -1.6,-6.57 -3.09,-9.63 -1.49,-3.07 -3.48,-5.99 -5.97,-8.77 -2.49,-2.78 -5.32,-4.86 -8.48,-6.25 -3.16,-1.39 -6.62,-2.08 -10.35,-2.08l-15.81 -0.29 0 62.25zm122.2 -83.67l35.07 0 40.83 104.09 -32.78 0 -6.9 -19.27 -40.68 0 -6.76 19.27 -30.62 0 41.83 -104.09zm28.32 63.4l-12.36 -41.98 -13.66 41.98 26.02 0zm106.52 -63.4l29.47 0 0 104.09 -29.47 0 0 -104.09zm47.59 0l40.68 0 35.22 76.92 0 -76.92 26.02 0 0 104.09 -40.83 0 -35.07 -78.07 0 78.07 -26.02 0 0 -104.09zm121.19 0l44.13 0c11.88,0.19 21.8,1.61 29.76,4.24 7.95,2.63 13.95,6.59 17.98,11.86 4.02,5.27 7.06,10.97 9.12,17.1 2.06,6.14 3.14,12.65 3.24,19.55 0,0.1 0,0.19 0,0.29 0,0.1 0,0.15 0,0.15 0,0.09 0,0.19 0,0.28 0,0.1 0,0.19 0,0.29 0,0.1 0,0.19 0,0.29 0,0.1 0,0.14 0,0.14 0,0.1 0,0.19 0,0.29 0,0.1 0,0.19 0,0.29 -0.09,0.19 -0.14,0.39 -0.14,0.57 0,0.19 0,0.39 0,0.58 0,0.09 0,0.22 0,0.36 0,0.14 0,0.31 0,0.5 -0.29,8.24 -1.75,15.38 -4.38,21.42 -2.63,6.04 -6.44,10.93 -11.43,14.67 -4.99,3.84 -10.21,6.66 -15.67,8.48 -5.46,1.82 -11.16,2.73 -17.11,2.73l-55.48 0 0 -104.09zm29.47 83.67l14.67 0c4.79,0.19 8.94,-0.41 12.44,-1.8 3.49,-1.39 6.44,-3.52 8.83,-6.39 2.4,-2.88 4.27,-5.9 5.61,-9.06 1.34,-3.16 2.15,-6.47 2.44,-9.92 0,-0.1 0,-0.19 0,-0.29 0,-0.1 0.05,-0.24 0.14,-0.43 0,-0.1 0,-0.22 0,-0.36 0,-0.14 0,-0.26 0,-0.36 0,-0.19 0,-0.34 0,-0.43 0,-0.1 0,-0.24 0,-0.43 0,-0.1 0,-0.22 0,-0.36 0,-0.15 0,-0.27 0,-0.36 0,-0.19 0,-0.39 0,-0.57 0,-0.2 0,-0.44 0,-0.73 -0.1,-0.19 -0.14,-0.38 -0.14,-0.57 0,-0.19 0,-0.38 0,-0.57 0,-0.48 -0.03,-0.93 -0.08,-1.36 -0.04,-0.43 -0.12,-0.84 -0.21,-1.22 -0.58,-3.36 -1.61,-6.57 -3.09,-9.63 -1.49,-3.07 -3.48,-5.99 -5.97,-8.77 -2.49,-2.78 -5.32,-4.86 -8.49,-6.25 -3.16,-1.39 -6.61,-2.08 -10.35,-2.08l-15.81 -0.29 0 62.25zm90.57 -83.67l29.47 0 0 59.95c0,3.83 0.38,7.25 1.15,10.27 0.77,3.02 1.92,5.68 3.46,7.98 1.62,2.3 3.73,4.03 6.32,5.18 2.59,1.15 5.7,1.73 9.34,1.73 4.21,0 7.76,-0.58 10.64,-1.73 2.87,-1.15 5.02,-2.92 6.47,-5.32 1.44,-2.39 2.53,-5.18 3.3,-8.34 0.77,-3.16 1.15,-6.71 1.15,-10.64l0 -59.09 29.47 0 0 63.4c0,6.42 -1.01,12.19 -3.01,17.32 -2.02,5.13 -4.99,9.7 -8.91,13.73 -4.03,4.03 -9.28,7.02 -15.74,8.99 -6.47,1.96 -14.26,2.94 -23.36,2.94 -7.57,0 -14.4,-0.95 -20.49,-2.87 -6.08,-1.92 -11.37,-4.89 -15.89,-8.91 -4.39,-4.03 -7.73,-8.54 -9.98,-13.52 -2.26,-4.98 -3.37,-10.45 -3.37,-16.39l0 -64.69zm37.37 -11.36l15.82 -21.56 31.63 0 -28.18 21.56 -19.27 0zm78.07 81.51l29.47 0c0,0.48 0,0.93 0,1.36 0,0.43 0.05,0.89 0.14,1.37 0,0.19 0.03,0.41 0.07,0.65 0.05,0.24 0.08,0.46 0.08,0.65 0.09,0.29 0.17,0.55 0.21,0.79 0.05,0.24 0.13,0.46 0.22,0.65 0.29,1.24 0.79,2.39 1.51,3.45 0.72,1.05 1.65,2.11 2.81,3.16 1.15,0.96 2.63,1.68 4.45,2.15 1.82,0.48 3.94,0.73 6.32,0.73 2.59,0 4.87,-0.24 6.83,-0.73 1.97,-0.48 3.62,-1.19 4.96,-2.15 1.34,-1.05 2.38,-2.16 3.09,-3.3 0.71,-1.15 1.13,-2.35 1.22,-3.6 0,-0.1 0,-0.19 0,-0.29 0,-0.1 0,-0.19 0,-0.29 -0.1,0 -0.15,-0.05 -0.15,-0.14 0,-0.1 0,-0.19 0,-0.29 0,-0.1 0,-0.19 0,-0.29 0,-0.1 0,-0.19 0,-0.29 -0.09,-0.1 -0.14,-0.19 -0.14,-0.29 0,-0.09 0,-0.19 0,-0.29 -0.38,-1.06 -1.01,-2.11 -1.87,-3.16 -0.86,-1.06 -1.96,-2.06 -3.31,-3.02 -1.43,-1.05 -3.13,-1.94 -5.1,-2.66 -1.96,-0.72 -4.19,-1.32 -6.68,-1.8 -0.09,0 -0.19,0 -0.29,0 -0.09,0 -0.2,0 -0.29,0 -0.09,0 -0.2,-0.02 -0.29,-0.07 -0.09,-0.05 -0.2,-0.12 -0.29,-0.22 -7.66,-1.63 -14.14,-3.43 -19.4,-5.39 -5.27,-1.97 -9.3,-4 -12.08,-6.11 -2.78,-2.21 -4.93,-4.99 -6.47,-8.34 -1.53,-3.35 -2.44,-7.24 -2.73,-11.64 0,-0.19 0,-0.36 0,-0.5 0,-0.14 0,-0.26 0,-0.36 0,-0.1 0,-0.17 0,-0.22 0,-0.05 0,-0.12 0,-0.22 0,0 0,-0.03 0,-0.07 0,-0.04 0,-0.12 0,-0.22 -0.1,-5.08 0.93,-9.56 3.09,-13.44 2.15,-3.88 5.38,-7.16 9.7,-9.85 4.31,-2.58 9.08,-4.55 14.31,-5.89 5.23,-1.34 10.9,-2.01 17.03,-2.01 8.53,0.29 15.6,1.27 21.21,2.95 5.61,1.68 9.76,4.05 12.44,7.11 2.77,2.97 4.86,6.38 6.26,10.21 1.39,3.83 2.09,8 2.09,12.5l-29.48 -0.29c0,-1.53 -0.28,-2.98 -0.86,-4.32 -0.57,-1.34 -1.44,-2.54 -2.59,-3.59 -1.14,-1.05 -2.58,-1.85 -4.31,-2.37 -1.73,-0.53 -3.69,-0.79 -5.9,-0.79 -2.01,0 -3.78,0.24 -5.32,0.72 -1.53,0.48 -2.83,1.2 -3.88,2.16 -0.96,0.95 -1.72,1.94 -2.29,2.94 -0.58,1.01 -0.87,2.09 -0.87,3.24 0,0.1 0,0.19 0,0.29 0,0.1 0,0.19 0,0.29 0,0.1 0,0.17 0,0.22 0,0.05 0,0.12 0,0.22 0.2,0.96 0.58,1.94 1.16,2.95 0.57,1 1.34,1.94 2.3,2.8 1.05,0.96 2.32,1.73 3.81,2.3 1.49,0.57 3.18,0.96 5.1,1.15 1.06,0.19 2.16,0.41 3.31,0.64 1.15,0.25 2.3,0.46 3.46,0.65 1.15,0.19 2.3,0.41 3.44,0.65 1.15,0.24 2.35,0.5 3.6,0.79 4.02,0.96 7.91,2.21 11.65,3.74 3.74,1.53 7.34,3.41 10.79,5.61 3.35,2.11 5.89,4.91 7.62,8.41 1.73,3.5 2.59,7.64 2.59,12.44 0,6.23 -1.1,11.57 -3.3,16.03 -2.21,4.45 -5.57,8.07 -10.07,10.85 -4.41,2.68 -9.28,4.67 -14.6,5.97 -5.32,1.29 -11.09,1.94 -17.32,1.94 -7.57,0 -14.23,-0.74 -19.98,-2.22 -5.75,-1.49 -10.49,-3.72 -14.23,-6.69 -3.83,-3.07 -6.76,-6.85 -8.77,-11.35 -2.02,-4.51 -3.16,-9.73 -3.45,-15.67l0 -0.29zm99.63 -70.16l93.87 0 0 21.42 -32.77 0 0 82.67 -28.32 0 0 -82.67 -32.78 0 0 -21.42zm102.94 0l46.43 0c0.19,0.19 0.41,0.29 0.64,0.29 0.24,0 0.46,0 0.65,0 0.19,0 0.41,0 0.65,0 0.23,0 0.5,0 0.79,0 4.89,0.1 9.57,0.62 14.02,1.58 4.46,0.96 8.74,2.3 12.87,4.02 4.02,1.82 7.07,4.53 9.13,8.13 2.06,3.59 3.1,8.07 3.1,13.44 0,4.21 -0.61,7.88 -1.8,10.99 -1.2,3.12 -3.05,5.63 -5.54,7.55 -2.39,1.92 -5.07,3.5 -8.05,4.75 -2.96,1.24 -6.13,2.16 -9.49,2.73 5.08,0.19 9.2,1.15 12.36,2.88 3.17,1.73 5.37,4.21 6.61,7.48 1.25,3.25 2.28,6.66 3.09,10.21 0.82,3.55 1.42,7.24 1.8,11.07 0,0.09 0,0.19 0,0.29 0,0.09 0,0.19 0,0.29 0,0.09 0,0.19 0,0.29 0,0.09 0.05,0.19 0.14,0.29 0.2,1.53 0.36,3.09 0.5,4.67 0.14,1.58 0.31,3.19 0.51,4.81 0.19,1.54 0.48,2.99 0.85,4.38 0.39,1.39 0.82,2.71 1.3,3.96l-31.63 0c-0.38,-0.77 -0.69,-1.68 -0.93,-2.73 -0.23,-1.05 -0.46,-2.21 -0.64,-3.45 -0.1,-1.25 -0.2,-2.52 -0.29,-3.81 -0.1,-1.3 -0.2,-2.61 -0.29,-3.96 0,-0.19 0,-0.33 0,-0.43 0,-0.1 0,-0.24 0,-0.43 -0.1,-0.09 -0.14,-0.21 -0.14,-0.36 0,-0.14 0,-0.26 0,-0.36 0,-0.29 0,-0.58 0,-0.86 0,-0.29 0,-0.58 0,-0.86 -0.19,-2.78 -0.53,-5.44 -1.01,-7.98 -0.48,-2.54 -1.1,-4.96 -1.86,-7.25 -0.78,-2.3 -2.06,-4.03 -3.89,-5.18 -1.82,-1.15 -4.12,-1.73 -6.9,-1.73l-13.51 -0.29 0 39.68 -29.47 0 0 -104.09zm29.47 21.42l0 22.71 11.36 0c0.19,0.19 0.41,0.29 0.65,0.29 0.24,0 0.46,0 0.65,0 0.2,0 0.4,0 0.65,0 0.24,0 0.5,0 0.79,0 1.72,-0.1 3.4,-0.36 5.03,-0.79 1.63,-0.43 3.21,-0.98 4.74,-1.65 1.44,-0.77 2.54,-1.87 3.31,-3.31 0.76,-1.44 1.15,-3.31 1.15,-5.6 0,-1.92 -0.39,-3.6 -1.15,-5.03 -0.77,-1.44 -1.92,-2.64 -3.45,-3.59 -1.54,-0.86 -3.25,-1.54 -5.17,-2.02 -1.92,-0.48 -3.98,-0.71 -6.19,-0.71l-12.36 -0.29zm75.76 -21.42l29.47 0 0 104.09 -29.47 0 0 -104.09zm80.36 0l35.08 0 40.83 104.09 -32.77 0 -6.9 -19.27 -40.69 0 -6.76 19.27 -30.63 0 41.84 -104.09zm28.32 63.4l-12.36 -41.98 -13.66 41.98 26.02 0z"/>
  </g>
 </g>
</svg>
