<?xml version="1.0" encoding="UTF-8"?>
<!DOCTYPE svg PUBLIC "-//W3C//DTD SVG 1.1//EN" "http://www.w3.org/Graphics/SVG/1.1/DTD/svg11.dtd">
<!-- Creator: CorelDRAW 2020 (64 Bit) -->
<svg xmlns="http://www.w3.org/2000/svg" xml:space="preserve" width="56.1322mm" height="26.6565mm" version="1.1" style="shape-rendering:geometricPrecision; text-rendering:geometricPrecision; image-rendering:optimizeQuality; fill-rule:evenodd; clip-rule:evenodd"
viewBox="0 0 1640.4 779.01"
 xmlns:xlink="http://www.w3.org/1999/xlink"
 xmlns:xodm="http://www.corel.com/coreldraw/odm/2003">
 <defs>
  <style type="text/css">
   <![CDATA[
    .fil0 {fill:#FEFEFE;fill-rule:nonzero}
   ]]>
  </style>
 </defs>
 <g id="Camada_x0020_1">
  <metadata id="CorelCorpID_0Corel-Layer"/>
  <g id="_2903861266544">
   <polygon class="fil0" points="222.21,503.19 234.17,503.19 215.88,589.48 203.94,589.48 "/>
   <path class="fil0" d="M248.75 536.41l1.43 -6.93 11.23 0 -2.03 9.68c0.47,-0.64 1.23,-1.54 2.28,-2.76 1.04,-1.19 2.4,-2.38 4.12,-3.57 1.72,-1.19 3.83,-2.26 6.33,-3.17 2.52,-0.92 5.49,-1.38 8.91,-1.38 1.36,0 3.21,0.2 5.56,0.6 2.35,0.39 4.57,1.29 6.64,2.69 2.06,1.4 3.7,3.43 4.9,6.15 1.19,2.71 1.27,6.37 0.23,10.99l-8.59 40.77 -11.48 0 8.13 -38.13c0.39,-2.01 0.57,-3.86 0.54,-5.63 -0.05,-1.74 -0.58,-3.31 -1.61,-4.66 -1.12,-1.36 -2.56,-2.37 -4.31,-3.05 -1.75,-0.69 -3.58,-1.01 -5.5,-1.01 -2.07,0 -4.12,0.36 -6.15,1.07 -2.03,0.73 -3.93,1.84 -5.68,3.35 -1.75,1.52 -3.28,3.4 -4.59,5.63 -1.32,2.23 -2.33,4.86 -3.06,7.88l-7.28 34.55 -11.24 0 11.24 -53.08z"/>
   <path class="fil0" d="M320.46 571.68c-0.24,1.11 -0.34,2.31 -0.3,3.57 0.04,1.28 0.44,2.45 1.2,3.53 0.76,1.07 1.91,1.96 3.47,2.69 1.55,0.72 3.69,1.07 6.39,1.07 2.32,0 4.4,-0.26 6.28,-0.78 1.86,-0.51 3.56,-1.53 5.08,-3.05 1.67,-1.66 2.7,-3.54 3.11,-5.6 0.31,-1.44 0.31,-2.64 0,-3.6 -0.32,-0.95 -0.96,-1.73 -1.92,-2.33 -0.95,-0.6 -2.2,-1.14 -3.76,-1.62 -1.56,-0.47 -3.41,-0.95 -5.57,-1.44 -2.94,-0.7 -5.75,-1.46 -8.43,-2.27 -2.66,-0.79 -4.89,-1.82 -6.68,-3.09 -1.79,-1.27 -3.09,-2.9 -3.89,-4.91 -0.8,-1.99 -0.87,-4.53 -0.23,-7.64 0.55,-2.72 1.65,-5.2 3.29,-7.47 1.62,-2.27 3.64,-4.19 6.02,-5.74 2.4,-1.56 5.11,-2.76 8.14,-3.64 3.03,-0.88 6.29,-1.32 9.79,-1.32 1.92,0 3.92,0.17 6.04,0.48 2.11,0.31 4.08,0.84 5.92,1.55 1.84,0.72 3.45,1.67 4.84,2.87 1.39,1.2 2.37,2.66 2.93,4.43 0.4,1.68 0.52,3.22 0.37,4.66 -0.17,1.43 -0.41,2.79 -0.72,4.05l-11.48 0c0.55,-2.23 0.58,-4 0.06,-5.31 -0.52,-1.31 -1.32,-2.31 -2.4,-2.99 -1.07,-0.67 -2.28,-1.1 -3.59,-1.25 -1.32,-0.15 -2.49,-0.24 -3.52,-0.24 -0.4,0 -1.28,0.04 -2.63,0.11 -1.36,0.09 -2.82,0.41 -4.37,0.97 -1.55,0.55 -3.01,1.41 -4.36,2.57 -1.36,1.15 -2.28,2.81 -2.75,4.96 -0.24,1.36 -0.16,2.5 0.23,3.4 0.4,0.92 0.98,1.67 1.74,2.22 0.76,0.56 1.57,0.98 2.45,1.25 0.88,0.29 1.71,0.54 2.51,0.78 3.9,0.96 7.13,1.78 9.69,2.45 2.55,0.68 4.59,1.31 6.15,1.92 1.55,0.6 2.79,1.19 3.71,1.79 0.91,0.59 1.73,1.31 2.45,2.1 1.36,1.59 2.16,3.35 2.39,5.31 0.24,1.96 0.15,3.89 -0.23,5.8 -0.72,3.34 -2.16,6.39 -4.3,9.08 -2.15,2.72 -4.5,4.74 -7.05,6.1 -2.95,1.59 -6.02,2.67 -9.22,3.22 -3.18,0.56 -6.33,0.84 -9.44,0.84 -3.02,0 -5.88,-0.34 -8.55,-1.02 -2.67,-0.67 -4.94,-1.78 -6.8,-3.28 -1.88,-1.52 -3.19,-3.54 -3.95,-6.03 -0.75,-2.51 -0.74,-5.57 0.07,-9.14l11.82 0z"/>
   <path class="fil0" d="M373.53 529.24l10.64 0 2.62 -12.55 11.96 -3.58 -3.47 16.13 13.39 0 -1.79 8.25 -13.38 0 -7.64 35.97c-0.08,0.73 -0.2,1.55 -0.36,2.52 -0.16,0.95 -0.06,1.82 0.3,2.62 0.34,0.8 1,1.49 1.97,2.03 0.96,0.54 2.42,0.84 4.42,0.84 1.1,0 2.19,-0.06 3.22,-0.19 1.04,-0.11 1.79,-0.26 2.26,-0.42l-1.79 8.72c-1.12,0.17 -2.44,0.33 -4.01,0.48 -1.54,0.17 -3.35,0.24 -5.42,0.24 -5.19,0 -8.83,-0.89 -10.94,-2.68 -2.1,-1.81 -2.65,-5.17 -1.61,-10.11l8.49 -40.05 -10.63 0 1.8 -8.25z"/>
   <path class="fil0" d="M426.96 503.43l13.5 0 -2.62 12.3 -13.5 0 2.63 -12.3zm-4.31 26.06l11.23 0 -12.79 60 -11.23 0 12.79 -60z"/>
   <path class="fil0" d="M446.55 529.24l10.65 0 2.63 -12.55 11.94 -3.58 -3.47 16.13 13.39 0 -1.8 8.25 -13.38 0 -7.66 35.97c-0.07,0.73 -0.2,1.55 -0.35,2.52 -0.16,0.95 -0.06,1.82 0.3,2.62 0.35,0.8 1.02,1.49 1.97,2.03 0.95,0.54 2.42,0.84 4.43,0.84 1.1,0 2.18,-0.06 3.23,-0.19 1.03,-0.11 1.79,-0.26 2.27,-0.42l-1.8 8.72c-1.12,0.17 -2.44,0.33 -4,0.48 -1.55,0.17 -3.37,0.24 -5.44,0.24 -5.17,0 -8.82,-0.89 -10.94,-2.68 -2.11,-1.81 -2.64,-5.17 -1.6,-10.11l8.48 -40.05 -10.64 0 1.79 -8.25z"/>
   <path class="fil0" d="M505.83 529.48l-8.24 38.61c-0.33,1.43 -0.52,2.95 -0.6,4.54 -0.08,1.59 0.18,3.02 0.82,4.3 0.64,1.27 1.7,2.33 3.18,3.17 1.47,0.84 3.64,1.27 6.51,1.27 2.8,0 5.56,-0.53 8.31,-1.56 2.75,-1.04 5.16,-2.74 7.24,-5.14 1.66,-1.84 2.83,-3.78 3.46,-5.86 0.64,-2.06 1.11,-3.86 1.44,-5.37l7.28 -33.95 11.6 0 -10.41 48.77c-0.07,0.31 -0.2,0.91 -0.36,1.79 -0.15,0.88 -0.31,1.87 -0.48,2.98 -0.15,1.12 -0.35,2.27 -0.6,3.47 -0.22,1.2 -0.44,2.19 -0.6,2.99l-11.71 0 1.92 -10.29c-0.72,1.04 -1.64,2.2 -2.76,3.47 -1.1,1.28 -2.5,2.45 -4.17,3.53 -1.68,1.07 -3.71,1.99 -6.11,2.73 -2.38,0.76 -5.17,1.15 -8.36,1.15 -3.75,0 -6.87,-0.49 -9.38,-1.49 -2.5,-1 -4.46,-2.39 -5.85,-4.2 -1.4,-1.78 -2.27,-3.94 -2.62,-6.44 -0.36,-2.51 -0.23,-5.25 0.41,-8.19l8.6 -40.29 11.48 0z"/>
   <path class="fil0" d="M559.36 529.24l10.65 0 2.63 -12.55 11.94 -3.58 -3.47 16.13 13.39 0 -1.79 8.25 -13.38 0 -7.66 35.97c-0.07,0.73 -0.19,1.55 -0.35,2.52 -0.15,0.95 -0.06,1.82 0.29,2.62 0.36,0.8 1.03,1.49 1.97,2.03 0.96,0.54 2.43,0.84 4.43,0.84 1.1,0 2.19,-0.06 3.22,-0.19 1.04,-0.11 1.8,-0.26 2.28,-0.42l-1.8 8.72c-1.11,0.17 -2.44,0.33 -4.01,0.48 -1.55,0.17 -3.36,0.24 -5.44,0.24 -5.16,0 -8.81,-0.89 -10.93,-2.68 -2.12,-1.81 -2.64,-5.17 -1.6,-10.11l8.48 -40.05 -10.63 0 1.79 -8.25z"/>
   <path class="fil0" d="M609.21 559.48c-0.64,3.11 -0.91,6.08 -0.84,8.9 0.08,2.84 0.63,5.34 1.62,7.53 1,2.18 2.48,3.94 4.49,5.26 1.98,1.32 4.57,1.97 7.77,1.97 2.15,0 4.4,-0.43 6.75,-1.26 2.35,-0.82 4.58,-2.19 6.69,-4.07 2.12,-1.86 4.05,-4.34 5.8,-7.41 1.75,-3.06 3.11,-6.87 4.05,-11.41 1.61,-7.48 1.22,-13.17 -1.13,-17.03 -2.34,-3.86 -6.14,-5.79 -11.4,-5.79 -1.84,0 -3.9,0.34 -6.21,1 -2.32,0.68 -4.6,1.87 -6.88,3.6 -2.27,1.7 -4.35,4.07 -6.27,7.12 -1.91,3.02 -3.39,6.88 -4.43,11.58zm-11.83 0.72c0.79,-3.67 2.07,-7.41 3.81,-11.24 1.76,-3.82 4.15,-7.29 7.17,-10.4 3.05,-3.12 6.7,-5.65 11.01,-7.66 4.3,-1.99 9.4,-2.99 15.28,-2.99 5.99,0 10.67,1.06 14.06,3.18 3.38,2.1 5.84,4.74 7.34,7.87 1.51,3.16 2.29,6.56 2.33,10.23 0.03,3.66 -0.27,7.05 -0.91,10.16 -0.94,4.37 -2.47,8.52 -4.54,12.43 -2.07,3.9 -4.66,7.3 -7.76,10.22 -3.12,2.91 -6.78,5.23 -10.99,6.93 -4.24,1.73 -8.89,2.57 -13.98,2.57 -4.94,0 -9.09,-0.82 -12.45,-2.44 -3.34,-1.63 -5.94,-3.85 -7.81,-6.65 -1.88,-2.78 -3.02,-6.09 -3.41,-9.9 -0.39,-3.83 -0.12,-7.94 0.84,-12.31z"/>
   <polygon class="fil0" points="718.69,503.19 772.82,503.19 770.66,513.46 728.48,513.46 722.87,540.25 763.03,540.25 760.87,550.28 720.71,550.28 714.62,578.96 757.76,578.96 755.49,589.48 700.4,589.48 "/>
   <path class="fil0" d="M797.91 529.48l-8.23 38.61c-0.33,1.43 -0.53,2.95 -0.6,4.54 -0.09,1.59 0.18,3.02 0.82,4.3 0.64,1.27 1.7,2.33 3.18,3.17 1.46,0.84 3.65,1.27 6.51,1.27 2.8,0 5.56,-0.53 8.31,-1.56 2.75,-1.04 5.16,-2.74 7.23,-5.14 1.66,-1.84 2.83,-3.78 3.47,-5.86 0.64,-2.06 1.11,-3.86 1.44,-5.37l7.28 -33.95 11.6 0 -10.41 48.77c-0.07,0.31 -0.2,0.91 -0.35,1.79 -0.15,0.88 -0.32,1.87 -0.49,2.98 -0.15,1.12 -0.35,2.27 -0.59,3.47 -0.23,1.2 -0.44,2.19 -0.6,2.99l-11.71 0 1.93 -10.29c-0.72,1.04 -1.64,2.2 -2.76,3.47 -1.11,1.28 -2.5,2.45 -4.18,3.53 -1.67,1.07 -3.71,1.99 -6.11,2.73 -2.38,0.76 -5.16,1.15 -8.36,1.15 -3.75,0 -6.87,-0.49 -9.39,-1.49 -2.5,-1 -4.45,-2.39 -5.84,-4.2 -1.4,-1.78 -2.28,-3.94 -2.63,-6.44 -0.36,-2.51 -0.23,-5.25 0.41,-8.19l8.6 -40.29 11.47 0z"/>
   <polygon class="fil0" points="851.58,529.48 864.14,529.48 873.09,577.06 901.9,529.48 914.33,529.48 875.23,589.49 863.9,589.49 "/>
   <path class="fil0" d="M955.8 560.32c-1.04,-0.15 -2.02,-0.25 -2.92,-0.3 -0.93,-0.05 -2.07,-0.06 -3.41,-0.06 -1.12,0 -2.9,0.06 -5.32,0.18 -2.43,0.13 -4.94,0.57 -7.53,1.31 -2.6,0.76 -4.99,1.98 -7.17,3.65 -2.2,1.68 -3.6,4.02 -4.24,7.04 -0.25,0.97 -0.3,2.05 -0.18,3.24 0.12,1.2 0.52,2.33 1.18,3.41 0.69,1.07 1.74,1.96 3.17,2.69 1.43,0.72 3.43,1.07 5.97,1.07 5.73,0 10.48,-2.15 14.23,-6.46 0.88,-1.04 1.59,-2.03 2.16,-2.98 0.56,-0.97 1.02,-2.03 1.43,-3.24 0.4,-1.19 0.79,-2.57 1.19,-4.12 0.4,-1.54 0.87,-3.35 1.44,-5.44zm-4.9 29.17c-0.09,-1.52 -0.05,-2.99 0.11,-4.42 0.15,-1.43 0.4,-2.95 0.72,-4.54 -1.92,2.46 -3.83,4.41 -5.74,5.84 -1.92,1.43 -3.79,2.53 -5.62,3.29 -1.84,0.75 -3.55,1.24 -5.14,1.43 -1.59,0.2 -3.03,0.3 -4.3,0.3 -3.43,0 -6.38,-0.47 -8.85,-1.37 -2.47,-0.92 -4.43,-2.17 -5.87,-3.76 -1.43,-1.6 -2.38,-3.47 -2.87,-5.63 -0.46,-2.14 -0.42,-4.46 0.14,-6.93 0.23,-1.19 0.65,-2.55 1.24,-4.06 0.6,-1.51 1.46,-3.05 2.57,-4.61 1.12,-1.55 2.52,-3.1 4.19,-4.66 1.67,-1.55 3.75,-2.97 6.22,-4.25 1.84,-0.86 3.74,-1.56 5.73,-2.09 1.99,-0.5 3.97,-0.91 5.98,-1.19 1.98,-0.29 3.83,-0.46 5.54,-0.54 1.73,-0.08 3.18,-0.12 4.36,-0.12 1.44,0 2.72,0.02 3.84,0.06 1.11,0.04 2.54,0.14 4.3,0.3 0.4,-1.83 0.7,-3.44 0.95,-4.84 0.24,-1.39 0.4,-2.58 0.48,-3.59 0.08,-1 0.08,-1.89 0,-2.69 -0.08,-0.79 -0.36,-1.51 -0.84,-2.15 -0.79,-1.51 -2.2,-2.54 -4.19,-3.09 -1.98,-0.58 -3.79,-0.85 -5.37,-0.85 -2.88,0 -5.18,0.41 -6.93,1.25 -1.75,0.84 -3.15,1.82 -4.19,2.92 -1.04,1.13 -1.77,2.26 -2.2,3.42 -0.44,1.15 -0.74,2.01 -0.89,2.56l-11.25 0c0.48,-1.58 1.17,-3.36 2.03,-5.31 0.88,-1.96 2.4,-3.96 4.54,-6.03 1.43,-1.28 3.02,-2.35 4.78,-3.18 1.75,-0.83 3.55,-1.5 5.38,-1.96 1.83,-0.48 3.67,-0.82 5.5,-1.02 1.82,-0.2 3.55,-0.3 5.14,-0.3 2.16,0 4.28,0.18 6.39,0.53 2.12,0.36 4.05,0.89 5.8,1.61 1.75,0.72 3.27,1.65 4.53,2.76 1.28,1.12 2.16,2.42 2.64,3.94 0.56,1.84 0.77,3.49 0.65,4.97 -0.11,1.48 -0.3,2.89 -0.54,4.24l-6.57 28.68c-0.09,0.25 -0.2,0.89 -0.36,1.92 -0.16,1.03 -0.38,2.27 -0.65,3.71 -0.27,1.43 -0.53,2.98 -0.78,4.66 -0.24,1.67 -0.4,3.26 -0.49,4.79l-10.14 0z"/>
   <polygon class="fil0" points="999.3,503.32 1010.54,503.32 992.24,589.49 981.01,589.49 "/>
   <path class="fil0" d="M1062.51 558.64c0.97,-4.37 1.27,-7.86 0.91,-10.45 -0.37,-2.6 -0.97,-4.68 -1.86,-6.27 -0.88,-1.61 -2.28,-3.01 -4.24,-4.25 -1.93,-1.24 -4.51,-1.86 -7.71,-1.86 -2.78,0 -5.2,0.49 -7.28,1.5 -2.08,0.99 -3.86,2.27 -5.38,3.82 -1.52,1.55 -2.82,3.26 -3.88,5.13 -1.08,1.87 -1.96,3.71 -2.69,5.5 -0.7,1.79 -1.25,3.43 -1.61,4.89 -0.36,1.48 -0.57,2.54 -0.65,3.17 -0.55,2.64 -0.91,5.32 -1.08,8.08 -0.15,2.74 0.13,5.21 0.84,7.4 0.72,2.21 2.02,3.99 3.9,5.38 1.87,1.41 4.51,2.1 7.94,2.1 4.38,0 8.02,-1.03 10.88,-3.11 2.87,-2.07 5.14,-4.49 6.79,-7.24 1.68,-2.74 2.9,-5.44 3.65,-8.07 0.75,-2.63 1.27,-4.54 1.49,-5.74zm11.35 -55.33l11.24 0 -16.25 76.61c-0.08,0.31 -0.18,0.85 -0.3,1.6 -0.13,0.77 -0.27,1.61 -0.42,2.53 -0.16,0.91 -0.32,1.84 -0.49,2.8 -0.16,0.96 -0.27,1.84 -0.36,2.64l-11.23 0 1.79 -9.56c-0.64,0.87 -1.44,1.86 -2.44,2.98 -1,1.13 -2.41,2.23 -4.24,3.35 -2.87,1.67 -5.71,2.82 -8.49,3.46 -2.79,0.65 -5.23,0.96 -7.29,0.96 -2,0 -4.39,-0.36 -7.17,-1.09 -2.79,-0.7 -5.31,-2.14 -7.6,-4.3 -2.27,-2.15 -3.96,-5.2 -5.08,-9.2 -1.1,-3.97 -0.95,-9.28 0.48,-15.89 1.19,-5.73 2.99,-10.66 5.39,-14.76 2.38,-4.11 5.14,-7.49 8.25,-10.17 3.09,-2.66 6.4,-4.63 9.9,-5.91 3.51,-1.27 7.01,-1.91 10.53,-1.91 3.17,0 5.81,0.43 7.89,1.25 2.06,0.84 3.71,1.82 4.89,2.94 1.2,1.11 2.05,2.23 2.57,3.33 0.51,1.13 0.9,2 1.13,2.65l7.29 -34.3z"/>
   <path class="fil0" d="M1100.64 559.48c-0.64,3.11 -0.91,6.08 -0.84,8.9 0.08,2.84 0.63,5.34 1.62,7.53 1,2.18 2.48,3.94 4.48,5.26 1.99,1.32 4.57,1.97 7.77,1.97 2.15,0 4.4,-0.43 6.76,-1.26 2.34,-0.82 4.57,-2.19 6.69,-4.07 2.11,-1.86 4.05,-4.34 5.8,-7.41 1.76,-3.06 3.1,-6.87 4.06,-11.41 1.6,-7.48 1.22,-13.17 -1.14,-17.03 -2.35,-3.86 -6.15,-5.79 -11.41,-5.79 -1.84,0 -3.9,0.34 -6.21,1 -2.32,0.68 -4.6,1.87 -6.87,3.6 -2.27,1.7 -4.36,4.07 -6.28,7.12 -1.91,3.02 -3.39,6.88 -4.42,11.58zm-11.83 0.72c0.79,-3.67 2.07,-7.41 3.82,-11.24 1.76,-3.82 4.15,-7.29 7.17,-10.4 3.04,-3.12 6.7,-5.65 11,-7.66 4.3,-1.99 9.4,-2.99 15.29,-2.99 5.98,0 10.66,1.06 14.06,3.18 3.38,2.1 5.83,4.74 7.34,7.87 1.52,3.16 2.28,6.56 2.33,10.23 0.04,3.66 -0.26,7.05 -0.9,10.16 -0.95,4.37 -2.48,8.52 -4.54,12.43 -2.06,3.9 -4.66,7.3 -7.76,10.22 -3.11,2.91 -6.77,5.23 -10.99,6.93 -4.23,1.73 -8.88,2.57 -13.98,2.57 -4.94,0 -9.09,-0.82 -12.45,-2.44 -3.33,-1.63 -5.94,-3.85 -7.81,-6.65 -1.88,-2.78 -3.02,-6.09 -3.42,-9.9 -0.39,-3.83 -0.11,-7.94 0.84,-12.31z"/>
   <polygon class="fil0" points="1212.15,503.19 1223.98,503.19 1207.96,578.85 1248.13,578.85 1245.86,589.48 1193.86,589.48 "/>
   <path class="fil0" d="M1273.33 559.48c-0.64,3.11 -0.91,6.08 -0.83,8.9 0.08,2.84 0.63,5.34 1.62,7.53 0.99,2.18 2.48,3.94 4.48,5.26 1.99,1.32 4.57,1.97 7.77,1.97 2.15,0 4.4,-0.43 6.76,-1.26 2.33,-0.82 4.56,-2.19 6.69,-4.07 2.12,-1.86 4.04,-4.34 5.79,-7.41 1.77,-3.06 3.12,-6.87 4.06,-11.41 1.61,-7.48 1.22,-13.17 -1.13,-17.03 -2.35,-3.86 -6.15,-5.79 -11.41,-5.79 -1.84,0 -3.9,0.34 -6.21,1 -2.32,0.68 -4.61,1.87 -6.88,3.6 -2.27,1.7 -4.36,4.07 -6.28,7.12 -1.92,3.02 -3.4,6.88 -4.43,11.58zm-11.82 0.72c0.79,-3.67 2.06,-7.41 3.82,-11.24 1.76,-3.82 4.15,-7.29 7.17,-10.4 3.03,-3.12 6.7,-5.65 11,-7.66 4.3,-1.99 9.4,-2.99 15.29,-2.99 5.98,0 10.67,1.06 14.05,3.18 3.38,2.1 5.84,4.74 7.34,7.87 1.52,3.16 2.29,6.56 2.33,10.23 0.04,3.66 -0.26,7.05 -0.89,10.16 -0.95,4.37 -2.47,8.52 -4.55,12.43 -2.07,3.9 -4.65,7.3 -7.76,10.22 -3.11,2.91 -6.77,5.23 -10.98,6.93 -4.23,1.73 -8.88,2.57 -13.98,2.57 -4.95,0 -9.09,-0.82 -12.44,-2.44 -3.34,-1.63 -5.95,-3.85 -7.83,-6.65 -1.87,-2.78 -3,-6.09 -3.4,-9.9 -0.4,-3.83 -0.11,-7.94 0.84,-12.31z"/>
   <path class="fil0" d="M1381.25 558.64c0.96,-4.37 1.27,-7.86 0.91,-10.45 -0.37,-2.6 -0.98,-4.68 -1.87,-6.27 -0.87,-1.61 -2.28,-3.01 -4.24,-4.25 -1.94,-1.24 -4.51,-1.86 -7.71,-1.86 -2.79,0 -5.21,0.49 -7.28,1.5 -2.07,0.99 -3.86,2.27 -5.38,3.82 -1.52,1.55 -2.82,3.26 -3.88,5.13 -1.08,1.87 -1.97,3.71 -2.69,5.5 -0.7,1.79 -1.24,3.43 -1.61,4.89 -0.36,1.48 -0.57,2.54 -0.66,3.17 -0.55,2.64 -0.91,5.32 -1.08,8.08 -0.16,2.74 0.12,5.21 0.84,7.4 0.72,2.21 2.01,3.99 3.88,5.38 1.88,1.41 4.52,2.1 7.95,2.1 4.37,0 8.01,-1.03 10.88,-3.11 2.86,-2.07 5.14,-4.49 6.79,-7.24 1.68,-2.74 2.9,-5.44 3.65,-8.07 0.75,-2.63 1.27,-4.54 1.49,-5.74zm11.36 -55.33l11.23 0 -16.24 76.61c-0.09,0.31 -0.19,0.85 -0.3,1.6 -0.13,0.77 -0.26,1.61 -0.42,2.53 -0.16,0.91 -0.32,1.84 -0.49,2.8 -0.15,0.96 -0.27,1.84 -0.35,2.64l-11.23 0 1.78 -9.56c-0.64,0.87 -1.44,1.86 -2.44,2.98 -1.01,1.13 -2.42,2.23 -4.24,3.35 -2.87,1.67 -5.71,2.82 -8.49,3.46 -2.79,0.65 -5.23,0.96 -7.29,0.96 -2,0 -4.39,-0.36 -7.17,-1.09 -2.79,-0.7 -5.33,-2.14 -7.59,-4.3 -2.27,-2.15 -3.96,-5.2 -5.08,-9.2 -1.11,-3.97 -0.95,-9.28 0.48,-15.89 1.19,-5.73 2.98,-10.66 5.38,-14.76 2.39,-4.11 5.14,-7.49 8.26,-10.17 3.09,-2.66 6.41,-4.63 9.91,-5.91 3.51,-1.27 7.01,-1.91 10.52,-1.91 3.18,0 5.82,0.43 7.9,1.25 2.06,0.84 3.71,1.82 4.89,2.94 1.2,1.11 2.06,2.23 2.58,3.33 0.51,1.13 0.89,2 1.13,2.65l7.29 -34.3z"/>
   <path class="fil0" d="M1422.96 503.43l13.5 0 -2.63 12.3 -13.5 0 2.63 -12.3zm-4.3 26.06l11.23 0 -12.79 60 -11.22 0 12.78 -60z"/>
   <path class="fil0" d="M20.96 735.45l9.6 0c1.98,0.15 3.72,-0.01 5.22,-0.46 1.5,-0.44 2.77,-1.1 3.78,-1.99 1.02,-0.96 1.79,-1.99 2.29,-3.12 0.51,-1.12 0.77,-2.4 0.77,-3.84 0,-1.56 -0.32,-2.93 -0.97,-4.08 -0.65,-1.17 -1.61,-2.09 -2.91,-2.77 -1.29,-0.67 -2.76,-1.17 -4.39,-1.53 -1.64,-0.33 -3.45,-0.51 -5.42,-0.51l-7.97 -0.2 0 18.5zm15.23 -32.91c5.04,0.14 9.38,0.7 12.98,1.69 3.61,0.98 6.51,2.47 8.68,4.45 2.18,1.9 3.82,4.32 4.9,7.25 1.09,2.92 1.65,6.31 1.65,10.12 0,3.95 -0.56,7.36 -1.65,10.23 -1.08,2.86 -2.72,5.17 -4.9,6.95 -2.11,1.71 -4.37,3.11 -6.79,4.19 -2.42,1.09 -4.93,1.85 -7.51,2.26 -0.56,0.07 -1.1,0.15 -1.64,0.26 -0.55,0.1 -1.09,0.14 -1.64,0.14 -0.54,0.08 -1.08,0.11 -1.62,0.11l-1.64 0 -16.04 -0.22 0 26.59 -20.96 0 0 -74 36.19 0z"/>
   <polygon class="fil0" points="129.5,702.54 129.5,717.78 94.14,717.78 94.14,732.29 127.16,732.29 127.16,747.62 94.14,747.62 94.14,762.04 129.5,762.04 129.5,776.55 73.18,776.55 73.18,702.54 "/>
   <polygon class="fil0" points="162.52,702.54 162.52,761.21 195.53,761.21 195.53,776.55 141.56,776.55 141.56,702.54 "/>
   <path class="fil0" d="M224.7 748.39c0.72,2.75 1.79,5.4 3.23,7.93 1.43,2.51 3.27,4.4 5.51,5.66 2.25,1.27 4.88,1.89 7.87,1.89 2.59,0 4.89,-0.47 6.9,-1.47 2.01,-0.99 3.69,-2.51 5.06,-4.54 1.36,-1.99 2.4,-4.49 3.12,-7.53 0.71,-3.03 1.08,-6.55 1.08,-10.58 0,-3.2 -0.33,-6.21 -0.98,-9.05 -0.64,-2.83 -1.65,-5.43 -3.01,-7.81 -1.29,-2.38 -3.03,-4.21 -5.22,-5.42 -2.17,-1.23 -4.77,-1.85 -7.76,-1.85 -3.01,0 -5.56,0.64 -7.68,1.9 -2.11,1.26 -3.77,3.16 -5,5.67 -1.23,2.52 -2.18,5.17 -2.87,7.92 -0.68,2.76 -1.12,5.64 -1.32,8.64l0 -0.21c0,3.14 0.36,6.08 1.07,8.85zm-20.54 -22.23c1.34,-4.5 3.23,-8.79 5.68,-12.88 2.45,-4.02 6.29,-7.05 11.54,-9.09 5.25,-2.05 11.89,-3.07 19.94,-3.07l0.3 0 0.31 0 0.25 0 0.26 0 0.31 0 0.3 0 0.26 0 0.25 0c4.44,0.21 8.7,1 12.77,2.36 4.1,1.36 7.99,3.32 11.67,5.91 3.67,2.6 6.45,6.44 8.33,11.5 1.87,5.08 2.81,11.38 2.81,18.86 0,1.02 -0.01,2.03 -0.05,3.06 -0.03,1.02 -0.11,2.09 -0.25,3.18 -0.07,0.54 -0.13,1.08 -0.2,1.63 -0.07,0.54 -0.13,1.1 -0.21,1.64 -0.13,0.6 -0.27,1.2 -0.35,1.73 -0.1,0.56 -0.23,1.1 -0.36,1.63 -0.82,3.28 -2.1,6.37 -3.83,9.31 -1.75,2.92 -3.9,5.72 -6.5,8.38 -2.58,2.65 -5.98,4.63 -10.16,5.92 -4.19,1.31 -9.21,1.94 -15.08,1.94 -7.77,0 -14.24,-0.89 -19.43,-2.71 -5.18,-1.81 -9.09,-4.55 -11.75,-8.22 -2.66,-3.68 -4.73,-7.56 -6.23,-11.6 -1.51,-4.07 -2.42,-8.34 -2.77,-12.84l0 -0.2 0 -0.32c-0.07,-0.06 -0.1,-0.14 -0.1,-0.25l0 -0.27 0 -0.6 0 -0.61 0 -0.19c0.2,-4.99 0.97,-9.71 2.29,-14.22z"/>
   <polygon class="fil0" points="375.84,702.54 375.84,717.78 344.45,717.78 344.45,734.75 373.38,734.75 373.38,749.16 344.45,749.16 344.45,776.55 323.5,776.55 323.5,702.54 "/>
   <path class="fil0" d="M408.03 702.54l0 43.45c0,2.72 0.27,5.15 0.81,7.29 0.56,2.15 1.37,4.04 2.45,5.68 1.17,1.63 2.66,2.85 4.51,3.67 1.85,0.83 4.04,1.23 6.64,1.23 3,0 5.53,-0.4 7.58,-1.23 2.04,-0.82 3.57,-2.07 4.59,-3.77 1.02,-1.71 1.81,-3.7 2.34,-5.94 0.56,-2.24 0.82,-4.77 0.82,-7.56l0 -42.83 20.96 0 0 45.8c0,4.57 -0.72,8.68 -2.16,12.36 -1.42,3.69 -3.54,6.96 -6.33,9.81 -2.86,2.87 -6.58,5 -11.19,6.39 -4.59,1.41 -10.13,2.11 -16.62,2.11 -5.37,0 -10.23,-0.68 -14.56,-2.05 -4.33,-1.36 -8.09,-3.48 -11.29,-6.35 -3.14,-2.85 -5.51,-6.07 -7.11,-9.6 -1.59,-3.55 -2.4,-7.43 -2.4,-11.66l0 -46.81 20.95 0z"/>
   <polygon class="fil0" points="532.72,702.54 532.72,717.78 509.42,717.78 509.42,776.55 489.28,776.55 489.28,717.78 465.99,717.78 465.99,702.54 "/>
   <path class="fil0" d="M561.76 702.54l0 43.45c0,2.72 0.27,5.15 0.8,7.29 0.56,2.15 1.36,4.04 2.46,5.68 1.17,1.63 2.66,2.85 4.51,3.67 1.84,0.83 4.04,1.23 6.64,1.23 2.99,0 5.52,-0.4 7.56,-1.23 2.05,-0.82 3.58,-2.07 4.6,-3.77 1.03,-1.71 1.81,-3.7 2.35,-5.94 0.56,-2.24 0.82,-4.77 0.82,-7.56l0 -42.83 20.96 0 0 45.8c0,4.57 -0.72,8.68 -2.15,12.36 -1.42,3.69 -3.54,6.96 -6.34,9.81 -2.87,2.87 -6.59,5 -11.18,6.39 -4.61,1.41 -10.15,2.11 -16.62,2.11 -5.38,0 -10.24,-0.68 -14.57,-2.05 -4.33,-1.36 -8.09,-3.48 -11.29,-6.35 -3.13,-2.85 -5.51,-6.07 -7.11,-9.6 -1.6,-3.55 -2.4,-7.43 -2.4,-11.66l0 -46.81 20.96 0z"/>
   <path class="fil0" d="M645.47 733.92l8.07 0c0.14,0.14 0.3,0.19 0.46,0.19l0.46 0 0.46 0 0.56 0c1.23,-0.05 2.41,-0.25 3.57,-0.55 1.17,-0.31 2.29,-0.69 3.38,-1.17 1.02,-0.54 1.81,-1.32 2.34,-2.35 0.56,-1.02 0.83,-2.36 0.83,-3.99 0,-1.35 -0.27,-2.56 -0.83,-3.58 -0.53,-1.02 -1.36,-1.87 -2.44,-2.55 -1.09,-0.62 -2.33,-1.09 -3.69,-1.43 -1.36,-0.34 -2.82,-0.52 -4.39,-0.52l-8.79 -0.19 0 16.15zm12.06 -31.38c0.14,0.14 0.3,0.2 0.47,0.2l0.45 0 0.46 0 0.56 0c3.48,0.08 6.81,0.46 9.97,1.14 3.17,0.68 6.23,1.64 9.15,2.85 2.87,1.29 5.02,3.22 6.49,5.78 1.46,2.56 2.2,5.73 2.2,9.56 0,2.99 -0.43,5.61 -1.28,7.82 -0.86,2.22 -2.16,4 -3.93,5.37 -1.7,1.36 -3.62,2.49 -5.72,3.36 -2.12,0.9 -4.36,1.54 -6.74,1.94 3.61,0.15 6.53,0.83 8.79,2.05 2.24,1.22 3.81,3 4.69,5.31 0.89,2.33 1.62,4.74 2.21,7.25 0.56,2.53 0.99,5.15 1.28,7.89l0 0.2 0 0.21 0 0.2c0,0.08 0.02,0.15 0.09,0.2 0.12,1.1 0.25,2.21 0.35,3.32 0.1,1.13 0.23,2.28 0.36,3.43 0.14,1.1 0.33,2.15 0.6,3.12 0.29,0.99 0.58,1.93 0.93,2.81l-22.49 0c-0.27,-0.54 -0.49,-1.19 -0.66,-1.95 -0.17,-0.75 -0.32,-1.56 -0.47,-2.45 -0.07,-0.88 -0.12,-1.79 -0.19,-2.7 -0.07,-0.92 -0.14,-1.86 -0.21,-2.81l0 -0.31 0 -0.3c-0.06,-0.07 -0.11,-0.16 -0.11,-0.25l0 -0.26 0 -0.63 0 -0.6c-0.13,-1.98 -0.37,-3.86 -0.71,-5.66 -0.34,-1.83 -0.78,-3.54 -1.34,-5.16 -0.54,-1.64 -1.46,-2.87 -2.75,-3.69 -1.29,-0.82 -2.93,-1.22 -4.92,-1.22l-9.59 -0.22 0 28.22 -20.96 0 0 -74.01 33.02 0z"/>
   <path class="fil0" d="M719.73 748.39c0.7,2.75 1.78,5.4 3.21,7.93 1.43,2.51 3.28,4.4 5.52,5.66 2.26,1.27 4.87,1.89 7.88,1.89 2.59,0 4.89,-0.47 6.89,-1.47 2.01,-0.99 3.71,-2.51 5.07,-4.54 1.36,-1.99 2.4,-4.49 3.11,-7.53 0.72,-3.03 1.07,-6.55 1.07,-10.58 0,-3.2 -0.32,-6.21 -0.96,-9.05 -0.65,-2.83 -1.66,-5.43 -3.02,-7.81 -1.29,-2.38 -3.03,-4.21 -5.21,-5.42 -2.19,-1.23 -4.77,-1.85 -7.77,-1.85 -2.99,0 -5.55,0.64 -7.67,1.9 -2.11,1.26 -3.77,3.16 -5.01,5.67 -1.22,2.52 -2.16,5.17 -2.85,7.92 -0.68,2.76 -1.13,5.64 -1.34,8.64l0 -0.21c0,3.14 0.36,6.08 1.08,8.85zm-20.55 -22.23c1.32,-4.5 3.21,-8.79 5.67,-12.88 2.45,-4.02 6.31,-7.05 11.56,-9.09 5.25,-2.05 11.89,-3.07 19.93,-3.07l0.31 0 0.31 0 0.26 0 0.26 0 0.3 0 0.31 0 0.26 0 0.26 0c4.42,0.21 8.68,1 12.77,2.36 4.09,1.36 7.96,3.32 11.65,5.91 3.69,2.6 6.45,6.44 8.33,11.5 1.87,5.08 2.8,11.38 2.8,18.86 0,1.02 -0.01,2.03 -0.06,3.06 -0.02,1.02 -0.11,2.09 -0.25,3.18 -0.05,0.54 -0.13,1.08 -0.19,1.63 -0.08,0.54 -0.15,1.1 -0.2,1.64 -0.14,0.6 -0.25,1.2 -0.35,1.73 -0.12,0.56 -0.23,1.1 -0.37,1.63 -0.81,3.28 -2.1,6.37 -3.83,9.31 -1.74,2.92 -3.89,5.72 -6.49,8.38 -2.58,2.65 -5.97,4.63 -10.16,5.92 -4.18,1.31 -9.22,1.94 -15.08,1.94 -7.77,0 -14.25,-0.89 -19.43,-2.71 -5.17,-1.81 -9.09,-4.55 -11.75,-8.22 -2.66,-3.68 -4.73,-7.56 -6.24,-11.6 -1.49,-4.07 -2.41,-8.34 -2.75,-12.84l0 -0.2 0 -0.32c-0.08,-0.06 -0.1,-0.14 -0.1,-0.25l0 -0.27 0 -0.6 0 -0.61 0 -0.19c0.2,-4.99 0.96,-9.71 2.3,-14.22z"/>
   <path class="fil0" d="M850.71 762.04c3.4,0.13 6.35,-0.3 8.85,-1.27 2.48,-1 4.58,-2.52 6.28,-4.56 1.7,-2.05 3.02,-4.18 3.97,-6.43 0.97,-2.24 1.54,-4.6 1.75,-7.05l0 -0.2c0,-0.07 0.02,-0.17 0.09,-0.31l0 -0.25 0 -0.26 0 -0.3 0 -0.31 0 -0.25 0 -0.27 0 -0.41 0 -0.52c-0.06,-0.11 -0.09,-0.26 -0.09,-0.41l0 -0.39c0,-0.34 -0.04,-0.67 -0.06,-0.98 -0.03,-0.31 -0.08,-0.6 -0.15,-0.88 -0.4,-2.37 -1.14,-4.66 -2.19,-6.83 -1.06,-2.19 -2.47,-4.26 -4.25,-6.23 -1.77,-1.99 -3.79,-3.47 -6.03,-4.46 -2.25,-0.98 -4.7,-1.49 -7.36,-1.49l-11.25 -0.19 0 44.26 10.43 0zm0 -59.49c8.45,0.14 15.5,1.14 21.16,3.01 5.66,1.88 9.92,4.68 12.77,8.44 2.87,3.75 5.03,7.81 6.49,12.17 1.46,4.36 2.23,8.99 2.31,13.9l0 0.31 0 0.19 0 0.2 0 0.32 0 0.19 0 0.21c-0.08,0.13 -0.1,0.27 -0.1,0.41l0 0.4 0 0.26 0 0.37c-0.2,5.85 -1.25,10.93 -3.12,15.22 -1.89,4.3 -4.58,7.77 -8.13,10.42 -3.54,2.72 -7.25,4.74 -11.13,6.03 -3.89,1.3 -7.95,1.95 -12.17,1.95l-39.46 0 0 -74 31.38 0z"/>
   <path class="fil0" d="M938.5 717.78l-9.71 29.84 18.5 0 -8.79 -29.84zm13.59 -15.24l29.03 74 -23.29 0 -4.92 -13.7 -28.92 0 -4.81 13.7 -21.77 0 29.75 -74 24.93 0z"/>
   <polygon class="fil0" points="1043.99,776.55 1023.05,776.55 1023.05,702.54 1043.99,702.54 "/>
   <polygon class="fil0" points="1085.8,702.54 1110.84,757.23 1110.84,702.54 1129.35,702.54 1129.35,776.55 1100.31,776.55 1075.38,721.05 1075.38,776.55 1056.88,776.55 1056.88,702.54 "/>
   <path class="fil0" d="M1174.41 762.04c3.41,0.13 6.36,-0.3 8.85,-1.27 2.48,-1 4.59,-2.52 6.29,-4.56 1.7,-2.05 3.02,-4.18 3.97,-6.43 0.97,-2.24 1.54,-4.6 1.75,-7.05l0 -0.2c0,-0.07 0.03,-0.17 0.1,-0.31l0 -0.25 0 -0.26 0 -0.3 0 -0.31 0 -0.25 0 -0.27 0 -0.41 0 -0.52c-0.07,-0.11 -0.1,-0.26 -0.1,-0.41l0 -0.39c0,-0.34 -0.02,-0.67 -0.06,-0.98 -0.04,-0.31 -0.09,-0.6 -0.16,-0.88 -0.4,-2.37 -1.13,-4.66 -2.18,-6.83 -1.07,-2.19 -2.48,-4.26 -4.25,-6.23 -1.78,-1.99 -3.79,-3.47 -6.04,-4.46 -2.24,-0.98 -4.69,-1.49 -7.36,-1.49l-11.24 -0.19 0 44.26 10.42 0zm0 -59.49c8.45,0.14 15.5,1.14 21.16,3.01 5.66,1.88 9.92,4.68 12.77,8.44 2.87,3.75 5.02,7.81 6.49,12.17 1.46,4.36 2.23,8.99 2.3,13.9l0 0.31 0 0.19 0 0.2 0 0.32 0 0.19 0 0.21c-0.07,0.13 -0.11,0.27 -0.11,0.41l0 0.4 0 0.26 0 0.37c-0.2,5.85 -1.25,10.93 -3.1,15.22 -1.89,4.3 -4.58,7.77 -8.14,10.42 -3.54,2.72 -7.26,4.74 -11.14,6.03 -3.89,1.3 -7.95,1.95 -12.17,1.95l-39.45 0 0 -74 31.37 0z"/>
   <path class="fil0" d="M1266.21 679.13l22.48 0 -20.04 15.33 -13.69 0 11.25 -15.33zm-16.87 23.41l0 42.63c0,2.73 0.27,5.16 0.81,7.3 0.55,2.15 1.36,4.04 2.45,5.67 1.17,1.63 2.66,2.87 4.5,3.69 1.84,0.82 4.05,1.24 6.64,1.24 2.99,0 5.53,-0.42 7.57,-1.24 2.04,-0.82 3.58,-2.07 4.6,-3.78 1.03,-1.71 1.8,-3.67 2.35,-5.92 0.55,-2.26 0.82,-4.77 0.82,-7.56l0 -42.01 20.96 0 0 45.08c0,4.56 -0.73,8.69 -2.15,12.31 -1.42,3.65 -3.54,6.91 -6.33,9.77 -2.87,2.85 -6.59,4.99 -11.2,6.39 -4.6,1.39 -10.14,2.09 -16.61,2.09 -5.38,0 -10.24,-0.68 -14.56,-2.05 -4.34,-1.35 -8.1,-3.47 -11.3,-6.32 -3.13,-2.86 -5.51,-6.06 -7.11,-9.61 -1.61,-3.54 -2.4,-7.43 -2.4,-11.64l0 -46.01 20.96 0z"/>
   <path class="fil0" d="M1331.42 752.42l0 0.96c0,0.31 0.02,0.63 0.1,0.98 0,0.15 0.02,0.29 0.04,0.46 0.04,0.17 0.06,0.33 0.06,0.47 0.07,0.2 0.11,0.39 0.15,0.55 0.04,0.17 0.09,0.33 0.16,0.47 0.2,0.88 0.56,1.7 1.08,2.44 0.51,0.75 1.17,1.51 1.98,2.26 0.82,0.68 1.88,1.19 3.19,1.53 1.28,0.34 2.78,0.51 4.48,0.51 1.85,0 3.47,-0.17 4.87,-0.51 1.39,-0.34 2.56,-0.86 3.53,-1.53 0.95,-0.75 1.67,-1.53 2.18,-2.35 0.52,-0.81 0.81,-1.66 0.88,-2.55l0 -0.21 0 -0.21c-0.08,0 -0.11,-0.02 -0.11,-0.1l0 -0.19 0 -0.22 0 -0.2c-0.06,-0.08 -0.1,-0.14 -0.1,-0.19l0 -0.22c-0.27,-0.75 -0.71,-1.49 -1.32,-2.24 -0.63,-0.75 -1.41,-1.46 -2.35,-2.15 -1.03,-0.75 -2.23,-1.37 -3.63,-1.89 -1.41,-0.51 -2.98,-0.93 -4.76,-1.27l-0.21 0 -0.2 0c-0.08,0 -0.15,-0.03 -0.2,-0.06 -0.08,-0.02 -0.14,-0.08 -0.22,-0.15 -5.44,-1.15 -10.05,-2.42 -13.79,-3.84 -3.75,-1.38 -6.6,-2.83 -8.57,-4.33 -2,-1.57 -3.53,-3.54 -4.6,-5.92 -1.1,-2.38 -1.75,-5.15 -1.95,-8.28l0 -0.37 0 -0.26 0 -0.14 0 -0.16 0 -0.21c-0.08,-3.61 0.67,-6.78 2.2,-9.55 1.53,-2.76 3.83,-5.09 6.9,-7.01 3.07,-1.82 6.45,-3.24 10.17,-4.19 3.71,-0.95 7.74,-1.43 12.11,-1.43 6.06,0.21 11.09,0.91 15.08,2.1 3.98,1.19 6.92,2.88 8.84,5.05 1.97,2.12 3.45,4.53 4.44,7.26 0.98,2.73 1.48,5.69 1.48,8.9l-20.96 -0.21c0,-1.09 -0.2,-2.11 -0.62,-3.06 -0.41,-0.96 -1.03,-1.81 -1.83,-2.56 -0.83,-0.75 -1.84,-1.3 -3.07,-1.69 -1.23,-0.37 -2.63,-0.56 -4.21,-0.56 -1.41,0 -2.68,0.18 -3.77,0.52 -1.08,0.33 -2.02,0.85 -2.75,1.53 -0.69,0.69 -1.24,1.38 -1.65,2.09 -0.39,0.72 -0.61,1.48 -0.61,2.3l0 0.21 0 0.19 0 0.16 0 0.15c0.15,0.69 0.41,1.38 0.82,2.1 0.41,0.72 0.94,1.39 1.63,2 0.75,0.68 1.65,1.22 2.71,1.64 1.06,0.4 2.26,0.68 3.62,0.82 0.76,0.13 1.54,0.29 2.37,0.46 0.82,0.17 1.63,0.32 2.45,0.45 0.81,0.15 1.63,0.3 2.46,0.47 0.8,0.17 1.66,0.36 2.54,0.55 2.87,0.69 5.63,1.58 8.3,2.66 2.66,1.1 5.21,2.42 7.67,3.99 2.37,1.5 4.18,3.49 5.41,5.97 1.22,2.5 1.85,5.43 1.85,8.85 0,4.43 -0.8,8.23 -2.35,11.41 -1.57,3.16 -3.96,5.73 -7.17,7.7 -3.14,1.91 -6.59,3.32 -10.37,4.24 -3.78,0.92 -7.88,1.37 -12.31,1.37 -5.39,0 -10.12,-0.52 -14.21,-1.58 -4.09,-1.05 -7.46,-2.64 -10.11,-4.75 -2.72,-2.18 -4.81,-4.87 -6.23,-8.08 -1.43,-3.19 -2.26,-6.91 -2.46,-11.15l0 -0.2 20.96 0z"/>
   <polygon class="fil0" points="1448.02,702.54 1448.02,717.78 1424.73,717.78 1424.73,776.55 1404.6,776.55 1404.6,717.78 1381.3,717.78 1381.3,702.54 "/>
   <path class="fil0" d="M1475.43 733.92l8.07 0c0.14,0.14 0.29,0.19 0.46,0.19l0.46 0 0.46 0 0.56 0c1.23,-0.05 2.41,-0.25 3.58,-0.55 1.16,-0.31 2.29,-0.69 3.38,-1.17 1.02,-0.54 1.8,-1.32 2.34,-2.35 0.56,-1.02 0.83,-2.36 0.83,-3.99 0,-1.35 -0.27,-2.56 -0.83,-3.58 -0.54,-1.02 -1.36,-1.87 -2.44,-2.55 -1.09,-0.62 -2.33,-1.09 -3.69,-1.43 -1.36,-0.34 -2.82,-0.52 -4.39,-0.52l-8.79 -0.19 0 16.15zm12.05 -31.38c0.14,0.14 0.3,0.2 0.47,0.2l0.45 0 0.46 0 0.57 0c3.48,0.08 6.8,0.46 9.97,1.14 3.16,0.68 6.22,1.64 9.14,2.85 2.87,1.29 5.02,3.22 6.49,5.78 1.47,2.56 2.2,5.73 2.2,9.56 0,2.99 -0.43,5.61 -1.28,7.82 -0.85,2.22 -2.15,4 -3.93,5.37 -1.69,1.36 -3.62,2.49 -5.72,3.36 -2.11,0.9 -4.35,1.54 -6.74,1.94 3.61,0.15 6.53,0.83 8.78,2.05 2.25,1.22 3.82,3 4.7,5.31 0.89,2.33 1.62,4.74 2.21,7.25 0.57,2.53 0.99,5.15 1.28,7.89l0 0.2 0 0.21 0 0.2c0,0.08 0.03,0.15 0.1,0.2 0.12,1.1 0.26,2.21 0.36,3.32 0.09,1.13 0.22,2.28 0.36,3.43 0.14,1.1 0.33,2.15 0.6,3.12 0.28,0.99 0.58,1.93 0.92,2.81l-22.49 0c-0.27,-0.54 -0.48,-1.19 -0.65,-1.95 -0.16,-0.75 -0.32,-1.56 -0.47,-2.45 -0.07,-0.88 -0.12,-1.79 -0.2,-2.7 -0.07,-0.92 -0.14,-1.86 -0.21,-2.81l0 -0.31 0 -0.3c-0.06,-0.07 -0.11,-0.16 -0.11,-0.25l0 -0.26 0 -0.63 0 -0.6c-0.12,-1.98 -0.37,-3.86 -0.71,-5.66 -0.34,-1.83 -0.78,-3.54 -1.34,-5.16 -0.54,-1.64 -1.46,-2.87 -2.75,-3.69 -1.29,-0.82 -2.93,-1.22 -4.92,-1.22l-9.59 -0.22 0 28.22 -20.96 0 0 -74.01 33.01 0z"/>
   <polygon class="fil0" points="1550.24,776.55 1529.3,776.55 1529.3,702.54 1550.24,702.54 "/>
   <path class="fil0" d="M1597.78 717.78l-9.71 29.84 18.5 0 -8.78 -29.84zm13.58 -15.24l29.04 74 -23.3 0 -4.91 -13.7 -28.93 0 -4.82 13.7 -21.76 0 29.75 -74 24.93 0z"/>
   <path class="fil0" d="M1136.88 366.04l-213.55 0 -8.09 0 8.09 -38.08 56.46 -265.6 84.12 0 -52.02 244.79 137.53 0 -12.55 58.89zm-255.57 -123.24l-135.43 0 -13.67 64.35 147.2 0 -12.55 58.89 -227.43 0 -3.89 0 3.89 -18.31 60.66 -285.37 223.23 0 8.09 0 -8.09 38 -4.44 20.89 -147.21 0 -13.32 62.68 135.43 0 -12.47 58.88zm-386.66 123.24l64.55 -303.68 80.24 0 3.89 0 -3.89 18.3 -60.67 285.38 -84.11 0zm-30.79 -292.41l-90.11 0 0 -11.27 90.11 0 0 11.27zm0 71.92l-90.11 0 0 -11.29 90.11 0 0 11.29zm0 73.8l-90.11 0 0 -11.27 90.11 0 0 11.27zm0 74.81l-90.11 0 0 -11.27 90.11 0 0 11.27zm0 72.13l-90.11 0 0 -11.27 90.11 0 0 11.27zm716.34 -292.66l0 -11.27 86.47 0 0 -62.36 -892.95 0 0 428.09 892.95 0 0 -61.79 -86.47 0 0 -11.27 86.47 0 0 -60.86 -86.47 0 0 -11.27 86.47 0 0 -63.54 -86.47 0 0 -11.27 86.47 0 0 -62.52 -86.47 0 0 -11.29 86.47 0 0 -60.63 -86.47 0z"/>
  </g>
 </g>
</svg>
