<?xml version="1.0" encoding="UTF-8"?>
<!DOCTYPE svg PUBLIC "-//W3C//DTD SVG 1.1//EN" "http://www.w3.org/Graphics/SVG/1.1/DTD/svg11.dtd">
<!-- Creator: CorelDRAW 2020 (64 Bit) -->
<svg xmlns="http://www.w3.org/2000/svg" xml:space="preserve" width="87.8093mm" height="26.6565mm" version="1.1" style="shape-rendering:geometricPrecision; text-rendering:geometricPrecision; image-rendering:optimizeQuality; fill-rule:evenodd; clip-rule:evenodd"
viewBox="0 0 3483.18 1057.4"
 xmlns:xlink="http://www.w3.org/1999/xlink"
 xmlns:xodm="http://www.corel.com/coreldraw/odm/2003">
 <defs>
  <style type="text/css">
   <![CDATA[
    .fil0 {fill:#FEFEFE;fill-rule:nonzero}
   ]]>
  </style>
 </defs>
 <g id="Camada_x0020_1">
  <metadata id="CorelCorpID_0Corel-Layer"/>
  <g id="_2939870359488">
   <path class="fil0" d="M18.32 763.17c-0.32,2.07 -0.58,4.42 -0.74,7.06 -0.15,2.67 0.42,5.17 1.72,7.55 1.31,2.38 3.69,4.41 7.1,6.08 3.44,1.69 8.53,2.54 15.31,2.54 6.09,0 11.15,-0.83 15.19,-2.46 4.04,-1.63 7.26,-3.59 9.66,-5.87 2.39,-2.29 4.12,-4.59 5.22,-6.95 1.1,-2.33 1.8,-4.26 2.13,-5.78 0.66,-3.27 0.6,-5.97 -0.15,-8.08 -0.76,-2.12 -2.21,-3.9 -4.33,-5.31 -2.13,-1.41 -4.74,-2.61 -7.86,-3.6 -3.1,-0.98 -6.6,-1.95 -10.54,-2.93 -4.25,-1.09 -7.95,-2.07 -11.11,-2.94 -3.17,-0.87 -5.93,-1.69 -8.27,-2.45 -2.34,-0.76 -4.36,-1.55 -6.05,-2.36 -1.68,-0.82 -3.19,-1.71 -4.48,-2.7 -4.05,-3.26 -6.46,-6.96 -7.29,-11.1 -0.8,-4.15 -0.79,-8.16 0.08,-12.08 1.2,-5.99 3.58,-11.17 7.14,-15.51 3.52,-4.35 7.7,-7.92 12.5,-10.69 4.79,-2.8 10.02,-4.87 15.69,-6.22 5.67,-1.34 11.29,-2.04 16.84,-2.04 1.97,0 4.35,0.12 7.2,0.33 2.83,0.23 5.67,0.73 8.5,1.54 2.82,0.84 5.59,2.01 8.25,3.53 2.68,1.54 4.95,3.59 6.79,6.2 1.32,1.86 2.24,3.71 2.78,5.57 0.54,1.86 0.88,3.65 0.99,5.4 0.09,1.75 0.04,3.4 -0.17,4.98 -0.2,1.58 -0.44,2.97 -0.65,4.17l-17.01 0c0.54,-3.71 0.33,-6.73 -0.65,-9.07 -1,-2.35 -2.5,-4.18 -4.58,-5.49 -2.07,-1.3 -4.45,-2.21 -7.2,-2.7 -2.73,-0.48 -5.57,-0.73 -8.49,-0.73 -8.19,0 -14.97,1.71 -20.36,5.16 -5.41,3.42 -8.7,8.09 -9.89,13.96 -0.54,2.63 -0.61,4.87 -0.17,6.72 0.43,1.84 1.39,3.42 2.85,4.73 1.48,1.31 3.47,2.43 5.98,3.34 2.51,0.93 5.43,1.83 8.83,2.7 6.55,1.86 11.81,3.33 15.87,4.42 4.03,1.09 7.25,2.04 9.64,2.85 2.4,0.82 4.27,1.61 5.65,2.38 1.36,0.76 2.8,1.7 4.33,2.78 2.28,1.86 4,3.87 5.14,6.04 1.15,2.18 1.86,4.37 2.13,6.55 0.27,2.17 0.33,4.24 0.17,6.21 -0.17,1.96 -0.42,3.54 -0.75,4.74 -1.09,5.23 -3.1,10.09 -6.04,14.57 -2.94,4.46 -6.72,8.36 -11.35,11.69 -4.65,3.32 -10.09,5.9 -16.35,7.76 -6.26,1.85 -13.16,2.78 -20.68,2.78 -2.3,0 -5.02,-0.14 -8.19,-0.41 -3.17,-0.28 -6.35,-0.88 -9.55,-1.79 -3.22,-0.93 -6.28,-2.3 -9.18,-4.09 -2.87,-1.79 -5.13,-4.18 -6.78,-7.11 -1.19,-2.19 -2.02,-4.38 -2.45,-6.63 -0.43,-2.23 -0.66,-4.38 -0.66,-6.46 0,-2.06 0.14,-4.03 0.42,-5.89 0.28,-1.84 0.58,-3.48 0.9,-4.9l17 0z"/>
   <path class="fil0" d="M171.36 748.62c0.44,-1.96 0.76,-4.34 0.99,-7.11 0.21,-2.79 -0.1,-5.41 -0.89,-7.93 -0.84,-2.5 -2.4,-4.65 -4.76,-6.46 -2.34,-1.8 -5.84,-2.69 -10.54,-2.69 -2.52,0 -5.16,0.41 -7.95,1.22 -2.76,0.82 -5.41,2.19 -7.91,4.09 -2.5,1.9 -4.8,4.38 -6.87,7.43 -2.07,3.07 -3.65,6.89 -4.72,11.46l42.66 0zm-45.63 10.79c-1.07,4.25 -1.56,8.18 -1.45,11.77 0.1,3.59 0.85,6.74 2.19,9.4 1.37,2.67 3.38,4.74 6.03,6.21 2.69,1.47 6.14,2.21 10.4,2.21 5.02,0 9.62,-1.36 13.82,-4.1 4.2,-2.72 7.24,-7.01 9.06,-12.92l15.39 0c-0.66,2.08 -1.69,4.68 -3.12,7.79 -1.4,3.09 -3.92,6.24 -7.51,9.39 -1.09,0.98 -2.53,2.12 -4.33,3.43 -1.79,1.31 -3.95,2.51 -6.47,3.59 -2.5,1.1 -5.4,2.03 -8.66,2.78 -3.27,0.77 -6.99,1.15 -11.12,1.15 -12.96,0 -21.77,-3.77 -26.41,-11.29 -4.64,-7.52 -5.6,-17.76 -2.85,-30.74 1.74,-8.06 4.41,-15.39 8.01,-21.99 3.59,-6.6 9.08,-12.13 16.51,-16.59 2.17,-1.42 4.41,-2.51 6.71,-3.27 2.28,-0.77 4.49,-1.36 6.6,-1.8 2.13,-0.43 4.06,-0.71 5.8,-0.81 1.74,-0.13 3.22,-0.18 4.44,-0.18 6.09,0 11.08,0.81 14.95,2.45 3.87,1.64 6.83,3.8 8.91,6.46 2.06,2.66 3.47,5.66 4.18,9 0.71,3.32 0.98,6.71 0.81,10.13 -0.16,3.43 -0.58,6.73 -1.23,9.91 -0.65,3.15 -1.19,5.82 -1.63,8l-59.04 0z"/>
   <path class="fil0" d="M213.87 732.27c0.67,-2.82 1.17,-5.64 1.56,-8.42 0.38,-2.78 0.79,-5.53 1.22,-8.27l15.55 0 -3.11 15.87c1.42,-2.83 3.05,-5.23 4.92,-7.19 1.83,-1.96 3.83,-3.57 5.95,-4.83 2.13,-1.25 4.27,-2.22 6.39,-2.86 2.13,-0.66 4.06,-1.09 5.8,-1.32 2.4,-0.32 4.47,-0.49 6.21,-0.49 1.74,0 3.26,0.06 4.58,0.17l-3.28 15.05c-0.65,-0.22 -1.59,-0.44 -2.76,-0.66 -0.56,-0.12 -1.22,-0.16 -1.96,-0.16l-2.46 0c-4.58,0 -8.45,0.62 -11.61,1.88 -3.18,1.26 -5.81,3.01 -7.93,5.24 -2.13,2.23 -3.82,4.88 -5.07,7.93 -1.26,3.06 -2.25,6.32 -3.02,9.8l-9.31 43.67 -15.55 0 13.9 -65.4z"/>
   <polygon class="fil0" points="267.83,715.59 285,715.59 297.27,780.67 336.66,715.59 353.68,715.59 300.21,797.67 284.67,797.67 "/>
   <path class="fil0" d="M377.21 679.96l18.48 0 -3.6 16.84 -18.48 0 3.6 -16.84zm-5.88 35.63l15.37 0 -17.49 82.09 -15.38 0 17.51 -82.09z"/>
   <path class="fil0" d="M467.8 770.38c-1,3.82 -2.55,7.43 -4.68,10.87 -2.13,3.44 -4.79,6.45 -8.01,9.07 -3.2,2.61 -6.84,4.74 -10.86,6.37 -4.02,1.63 -8.45,2.62 -13.25,2.96l-6.85 7.52c0.86,-0.24 1.82,-0.42 2.85,-0.58 1.04,-0.17 2.27,-0.25 3.69,-0.25 2.39,0 4.33,0.38 5.81,1.14 1.47,0.76 2.59,1.71 3.34,2.87 0.77,1.13 1.23,2.38 1.38,3.76 0.17,1.36 0.13,2.64 -0.08,3.85 -0.12,0.31 -0.44,1.26 -0.98,2.84 -0.55,1.59 -1.62,3.24 -3.28,4.98 -1.64,1.76 -3.95,3.33 -6.95,4.74 -2.99,1.42 -7.01,2.13 -12.02,2.13 -3.81,0 -6.78,-0.32 -8.9,-0.97 -2.14,-0.67 -4.01,-1.42 -5.66,-2.3l4.43 -6.04c0.86,0.54 2.09,1.05 3.67,1.55 1.57,0.48 3.84,0.73 6.8,0.73 2.83,0 5.12,-0.54 6.86,-1.62 1.74,-1.09 2.84,-2.74 3.28,-4.9 0.33,-1.42 0.26,-2.56 -0.17,-3.45 -0.46,-0.86 -1.06,-1.53 -1.88,-1.96 -0.83,-0.45 -1.69,-0.71 -2.61,-0.81 -0.93,-0.12 -1.72,-0.17 -2.38,-0.17 -1.2,0 -2.21,0.11 -3.03,0.33 -0.81,0.2 -1.82,0.54 -3.03,0.98l-1.95 -2.78 10.79 -11.6c-6.22,-0.78 -11.12,-2.44 -14.72,-5 -3.61,-2.57 -6.25,-5.71 -7.94,-9.47 -1.69,-3.77 -2.54,-7.95 -2.54,-12.59 0,-4.64 0.51,-9.35 1.49,-14.16 1.96,-9.15 4.77,-16.61 8.41,-22.4 3.66,-5.77 7.75,-10.34 12.27,-13.73 4.51,-3.38 9.05,-5.7 13.56,-6.95 4.54,-1.27 8.71,-1.89 12.52,-1.89 1.3,0 3.01,0.12 5.13,0.35 2.13,0.21 4.28,0.67 6.47,1.39 2.17,0.71 4.31,1.72 6.38,3 2.07,1.32 3.75,3.12 5.06,5.41 2.29,3.49 3.44,6.83 3.44,10.07 0,3.21 -0.18,5.94 -0.5,8.25l-15.52 0c0.1,-0.98 0.21,-2.44 0.33,-4.34 0.1,-1.91 -0.2,-3.81 -0.91,-5.74 -0.71,-1.9 -1.98,-3.55 -3.74,-4.97 -1.81,-1.42 -4.58,-2.13 -8.26,-2.13 -5.36,0 -9.74,1.31 -13.17,3.94 -3.43,2.61 -6.2,5.67 -8.26,9.15 -2.07,3.49 -3.57,6.94 -4.49,10.38 -0.93,3.44 -1.54,5.91 -1.87,7.45 -0.99,4.25 -1.59,8.31 -1.8,12.17 -0.24,3.86 0.1,7.33 0.98,10.39 0.85,3.05 2.41,5.46 4.65,7.26 2.24,1.8 5.42,2.7 9.56,2.7 3.26,0 6.16,-0.54 8.66,-1.63 2.52,-1.11 4.59,-2.51 6.3,-4.25 1.69,-1.76 3.11,-3.69 4.23,-5.81 1.17,-2.12 1.94,-4.17 2.38,-6.12l15.55 0z"/>
   <path class="fil0" d="M499.5 756.64c-0.86,4.25 -1.26,8.3 -1.15,12.18 0.12,3.89 0.83,7.3 2.22,10.3 1.36,3.01 3.4,5.39 6.13,7.2 2.73,1.79 6.24,2.71 10.63,2.71 2.94,0 6.01,-0.58 9.23,-1.73 3.23,-1.14 6.27,-2.99 9.17,-5.55 2.87,-2.57 5.51,-5.95 7.91,-10.14 2.39,-4.19 4.25,-9.4 5.56,-15.62 2.18,-10.25 1.67,-18 -1.56,-23.29 -3.21,-5.3 -8.41,-7.94 -15.6,-7.94 -2.51,0 -5.35,0.48 -8.5,1.4 -3.16,0.93 -6.29,2.56 -9.4,4.9 -3.11,2.36 -5.98,5.59 -8.58,9.73 -2.63,4.15 -4.64,9.44 -6.05,15.87zm-16.18 0.98c1.07,-5.01 2.82,-10.14 5.23,-15.37 2.4,-5.23 5.65,-9.96 9.8,-14.23 4.16,-4.25 9.15,-7.73 15.04,-10.45 5.89,-2.73 12.86,-4.09 20.93,-4.09 8.19,0 14.58,1.45 19.21,4.33 4.64,2.88 7.98,6.49 10.06,10.79 2.07,4.31 3.15,8.95 3.19,13.97 0.06,5.03 -0.35,9.66 -1.23,13.9 -1.3,6 -3.37,11.66 -6.21,17.01 -2.84,5.36 -6.36,10 -10.62,13.99 -4.26,3.97 -9.28,7.14 -15.05,9.47 -5.78,2.33 -12.16,3.51 -19.13,3.51 -6.77,0 -12.42,-1.12 -17.01,-3.34 -4.57,-2.25 -8.14,-5.25 -10.71,-9.08 -2.58,-3.82 -4.13,-8.35 -4.66,-13.57 -0.55,-5.23 -0.17,-10.85 1.15,-16.84z"/>
   <polygon class="fil0" points="652.37,679.62 675.09,679.62 712.55,777.23 733.14,679.62 748.17,679.62 723.16,797.68 702.22,797.68 663.49,697.45 642.24,797.68 627.34,797.68 "/>
   <path class="fil0" d="M810.16 757.78c-1.43,-0.23 -2.77,-0.35 -4.01,-0.41 -1.28,-0.05 -2.82,-0.08 -4.67,-0.08 -1.53,0 -3.96,0.08 -7.28,0.24 -3.3,0.17 -6.76,0.78 -10.28,1.8 -3.55,1.04 -6.82,2.71 -9.82,4.99 -3,2.29 -4.95,5.5 -5.8,9.64 -0.33,1.32 -0.41,2.79 -0.26,4.43 0.18,1.63 0.72,3.17 1.64,4.67 0.93,1.47 2.38,2.69 4.35,3.66 1.94,0.98 4.68,1.48 8.16,1.48 7.86,0 14.35,-2.94 19.45,-8.83 1.21,-1.42 2.19,-2.78 2.96,-4.08 0.75,-1.32 1.42,-2.78 1.96,-4.42 0.54,-1.63 1.09,-3.52 1.63,-5.65 0.54,-2.1 1.2,-4.61 1.97,-7.43zm-6.71 39.9c-0.11,-2.07 -0.05,-4.09 0.16,-6.05 0.21,-1.96 0.54,-4.03 0.98,-6.21 -2.62,3.36 -5.24,6.06 -7.85,8 -2.61,1.96 -5.18,3.47 -7.69,4.51 -2.51,1.03 -4.85,1.69 -7.01,1.96 -2.2,0.27 -4.17,0.42 -5.91,0.42 -4.68,0 -8.72,-0.64 -12.09,-1.89 -3.38,-1.25 -6.04,-2.98 -8.01,-5.16 -1.96,-2.17 -3.26,-4.72 -3.94,-7.68 -0.65,-2.96 -0.6,-6.1 0.16,-9.48 0.35,-1.64 0.91,-3.49 1.74,-5.56 0.81,-2.07 1.97,-4.17 3.5,-6.3 1.54,-2.11 3.43,-4.23 5.73,-6.36 2.28,-2.13 5.13,-4.06 8.48,-5.82 2.51,-1.19 5.13,-2.15 7.86,-2.86 2.73,-0.71 5.45,-1.25 8.17,-1.64 2.72,-0.38 5.26,-0.63 7.6,-0.74 2.35,-0.1 4.35,-0.15 5.98,-0.15 1.94,0 3.7,0.04 5.22,0.09 1.54,0.04 3.48,0.18 5.89,0.41 0.54,-2.51 0.98,-4.73 1.29,-6.62 0.35,-1.91 0.56,-3.54 0.68,-4.93 0.1,-1.35 0.1,-2.58 0,-3.66 -0.12,-1.1 -0.5,-2.06 -1.16,-2.96 -1.09,-2.07 -3,-3.49 -5.72,-4.23 -2.74,-0.78 -5.18,-1.15 -7.37,-1.15 -3.91,0 -7.07,0.58 -9.46,1.71 -2.42,1.15 -4.31,2.48 -5.74,4.01 -1.42,1.53 -2.42,3.09 -3.03,4.67 -0.6,1.57 -0.99,2.74 -1.23,3.51l-15.37 0c0.67,-2.18 1.59,-4.61 2.78,-7.28 1.2,-2.67 3.27,-5.42 6.24,-8.25 1.95,-1.74 4.13,-3.2 6.53,-4.33 2.4,-1.15 4.84,-2.06 7.35,-2.71 2.5,-0.66 5.02,-1.11 7.53,-1.38 2.51,-0.28 4.85,-0.43 7.03,-0.43 2.93,0 5.87,0.26 8.73,0.75 2.9,0.49 5.54,1.23 7.93,2.22 2.41,0.98 4.48,2.23 6.22,3.74 1.74,1.52 2.95,3.33 3.6,5.41 0.77,2.51 1.06,4.76 0.91,6.77 -0.17,2.02 -0.43,3.96 -0.75,5.82l-9 39.24c-0.11,0.33 -0.27,1.21 -0.48,2.61 -0.23,1.42 -0.52,3.11 -0.9,5.07 -0.38,1.96 -0.76,4.1 -1.07,6.4 -0.33,2.27 -0.54,4.47 -0.66,6.53l-13.89 0z"/>
   <path class="fil0" d="M902.87 741.93c0.1,-0.99 0.21,-2.44 0.32,-4.34 0.1,-1.91 -0.19,-3.81 -0.9,-5.72 -0.7,-1.91 -1.97,-3.55 -3.75,-4.99 -1.79,-1.42 -4.57,-2.12 -8.26,-2.12 -5.34,0 -9.74,1.3 -13.17,3.92 -3.43,2.61 -6.19,5.67 -8.25,9.16 -2.08,3.49 -3.57,6.94 -4.49,10.39 -0.94,3.43 -1.55,5.9 -1.88,7.43 -0.99,4.26 -1.59,8.32 -1.8,12.18 -0.23,3.88 0.09,7.33 0.98,10.39 0.85,3.05 2.41,5.46 4.65,7.28 2.25,1.79 5.42,2.68 9.56,2.68 3.28,0 6.15,-0.54 8.66,-1.61 2.51,-1.11 4.6,-2.53 6.31,-4.27 1.69,-1.75 3.09,-3.69 4.23,-5.81 1.15,-2.12 1.94,-4.17 2.38,-6.12l15.55 0c-1.01,4.03 -2.65,7.82 -5.01,11.36 -2.34,3.53 -5.24,6.64 -8.67,9.32 -3.42,2.69 -7.31,4.8 -11.69,6.36 -4.34,1.58 -9.04,2.39 -14.05,2.39 -1.42,0 -3.19,-0.12 -5.33,-0.34 -2.11,-0.21 -4.32,-0.67 -6.6,-1.38 -2.3,-0.71 -4.58,-1.78 -6.86,-3.19 -2.3,-1.42 -4.26,-3.31 -5.9,-5.73 -0.87,-1.41 -1.71,-3.03 -2.55,-4.89 -0.81,-1.85 -1.42,-4.04 -1.8,-6.53 -0.38,-2.52 -0.48,-5.41 -0.33,-8.68 0.17,-3.26 0.7,-7.01 1.55,-11.27 1.75,-8.49 4.44,-15.6 8.01,-21.34 3.61,-5.72 7.6,-10.27 11.95,-13.66 4.36,-3.37 8.84,-5.77 13.49,-7.2 4.64,-1.4 9,-2.11 13.17,-2.11 1.3,0 3.01,0.12 5.13,0.33 2.13,0.23 4.28,0.67 6.46,1.39 2.19,0.71 4.31,1.72 6.39,3.01 2.07,1.32 3.76,3.12 5.06,5.41 2.3,3.49 3.45,6.83 3.45,10.06 0,3.21 -0.17,5.96 -0.5,8.26l-15.52 0z"/>
   <path class="fil0" d="M949.61 679.96l18.47 0 -3.61 16.84 -18.47 0 3.61 -16.84zm-5.88 35.63l15.36 0 -17.5 82.09 -15.37 0 17.5 -82.09z"/>
   <path class="fil0" d="M990.16 756.64c-0.86,4.25 -1.25,8.3 -1.15,12.18 0.12,3.89 0.84,7.3 2.21,10.3 1.38,3.01 3.4,5.39 6.14,7.2 2.73,1.79 6.25,2.71 10.62,2.71 2.95,0 6.02,-0.58 9.23,-1.73 3.23,-1.14 6.26,-2.99 9.16,-5.55 2.88,-2.57 5.53,-5.95 7.92,-10.14 2.4,-4.19 4.25,-9.4 5.56,-15.62 2.19,-10.25 1.66,-18 -1.55,-23.29 -3.21,-5.3 -8.42,-7.94 -15.61,-7.94 -2.51,0 -5.34,0.48 -8.51,1.4 -3.15,0.93 -6.28,2.56 -9.39,4.9 -3.1,2.36 -5.98,5.59 -8.59,9.73 -2.62,4.15 -4.63,9.44 -6.05,15.87zm-16.18 0.98c1.07,-5.01 2.82,-10.14 5.23,-15.37 2.4,-5.23 5.65,-9.96 9.8,-14.23 4.16,-4.25 9.16,-7.73 15.04,-10.45 5.89,-2.73 12.86,-4.09 20.93,-4.09 8.18,0 14.59,1.45 19.21,4.33 4.65,2.88 7.99,6.49 10.06,10.79 2.07,4.31 3.14,8.95 3.18,13.97 0.07,5.03 -0.33,9.66 -1.22,13.9 -1.31,6 -3.37,11.66 -6.21,17.01 -2.85,5.36 -6.36,10 -10.62,13.99 -4.25,3.97 -9.28,7.14 -15.05,9.47 -5.77,2.33 -12.16,3.51 -19.12,3.51 -6.76,0 -12.42,-1.12 -17.01,-3.34 -4.58,-2.25 -8.14,-5.25 -10.7,-9.08 -2.57,-3.82 -4.13,-8.35 -4.67,-13.57 -0.56,-5.23 -0.15,-10.85 1.16,-16.84z"/>
   <path class="fil0" d="M1087.27 725.07l1.97 -9.49 15.35 0 -2.78 13.25c0.67,-0.88 1.69,-2.12 3.12,-3.76 1.42,-1.64 3.3,-3.27 5.65,-4.9 2.33,-1.65 5.24,-3.08 8.66,-4.34 3.44,-1.25 7.49,-1.88 12.17,-1.88 1.86,0 4.39,0.27 7.61,0.81 3.22,0.55 6.25,1.79 9.06,3.68 2.84,1.91 5.07,4.72 6.72,8.42 1.64,3.7 1.74,8.73 0.32,15.05l-11.76 55.75 -15.7 0 11.11 -52.15c0.56,-2.74 0.79,-5.3 0.75,-7.7 -0.06,-2.39 -0.81,-4.52 -2.23,-6.37 -1.52,-1.86 -3.49,-3.25 -5.88,-4.17 -2.4,-0.93 -4.9,-1.41 -7.51,-1.41 -2.85,0 -5.64,0.49 -8.42,1.48 -2.78,0.99 -5.39,2.52 -7.78,4.59 -2.4,2.07 -4.48,4.62 -6.28,7.66 -1.82,3.06 -3.19,6.65 -4.17,10.8l-9.99 47.26 -15.36 0 15.36 -72.6z"/>
   <path class="fil0" d="M1228.06 757.78c-1.43,-0.23 -2.76,-0.35 -4.01,-0.41 -1.27,-0.05 -2.82,-0.08 -4.66,-0.08 -1.53,0 -3.97,0.08 -7.3,0.24 -3.3,0.17 -6.76,0.78 -10.28,1.8 -3.54,1.04 -6.82,2.71 -9.82,4.99 -2.99,2.29 -4.93,5.5 -5.8,9.64 -0.32,1.32 -0.4,2.79 -0.25,4.43 0.17,1.63 0.71,3.17 1.63,4.67 0.93,1.47 2.38,2.69 4.35,3.66 1.94,0.98 4.68,1.48 8.16,1.48 7.86,0 14.35,-2.94 19.45,-8.83 1.22,-1.42 2.19,-2.78 2.96,-4.08 0.75,-1.32 1.42,-2.78 1.96,-4.42 0.54,-1.63 1.09,-3.52 1.63,-5.65 0.55,-2.1 1.21,-4.61 1.98,-7.43zm-6.7 39.9c-0.12,-2.07 -0.06,-4.09 0.17,-6.05 0.21,-1.96 0.53,-4.03 0.97,-6.21 -2.62,3.36 -5.23,6.06 -7.85,8 -2.61,1.96 -5.19,3.47 -7.68,4.51 -2.51,1.03 -4.85,1.69 -7.01,1.96 -2.19,0.27 -4.17,0.42 -5.91,0.42 -4.68,0 -8.72,-0.64 -12.09,-1.89 -3.39,-1.25 -6.04,-2.98 -8.01,-5.16 -1.96,-2.17 -3.26,-4.72 -3.93,-7.68 -0.65,-2.96 -0.59,-6.1 0.16,-9.48 0.34,-1.64 0.91,-3.49 1.74,-5.56 0.8,-2.07 1.98,-4.17 3.5,-6.3 1.54,-2.11 3.43,-4.23 5.73,-6.36 2.27,-2.13 5.12,-4.06 8.48,-5.82 2.51,-1.19 5.13,-2.15 7.87,-2.86 2.73,-0.71 5.44,-1.25 8.16,-1.64 2.73,-0.38 5.25,-0.63 7.6,-0.74 2.35,-0.1 4.34,-0.15 5.97,-0.15 1.94,0 3.7,0.04 5.23,0.09 1.53,0.04 3.49,0.18 5.88,0.41 0.55,-2.51 0.98,-4.73 1.3,-6.62 0.35,-1.91 0.56,-3.54 0.67,-4.93 0.1,-1.35 0.1,-2.58 0,-3.66 -0.12,-1.1 -0.49,-2.06 -1.16,-2.96 -1.09,-2.07 -2.99,-3.49 -5.72,-4.23 -2.73,-0.78 -5.18,-1.15 -7.35,-1.15 -3.92,0 -7.07,0.58 -9.47,1.71 -2.42,1.15 -4.32,2.48 -5.74,4.01 -1.4,1.53 -2.43,3.09 -3.02,4.67 -0.59,1.57 -1,2.74 -1.23,3.51l-15.37 0c0.67,-2.18 1.59,-4.61 2.78,-7.28 1.21,-2.67 3.28,-5.42 6.24,-8.25 1.94,-1.74 4.14,-3.2 6.54,-4.33 2.4,-1.15 4.84,-2.06 7.36,-2.71 2.49,-0.66 4.99,-1.11 7.51,-1.38 2.51,-0.28 4.85,-0.43 7.02,-0.43 2.94,0 5.88,0.26 8.75,0.75 2.9,0.49 5.54,1.23 7.93,2.22 2.4,0.98 4.47,2.23 6.21,3.74 1.76,1.52 2.96,3.33 3.63,5.41 0.75,2.51 1.04,4.76 0.89,6.77 -0.18,2.02 -0.42,3.96 -0.75,5.82l-8.99 39.24c-0.11,0.33 -0.27,1.21 -0.48,2.61 -0.23,1.42 -0.51,3.11 -0.89,5.07 -0.4,1.96 -0.75,4.1 -1.08,6.4 -0.34,2.27 -0.55,4.47 -0.66,6.53l-13.88 0z"/>
   <polygon class="fil0" points="1287.56,679.79 1302.94,679.79 1277.92,797.67 1262.55,797.67 "/>
   <path class="fil0" d="M1419.49 755.48c1.31,-5.99 1.73,-10.77 1.23,-14.3 -0.49,-3.55 -1.34,-6.4 -2.52,-8.58 -1.22,-2.19 -3.15,-4.11 -5.83,-5.82 -2.65,-1.67 -6.18,-2.53 -10.54,-2.53 -3.8,0 -7.13,0.68 -9.98,2.04 -2.82,1.36 -5.26,3.11 -7.33,5.24 -2.09,2.13 -3.85,4.47 -5.33,7.01 -1.46,2.58 -2.68,5.07 -3.68,7.52 -0.98,2.47 -1.7,4.7 -2.2,6.72 -0.49,2.01 -0.78,3.45 -0.9,4.34 -0.76,3.59 -1.24,7.28 -1.46,11.03 -0.22,3.76 0.16,7.14 1.13,10.13 0.98,3 2.76,5.47 5.32,7.37 2.55,1.9 6.18,2.87 10.88,2.87 5.97,0 10.94,-1.42 14.87,-4.25 3.93,-2.85 7.04,-6.12 9.31,-9.89 2.3,-3.77 3.95,-7.44 4.99,-11.04 1.03,-3.59 1.72,-6.21 2.04,-7.86zm15.52 -75.7l15.38 0 -22.24 104.81c-0.11,0.43 -0.24,1.16 -0.4,2.21 -0.18,1.04 -0.37,2.17 -0.59,3.43 -0.2,1.25 -0.44,2.53 -0.65,3.83 -0.23,1.32 -0.37,2.51 -0.49,3.61l-15.38 0 2.46 -13.07c-0.86,1.21 -1.98,2.55 -3.34,4.09 -1.38,1.52 -3.32,3.04 -5.81,4.57 -3.93,2.3 -7.79,3.86 -11.61,4.75 -3.81,0.87 -7.15,1.31 -9.98,1.31 -2.72,0 -6,-0.5 -9.81,-1.48 -3.82,-0.97 -7.28,-2.93 -10.39,-5.87 -3.1,-2.95 -5.41,-7.14 -6.93,-12.61 -1.53,-5.44 -1.32,-12.69 0.65,-21.73 1.62,-7.85 4.09,-14.59 7.36,-20.2 3.26,-5.61 7.01,-10.24 11.27,-13.88 4.25,-3.66 8.77,-6.35 13.56,-8.11 4.8,-1.74 9.61,-2.61 14.4,-2.61 4.35,0 7.96,0.56 10.79,1.71 2.84,1.15 5.06,2.47 6.72,3.99 1.63,1.53 2.79,3.06 3.51,4.58 0.7,1.53 1.23,2.73 1.55,3.6l9.96 -46.92z"/>
   <path class="fil0" d="M1516.12 748.62c0.43,-1.96 0.75,-4.34 1,-7.11 0.21,-2.79 -0.09,-5.41 -0.91,-7.93 -0.84,-2.5 -2.39,-4.65 -4.75,-6.46 -2.35,-1.8 -5.85,-2.69 -10.56,-2.69 -2.5,0 -5.15,0.41 -7.92,1.22 -2.79,0.82 -5.43,2.19 -7.92,4.09 -2.5,1.9 -4.8,4.38 -6.87,7.43 -2.08,3.07 -3.65,6.89 -4.74,11.46l42.67 0zm-45.63 10.79c-1.07,4.25 -1.57,8.18 -1.45,11.77 0.09,3.59 0.84,6.74 2.2,9.4 1.36,2.67 3.37,4.74 6.05,6.21 2.67,1.47 6.12,2.21 10.38,2.21 5.02,0 9.63,-1.36 13.82,-4.1 4.2,-2.72 7.23,-7.01 9.07,-12.92l15.37 0c-0.65,2.08 -1.67,4.68 -3.11,7.79 -1.4,3.09 -3.92,6.24 -7.51,9.39 -1.09,0.98 -2.53,2.12 -4.32,3.43 -1.8,1.31 -3.96,2.51 -6.46,3.59 -2.51,1.1 -5.41,2.03 -8.67,2.78 -3.28,0.77 -6.98,1.15 -11.12,1.15 -12.98,0 -21.77,-3.77 -26.42,-11.29 -4.63,-7.52 -5.59,-17.76 -2.86,-30.74 1.75,-8.06 4.41,-15.39 8.02,-21.99 3.59,-6.6 9.09,-12.13 16.49,-16.59 2.18,-1.42 4.44,-2.51 6.73,-3.27 2.27,-0.77 4.48,-1.36 6.59,-1.8 2.14,-0.43 4.07,-0.71 5.81,-0.81 1.76,-0.13 3.22,-0.18 4.43,-0.18 6.1,0 11.08,0.81 14.94,2.45 3.88,1.64 6.84,3.8 8.91,6.46 2.08,2.66 3.48,5.66 4.19,9 0.7,3.32 0.96,6.71 0.8,10.13 -0.15,3.43 -0.59,6.73 -1.23,9.91 -0.65,3.15 -1.19,5.82 -1.63,8l-59.03 0z"/>
   <path class="fil0" d="M1620.6 753.69l44.64 0 -9.5 -57.88 -35.14 57.88zm30.56 -74.08l17.5 0 22.74 118.06 -17.83 0 -6.21 -30.74 -54.78 0 -19.31 30.74 -16.83 0 74.71 -118.06z"/>
   <path class="fil0" d="M1729.81 759.09c-0.54,2.5 -0.98,5.51 -1.29,8.98 -0.33,3.5 -0.09,6.82 0.74,9.98 0.79,3.17 2.53,5.86 5.14,8.09 2.62,2.24 6.66,3.35 12.09,3.35 0.99,0 2.18,-0.09 3.61,-0.25 1.42,-0.17 2.98,-0.52 4.75,-1.06 1.73,-0.54 3.5,-1.33 5.31,-2.37 1.8,-1.03 3.57,-2.48 5.31,-4.34 1.87,-1.96 3.49,-4.14 4.91,-6.53 1.42,-2.4 2.58,-4.78 3.51,-7.12 0.93,-2.34 1.68,-4.54 2.28,-6.63 0.6,-2.07 1.06,-3.87 1.39,-5.4 0.88,-3.69 1.36,-7.34 1.47,-10.94 0.12,-3.6 -0.38,-6.81 -1.47,-9.64 -1.09,-2.84 -2.87,-5.13 -5.39,-6.87 -2.51,-1.75 -6.05,-2.63 -10.63,-2.63 -6.11,0 -11.12,1.39 -15.05,4.16 -3.91,2.8 -7.06,6.03 -9.39,9.73 -2.34,3.72 -4.02,7.43 -5.06,11.12 -1.06,3.71 -1.77,6.51 -2.22,8.35zm-8.35 -30.09c0.24,-0.86 0.4,-1.69 0.5,-2.44 0.21,-0.76 0.4,-1.63 0.58,-2.63 0.14,-0.96 0.35,-2.11 0.57,-3.41 0.21,-1.31 0.48,-2.95 0.81,-4.93l15.55 0 -2.63 13.59c2.63,-3.28 5.4,-5.87 8.33,-7.77 2.97,-1.91 5.83,-3.4 8.68,-4.49 2.83,-1.1 5.48,-1.8 7.93,-2.13 2.46,-0.34 4.5,-0.5 6.14,-0.5 4.34,0 8.46,0.8 12.34,2.37 3.87,1.58 7.03,4.09 9.49,7.52 2.44,3.44 4.07,7.83 4.9,13.17 0.81,5.34 0.4,11.82 -1.23,19.46 -1.64,7.64 -4.07,14.22 -7.28,19.79 -3.22,5.55 -6.93,10.13 -11.13,13.73 -4.18,3.61 -8.73,6.26 -13.63,7.93 -4.91,1.69 -9.82,2.52 -14.72,2.52 -6.01,0 -10.91,-1.13 -14.74,-3.42 -3.8,-2.29 -6.41,-5.25 -7.82,-8.83l-8.66 40.71 -15.23 0 21.25 -100.24z"/>
   <path class="fil0" d="M1822.02 732.27c0.67,-2.82 1.16,-5.64 1.55,-8.42 0.39,-2.78 0.81,-5.53 1.23,-8.27l15.55 0 -3.12 15.87c1.42,-2.83 3.05,-5.23 4.91,-7.19 1.84,-1.96 3.83,-3.57 5.95,-4.83 2.13,-1.25 4.27,-2.22 6.38,-2.86 2.14,-0.66 4.07,-1.09 5.81,-1.32 2.41,-0.32 4.47,-0.49 6.2,-0.49 1.74,0 3.26,0.06 4.59,0.17l-3.28 15.05c-0.65,-0.22 -1.6,-0.44 -2.78,-0.66 -0.56,-0.12 -1.21,-0.16 -1.96,-0.16l-2.45 0c-4.58,0 -8.45,0.62 -11.62,1.88 -3.17,1.26 -5.81,3.01 -7.94,5.24 -2.13,2.23 -3.8,4.88 -5.06,7.93 -1.26,3.06 -2.26,6.32 -3.02,9.8l-9.34 43.67 -15.53 0 13.89 -65.4z"/>
   <path class="fil0" d="M1934.02 748.62c0.44,-1.96 0.75,-4.34 0.99,-7.11 0.21,-2.79 -0.1,-5.41 -0.9,-7.93 -0.83,-2.5 -2.39,-4.65 -4.75,-6.46 -2.34,-1.8 -5.84,-2.69 -10.55,-2.69 -2.51,0 -5.16,0.41 -7.93,1.22 -2.77,0.82 -5.41,2.19 -7.92,4.09 -2.51,1.9 -4.8,4.38 -6.87,7.43 -2.07,3.07 -3.65,6.89 -4.72,11.46l42.66 0zm-45.63 10.79c-1.07,4.25 -1.57,8.18 -1.45,11.77 0.1,3.59 0.85,6.74 2.19,9.4 1.37,2.67 3.38,4.74 6.05,6.21 2.68,1.47 6.13,2.21 10.39,2.21 5.01,0 9.61,-1.36 13.81,-4.1 4.2,-2.72 7.23,-7.01 9.07,-12.92l15.38 0c-0.66,2.08 -1.69,4.68 -3.11,7.79 -1.41,3.09 -3.92,6.24 -7.51,9.39 -1.09,0.98 -2.53,2.12 -4.33,3.43 -1.8,1.31 -3.96,2.51 -6.47,3.59 -2.51,1.1 -5.39,2.03 -8.66,2.78 -3.28,0.77 -6.97,1.15 -11.12,1.15 -12.96,0 -21.77,-3.77 -26.41,-11.29 -4.64,-7.52 -5.6,-17.76 -2.85,-30.74 1.75,-8.06 4.41,-15.39 8.01,-21.99 3.58,-6.6 9.07,-12.13 16.5,-16.59 2.17,-1.42 4.42,-2.51 6.72,-3.27 2.28,-0.77 4.49,-1.36 6.6,-1.8 2.14,-0.43 4.08,-0.71 5.82,-0.81 1.73,-0.13 3.22,-0.18 4.43,-0.18 6.09,0 11.08,0.81 14.95,2.45 3.87,1.64 6.83,3.8 8.91,6.46 2.07,2.66 3.47,5.66 4.17,9 0.72,3.32 0.98,6.71 0.82,10.13 -0.17,3.43 -0.58,6.73 -1.23,9.91 -0.65,3.15 -1.19,5.82 -1.63,8l-59.04 0z"/>
   <path class="fil0" d="M1977.67 725.07l1.98 -9.49 15.36 0 -2.78 13.25c0.65,-0.88 1.69,-2.12 3.11,-3.76 1.42,-1.64 3.29,-3.27 5.64,-4.9 2.34,-1.65 5.24,-3.08 8.66,-4.34 3.44,-1.25 7.5,-1.88 12.18,-1.88 1.86,0 4.39,0.27 7.61,0.81 3.22,0.55 6.25,1.79 9.06,3.68 2.83,1.91 5.08,4.72 6.72,8.42 1.64,3.7 1.74,8.73 0.32,15.05l-11.77 55.75 -15.7 0 11.12 -52.15c0.56,-2.74 0.78,-5.3 0.75,-7.7 -0.06,-2.39 -0.81,-4.52 -2.23,-6.37 -1.52,-1.86 -3.49,-3.25 -5.88,-4.17 -2.41,-0.93 -4.9,-1.41 -7.52,-1.41 -2.84,0 -5.62,0.49 -8.41,1.48 -2.78,0.99 -5.39,2.52 -7.78,4.59 -2.4,2.07 -4.49,4.62 -6.28,7.66 -1.81,3.06 -3.19,6.65 -4.17,10.8l-9.99 47.26 -15.36 0 15.36 -72.6z"/>
   <path class="fil0" d="M2128.1 755.48c1.3,-5.99 1.73,-10.77 1.22,-14.3 -0.5,-3.55 -1.34,-6.4 -2.52,-8.58 -1.22,-2.19 -3.15,-4.11 -5.82,-5.82 -2.65,-1.67 -6.18,-2.53 -10.53,-2.53 -3.81,0 -7.14,0.68 -9.98,2.04 -2.85,1.36 -5.29,3.11 -7.35,5.24 -2.09,2.13 -3.86,4.47 -5.33,7.01 -1.46,2.58 -2.68,5.07 -3.67,7.52 -0.99,2.47 -1.72,4.7 -2.22,6.72 -0.48,2.01 -0.78,3.45 -0.9,4.34 -0.76,3.59 -1.24,7.28 -1.46,11.03 -0.21,3.76 0.17,7.14 1.13,10.13 0.98,3 2.76,5.47 5.32,7.37 2.56,1.9 6.18,2.87 10.87,2.87 5.98,0 10.96,-1.42 14.89,-4.25 3.92,-2.85 7.04,-6.12 9.31,-9.89 2.28,-3.77 3.95,-7.44 4.99,-11.04 1.02,-3.59 1.71,-6.21 2.04,-7.86zm15.52 -75.7l15.36 0 -22.22 104.81c-0.11,0.43 -0.24,1.16 -0.4,2.21 -0.17,1.04 -0.36,2.17 -0.57,3.43 -0.21,1.25 -0.44,2.53 -0.65,3.83 -0.24,1.32 -0.38,2.51 -0.51,3.61l-15.36 0 2.46 -13.07c-0.85,1.21 -1.97,2.55 -3.34,4.09 -1.37,1.52 -3.32,3.04 -5.82,4.57 -3.92,2.3 -7.79,3.86 -11.6,4.75 -3.82,0.87 -7.15,1.31 -9.98,1.31 -2.72,0 -6,-0.5 -9.81,-1.48 -3.81,-0.97 -7.28,-2.93 -10.38,-5.87 -3.11,-2.95 -5.43,-7.14 -6.94,-12.61 -1.54,-5.44 -1.33,-12.69 0.65,-21.73 1.63,-7.85 4.07,-14.59 7.36,-20.2 3.26,-5.61 7.01,-10.24 11.27,-13.88 4.25,-3.66 8.77,-6.35 13.57,-8.11 4.8,-1.74 9.61,-2.61 14.4,-2.61 4.36,0 7.95,0.56 10.79,1.71 2.84,1.15 5.06,2.47 6.71,3.99 1.62,1.53 2.8,3.06 3.51,4.58 0.71,1.53 1.23,2.73 1.55,3.6l9.96 -46.92z"/>
   <path class="fil0" d="M2185.16 679.96l18.47 0 -3.61 16.84 -18.47 0 3.6 -16.84zm-5.88 35.63l15.36 0 -17.49 82.09 -15.38 0 17.51 -82.09z"/>
   <polygon class="fil0" points="2201.02,781.81 2256.44,727.21 2214.9,727.21 2217.35,715.59 2276.4,715.59 2273.62,728.67 2216.22,785.74 2261.5,785.74 2258.9,797.68 2197.58,797.68 "/>
   <path class="fil0" d="M2336.39 757.78c-1.42,-0.23 -2.77,-0.35 -4.01,-0.41 -1.26,-0.05 -2.82,-0.08 -4.66,-0.08 -1.55,0 -3.96,0.08 -7.29,0.24 -3.31,0.17 -6.77,0.78 -10.29,1.8 -3.53,1.04 -6.83,2.71 -9.81,4.99 -3.01,2.29 -4.93,5.5 -5.81,9.64 -0.31,1.32 -0.4,2.79 -0.24,4.43 0.17,1.63 0.71,3.17 1.63,4.67 0.93,1.47 2.38,2.69 4.36,3.66 1.94,0.98 4.67,1.48 8.15,1.48 7.87,0 14.36,-2.94 19.46,-8.83 1.21,-1.42 2.19,-2.78 2.95,-4.08 0.74,-1.32 1.42,-2.78 1.96,-4.42 0.54,-1.63 1.1,-3.52 1.63,-5.65 0.55,-2.1 1.21,-4.61 1.97,-7.43zm-6.72 39.9c-0.11,-2.07 -0.05,-4.09 0.17,-6.05 0.22,-1.96 0.54,-4.03 0.99,-6.21 -2.62,3.36 -5.22,6.06 -7.86,8 -2.61,1.96 -5.18,3.47 -7.69,4.51 -2.5,1.03 -4.84,1.69 -7.01,1.96 -2.19,0.27 -4.17,0.42 -5.91,0.42 -4.68,0 -8.72,-0.64 -12.09,-1.89 -3.38,-1.25 -6.04,-2.98 -8.01,-5.16 -1.96,-2.17 -3.26,-4.72 -3.94,-7.68 -0.64,-2.96 -0.59,-6.1 0.18,-9.48 0.33,-1.64 0.9,-3.49 1.72,-5.56 0.81,-2.07 1.97,-4.17 3.52,-6.3 1.54,-2.11 3.42,-4.23 5.72,-6.36 2.27,-2.13 5.13,-4.06 8.49,-5.82 2.51,-1.19 5.12,-2.15 7.87,-2.86 2.72,-0.71 5.44,-1.25 8.16,-1.64 2.72,-0.38 5.26,-0.63 7.61,-0.74 2.34,-0.1 4.34,-0.15 5.97,-0.15 1.94,0 3.7,0.04 5.22,0.09 1.53,0.04 3.49,0.18 5.89,0.41 0.55,-2.51 0.97,-4.73 1.29,-6.62 0.36,-1.91 0.57,-3.54 0.67,-4.93 0.1,-1.35 0.1,-2.58 0,-3.66 -0.11,-1.1 -0.48,-2.06 -1.15,-2.96 -1.08,-2.07 -3,-3.49 -5.72,-4.23 -2.73,-0.78 -5.18,-1.15 -7.36,-1.15 -3.92,0 -7.09,0.58 -9.48,1.71 -2.41,1.15 -4.31,2.48 -5.73,4.01 -1.4,1.53 -2.42,3.09 -3.03,4.67 -0.59,1.57 -1,2.74 -1.23,3.51l-15.37 0c0.67,-2.18 1.6,-4.61 2.79,-7.28 1.2,-2.67 3.26,-5.42 6.24,-8.25 1.94,-1.74 4.14,-3.2 6.53,-4.33 2.4,-1.15 4.85,-2.06 7.36,-2.71 2.49,-0.66 5.01,-1.11 7.51,-1.38 2.51,-0.28 4.86,-0.43 7.03,-0.43 2.94,0 5.87,0.26 8.75,0.75 2.9,0.49 5.53,1.23 7.94,2.22 2.4,0.98 4.47,2.23 6.21,3.74 1.74,1.52 2.94,3.33 3.59,5.41 0.77,2.51 1.06,4.76 0.91,6.77 -0.17,2.02 -0.43,3.96 -0.75,5.82l-8.99 39.24c-0.11,0.33 -0.27,1.21 -0.48,2.61 -0.23,1.42 -0.51,3.11 -0.89,5.07 -0.39,1.96 -0.75,4.1 -1.08,6.4 -0.33,2.27 -0.54,4.47 -0.66,6.53l-13.9 0z"/>
   <path class="fil0" d="M2405.87 784.75c4.58,0 8.43,-0.74 11.54,-2.2 3.1,-1.47 5.81,-3.46 8.09,-5.96 1.09,-1.09 2.08,-2.25 3.03,-3.44 0.92,-1.2 1.81,-2.67 2.7,-4.41 0.86,-1.75 1.7,-3.87 2.53,-6.38 0.8,-2.51 1.61,-5.61 2.36,-9.32 1.09,-5.24 1.41,-9.4 0.99,-12.5 -0.44,-3.11 -1.46,-5.76 -3.03,-7.93 -1.59,-2.19 -3.8,-3.93 -6.62,-5.24 -2.85,-1.31 -6.01,-1.96 -9.47,-1.96 -4.91,0 -9.07,1.09 -12.44,3.27 -3.38,2.18 -6.16,4.82 -8.35,7.93 -2.17,3.09 -3.87,6.39 -5.06,9.8 -1.21,3.44 -2.07,6.46 -2.62,9.08 -0.65,3.16 -1.05,6.48 -1.24,9.91 -0.15,3.43 0.27,6.59 1.31,9.48 1.03,2.9 2.83,5.26 5.4,7.11 2.57,1.86 6.19,2.78 10.86,2.78zm-21.9 19.3c-0.44,2.29 -0.51,4.43 -0.25,6.39 0.29,1.95 1,3.65 2.12,5.07 1.16,1.4 2.85,2.52 5.09,3.33 2.22,0.83 5.14,1.25 8.74,1.25 5.35,0 9.67,-0.92 13,-2.8 3.33,-1.84 6.01,-4.43 8.1,-7.76 2.07,-3.32 3.72,-7.3 4.99,-11.93 1.24,-4.63 2.47,-9.73 3.67,-15.3 -2.4,3.38 -5.09,6 -8.01,7.84 -2.95,1.86 -5.85,3.26 -8.66,4.17 -2.84,0.92 -5.46,1.48 -7.87,1.63 -2.38,0.17 -4.18,0.24 -5.38,0.24 -1.85,0 -3.86,-0.13 -6.06,-0.4 -2.18,-0.27 -4.31,-0.77 -6.39,-1.48 -2.07,-0.7 -4.02,-1.71 -5.87,-3.02 -1.86,-1.31 -3.44,-3.05 -4.74,-5.23 -2.63,-4.12 -4.04,-8.83 -4.27,-14.07 -0.2,-5.23 0.23,-10.62 1.31,-16.18 1.54,-6.97 3.8,-13.06 6.8,-18.23 3,-5.17 6.53,-9.48 10.63,-12.91 4.08,-3.45 8.5,-6.01 13.24,-7.68 4.73,-1.69 9.62,-2.54 14.63,-2.54 4.15,0 7.56,0.44 10.31,1.31 2.72,0.88 4.95,1.96 6.69,3.28 1.74,1.29 3.06,2.67 3.94,4.08 0.88,1.42 1.63,2.68 2.3,3.76l2.61 -11.3 14.86 0 -3.58 14.89 -10.97 51.35c-1.08,4.9 -2.06,9.16 -2.92,12.76 -0.9,3.59 -1.73,6.69 -2.54,9.32 -0.81,2.61 -1.72,4.87 -2.7,6.78 -1,1.91 -2.04,3.62 -3.11,5.15 -2.41,3.27 -5.19,5.89 -8.35,7.85 -3.16,1.95 -6.37,3.44 -9.65,4.4 -3.27,0.99 -6.59,1.64 -9.96,1.97 -3.41,0.34 -6.51,0.48 -9.32,0.48 -5.46,0 -9.99,-0.39 -13.66,-1.21 -3.65,-0.83 -6.56,-1.89 -8.75,-3.19 -2.18,-1.31 -3.79,-2.86 -4.83,-4.66 -1.03,-1.79 -1.74,-3.68 -2.12,-5.64 -0.38,-1.96 -0.46,-3.95 -0.25,-5.96 0.23,-2.02 0.5,-3.95 0.81,-5.81l16.36 0z"/>
   <path class="fil0" d="M2533.57 748.62c0.44,-1.96 0.75,-4.34 0.99,-7.11 0.22,-2.79 -0.1,-5.41 -0.9,-7.93 -0.83,-2.5 -2.4,-4.65 -4.75,-6.46 -2.35,-1.8 -5.85,-2.69 -10.56,-2.69 -2.51,0 -5.15,0.41 -7.92,1.22 -2.78,0.82 -5.42,2.19 -7.93,4.09 -2.5,1.9 -4.8,4.38 -6.87,7.43 -2.07,3.07 -3.65,6.89 -4.74,11.46l42.67 0zm-45.63 10.79c-1.07,4.25 -1.57,8.18 -1.45,11.77 0.1,3.59 0.84,6.74 2.19,9.4 1.37,2.67 3.38,4.74 6.05,6.21 2.67,1.47 6.12,2.21 10.37,2.21 5.02,0 9.63,-1.36 13.82,-4.1 4.2,-2.72 7.23,-7.01 9.06,-12.92l15.38 0c-0.65,2.08 -1.69,4.68 -3.11,7.79 -1.41,3.09 -3.92,6.24 -7.51,9.39 -1.09,0.98 -2.52,2.12 -4.32,3.43 -1.81,1.31 -3.96,2.51 -6.47,3.59 -2.5,1.1 -5.41,2.03 -8.67,2.78 -3.27,0.77 -6.97,1.15 -11.11,1.15 -12.98,0 -21.78,-3.77 -26.41,-11.29 -4.63,-7.52 -5.6,-17.76 -2.86,-30.74 1.74,-8.06 4.41,-15.39 8.02,-21.99 3.59,-6.6 9.08,-12.13 16.49,-16.59 2.18,-1.42 4.43,-2.51 6.72,-3.27 2.28,-0.77 4.49,-1.36 6.6,-1.8 2.13,-0.43 4.07,-0.71 5.81,-0.81 1.74,-0.13 3.22,-0.18 4.44,-0.18 6.09,0 11.08,0.81 14.94,2.45 3.88,1.64 6.85,3.8 8.91,6.46 2.07,2.66 3.48,5.66 4.18,9 0.71,3.32 0.98,6.71 0.81,10.13 -0.16,3.43 -0.58,6.73 -1.23,9.91 -0.65,3.15 -1.19,5.82 -1.63,8l-59.04 0z"/>
   <path class="fil0" d="M2576.24 726.55l2.13 -10.97 15.53 0 -2.61 11.95c2.72,-3.27 5.42,-5.83 8.08,-7.68 2.66,-1.86 5.25,-3.26 7.76,-4.17 2.52,-0.93 4.89,-1.53 7.12,-1.8 2.23,-0.27 4.23,-0.41 5.97,-0.41 4.58,0 8.29,0.53 11.13,1.56 2.83,1.04 5.12,2.3 6.85,3.84 1.75,1.53 3,3.19 3.75,4.98 0.78,1.8 1.37,3.46 1.81,4.99 0.98,-1.08 2.28,-2.51 3.93,-4.24 1.63,-1.75 3.7,-3.44 6.21,-5.08 2.51,-1.64 5.44,-3.05 8.84,-4.26 3.37,-1.2 7.33,-1.79 11.92,-1.79 2.96,0 6.08,0.38 9.41,1.14 3.32,0.77 6.29,2.21 8.92,4.34 2.61,2.13 4.52,5.1 5.7,8.91 1.22,3.8 1.22,8.71 0,14.71l-11.76 55.11 -15.53 0 11.11 -52.66c0.76,-3.59 1.06,-6.3 0.89,-8.08 -0.17,-1.8 -0.46,-3.24 -0.89,-4.33 -0.97,-1.85 -2.63,-3.52 -4.91,-4.99 -2.3,-1.47 -5.41,-2.21 -9.31,-2.21 -2.51,0 -4.82,0.33 -6.89,0.97 -2.07,0.67 -3.9,1.43 -5.55,2.3 -1.63,0.88 -3.01,1.79 -4.16,2.78 -1.16,0.98 -2.04,1.86 -2.71,2.62 -1.19,1.31 -2.19,2.77 -3.03,4.42 -0.81,1.63 -1.52,3.3 -2.11,4.97 -0.61,1.71 -1.09,3.27 -1.47,4.76 -0.38,1.47 -0.63,2.63 -0.74,3.51l-9.81 45.95 -15.52 0 11.61 -54.29c1.06,-5.12 0.52,-9.41 -1.73,-12.84 -2.25,-3.44 -6.41,-5.15 -12.52,-5.15 -2.59,0 -5,0.36 -7.18,1.06 -2.18,0.71 -4.12,1.55 -5.8,2.52 -1.69,0.98 -3.12,1.97 -4.26,2.95 -1.13,0.99 -2.04,1.8 -2.69,2.46 -2.18,2.4 -3.75,5.12 -4.74,8.17 -1,3.07 -1.75,5.9 -2.3,8.5l-9.96 46.61 -15.55 0 15.04 -71.13z"/>
   <polygon class="fil0" points="2786.18,679.62 2802.53,679.62 2777.53,797.68 2761.17,797.68 "/>
   <path class="fil0" d="M2822.46 725.07l1.98 -9.49 15.35 0 -2.78 13.25c0.65,-0.88 1.69,-2.12 3.11,-3.76 1.42,-1.64 3.3,-3.27 5.64,-4.9 2.34,-1.65 5.24,-3.08 8.67,-4.34 3.43,-1.25 7.49,-1.88 12.18,-1.88 1.84,0 4.38,0.27 7.6,0.81 3.22,0.55 6.26,1.79 9.08,3.68 2.83,1.91 5.07,4.72 6.7,8.42 1.65,3.7 1.75,8.73 0.32,15.05l-11.77 55.75 -15.7 0 11.13 -52.15c0.54,-2.74 0.78,-5.3 0.75,-7.7 -0.06,-2.39 -0.81,-4.52 -2.23,-6.37 -1.52,-1.86 -3.49,-3.25 -5.87,-4.17 -2.41,-0.93 -4.92,-1.41 -7.52,-1.41 -2.84,0 -5.63,0.49 -8.41,1.48 -2.77,0.99 -5.39,2.52 -7.79,4.59 -2.39,2.07 -4.48,4.62 -6.28,7.66 -1.8,3.06 -3.18,6.65 -4.16,10.8l-9.98 47.26 -15.37 0 15.37 -72.6z"/>
   <path class="fil0" d="M2972.88 755.48c1.31,-5.99 1.73,-10.77 1.23,-14.3 -0.48,-3.55 -1.34,-6.4 -2.51,-8.58 -1.22,-2.19 -3.16,-4.11 -5.81,-5.82 -2.67,-1.67 -6.2,-2.53 -10.56,-2.53 -3.81,0 -7.14,0.68 -9.98,2.04 -2.84,1.36 -5.27,3.11 -7.34,5.24 -2.08,2.13 -3.85,4.47 -5.32,7.01 -1.46,2.58 -2.69,5.07 -3.69,7.52 -0.98,2.47 -1.69,4.7 -2.21,6.72 -0.47,2.01 -0.78,3.45 -0.9,4.34 -0.76,3.59 -1.24,7.28 -1.45,11.03 -0.23,3.76 0.15,7.14 1.12,10.13 0.98,3 2.76,5.47 5.31,7.37 2.57,1.9 6.19,2.87 10.89,2.87 5.97,0 10.94,-1.42 14.88,-4.25 3.92,-2.85 7.02,-6.12 9.3,-9.89 2.31,-3.77 3.95,-7.44 4.99,-11.04 1.03,-3.59 1.73,-6.21 2.04,-7.86zm15.53 -75.7l15.38 0 -22.24 104.81c-0.11,0.43 -0.24,1.16 -0.4,2.21 -0.18,1.04 -0.35,2.17 -0.58,3.43 -0.21,1.25 -0.44,2.53 -0.64,3.83 -0.22,1.32 -0.38,2.51 -0.49,3.61l-15.38 0 2.46 -13.07c-0.86,1.21 -1.98,2.55 -3.34,4.09 -1.38,1.52 -3.31,3.04 -5.81,4.57 -3.93,2.3 -7.8,3.86 -11.61,4.75 -3.81,0.87 -7.15,1.31 -9.96,1.31 -2.74,0 -6,-0.5 -9.82,-1.48 -3.81,-0.97 -7.28,-2.93 -10.38,-5.87 -3.11,-2.95 -5.43,-7.14 -6.95,-12.61 -1.53,-5.44 -1.32,-12.69 0.67,-21.73 1.61,-7.85 4.07,-14.59 7.35,-20.2 3.26,-5.61 7.02,-10.24 11.27,-13.88 4.25,-3.66 8.77,-6.35 13.56,-8.11 4.8,-1.74 9.61,-2.61 14.4,-2.61 4.36,0 7.95,0.56 10.79,1.71 2.84,1.15 5.06,2.47 6.72,3.99 1.63,1.53 2.79,3.06 3.51,4.58 0.71,1.53 1.23,2.73 1.55,3.6l9.96 -46.92z"/>
   <path class="fil0" d="M3037.97 715.59l-11.29 52.84c-0.42,1.96 -0.7,4.03 -0.81,6.2 -0.13,2.17 0.27,4.15 1.15,5.89 0.86,1.74 2.3,3.19 4.34,4.33 2.02,1.15 4.99,1.73 8.9,1.73 3.82,0 7.6,-0.73 11.36,-2.13 3.77,-1.42 7.06,-3.76 9.89,-7.04 2.3,-2.5 3.87,-5.18 4.75,-8.01 0.86,-2.83 1.52,-5.28 1.95,-7.35l9.99 -46.45 15.84 0 -14.21 66.71c-0.11,0.44 -0.27,1.26 -0.5,2.46 -0.21,1.19 -0.42,2.56 -0.65,4.08 -0.2,1.53 -0.48,3.11 -0.81,4.75 -0.35,1.64 -0.61,2.99 -0.83,4.08l-16.02 0 2.62 -14.05c-0.98,1.4 -2.23,3 -3.76,4.72 -1.54,1.75 -3.43,3.36 -5.72,4.83 -2.3,1.48 -5.08,2.74 -8.34,3.76 -3.27,1.05 -7.09,1.55 -11.46,1.55 -5.12,0 -9.4,-0.68 -12.82,-2.05 -3.43,-1.36 -6.11,-3.27 -8.01,-5.72 -1.92,-2.45 -3.1,-5.4 -3.6,-8.83 -0.5,-3.44 -0.31,-7.17 0.57,-11.2l11.78 -55.11 15.7 0z"/>
   <path class="fil0" d="M3120.36 773.31c-0.32,1.53 -0.45,3.17 -0.4,4.9 0.06,1.75 0.6,3.35 1.63,4.83 1.04,1.47 2.62,2.71 4.75,3.68 2.13,0.98 5.05,1.47 8.75,1.47 3.16,0 6.01,-0.35 8.58,-1.06 2.56,-0.72 4.88,-2.11 6.94,-4.17 2.31,-2.28 3.72,-4.84 4.26,-7.68 0.45,-1.97 0.45,-3.6 0,-4.9 -0.43,-1.33 -1.29,-2.4 -2.59,-3.2 -1.31,-0.81 -3.04,-1.55 -5.16,-2.21 -2.13,-0.65 -4.66,-1.31 -7.61,-1.96 -4.03,-0.98 -7.89,-2.02 -11.53,-3.11 -3.67,-1.09 -6.7,-2.51 -9.15,-4.24 -2.46,-1.75 -4.22,-4 -5.32,-6.71 -1.08,-2.73 -1.19,-6.22 -0.31,-10.48 0.76,-3.71 2.25,-7.1 4.5,-10.21 2.23,-3.11 4.99,-5.73 8.24,-7.84 3.27,-2.13 6.97,-3.78 11.11,-5 4.14,-1.19 8.62,-1.79 13.43,-1.79 2.6,0 5.36,0.21 8.25,0.65 2.88,0.44 5.58,1.14 8.1,2.12 2.51,0.99 4.71,2.3 6.61,3.93 1.91,1.65 3.26,3.66 4.01,6.05 0.55,2.28 0.7,4.42 0.49,6.38 -0.21,1.97 -0.54,3.81 -0.98,5.56l-15.69 0c0.77,-3.04 0.79,-5.49 0.08,-7.28 -0.71,-1.8 -1.81,-3.17 -3.25,-4.1 -1.48,-0.92 -3.11,-1.49 -4.91,-1.71 -1.8,-0.21 -3.41,-0.32 -4.83,-0.32 -0.54,0 -1.75,0.06 -3.6,0.15 -1.85,0.12 -3.84,0.55 -5.97,1.32 -2.12,0.75 -4.11,1.93 -5.95,3.51 -1.86,1.58 -3.11,3.85 -3.77,6.79 -0.33,1.86 -0.22,3.42 0.32,4.67 0.56,1.25 1.33,2.26 2.38,3.03 1.03,0.77 2.14,1.33 3.36,1.7 1.2,0.4 2.34,0.75 3.43,1.07 5.34,1.32 9.76,2.44 13.24,3.36 3.5,0.93 6.32,1.8 8.42,2.62 2.12,0.81 3.81,1.62 5.07,2.45 1.25,0.81 2.38,1.76 3.36,2.86 1.83,2.18 2.92,4.61 3.26,7.29 0.32,2.66 0.23,5.31 -0.34,7.92 -0.96,4.58 -2.92,8.72 -5.88,12.44 -2.92,3.7 -6.14,6.48 -9.64,8.34 -4.04,2.17 -8.22,3.65 -12.6,4.4 -4.34,0.77 -8.66,1.15 -12.91,1.15 -4.15,0 -8.03,-0.46 -11.69,-1.38 -3.64,-0.94 -6.74,-2.44 -9.32,-4.51 -2.57,-2.07 -4.35,-4.81 -5.39,-8.25 -1.05,-3.44 -1,-7.61 0.08,-12.51l16.18 0z"/>
   <path class="fil0" d="M3192.97 715.26l14.54 0 3.6 -17.15 16.36 -4.91 -4.75 22.06 18.31 0 -2.45 11.29 -18.31 0 -10.46 49.21c-0.1,0.98 -0.27,2.13 -0.49,3.44 -0.24,1.3 -0.09,2.5 0.4,3.59 0.5,1.09 1.38,2.02 2.7,2.76 1.3,0.77 3.31,1.15 6.05,1.15 1.53,0 3,-0.09 4.42,-0.25 1.43,-0.15 2.44,-0.34 3.1,-0.56l-2.45 11.92c-1.54,0.23 -3.34,0.44 -5.47,0.66 -2.13,0.23 -4.62,0.32 -7.45,0.32 -7.08,0 -12.08,-1.21 -14.97,-3.67 -2.88,-2.46 -3.62,-7.07 -2.2,-13.81l11.61 -54.78 -14.55 0 2.46 -11.29z"/>
   <path class="fil0" d="M3257.22 732.27c0.67,-2.82 1.16,-5.64 1.54,-8.42 0.39,-2.78 0.82,-5.53 1.25,-8.27l15.52 0 -3.09 15.87c1.42,-2.83 3.05,-5.23 4.91,-7.19 1.83,-1.96 3.83,-3.57 5.96,-4.83 2.13,-1.25 4.25,-2.22 6.38,-2.86 2.13,-0.66 4.05,-1.09 5.8,-1.32 2.4,-0.32 4.47,-0.49 6.21,-0.49 1.74,0 3.26,0.06 4.59,0.17l-3.29 15.05c-0.65,-0.22 -1.59,-0.44 -2.78,-0.66 -0.56,-0.12 -1.2,-0.16 -1.95,-0.16l-2.46 0c-4.57,0 -8.45,0.62 -11.59,1.88 -3.18,1.26 -5.82,3.01 -7.95,5.24 -2.13,2.23 -3.82,4.88 -5.06,7.93 -1.27,3.06 -2.27,6.32 -3.03,9.8l-9.32 43.67 -15.53 0 13.9 -65.4z"/>
   <path class="fil0" d="M3329.64 679.96l18.48 0 -3.6 16.84 -18.47 0 3.6 -16.84zm-5.88 35.63l15.36 0 -17.49 82.09 -15.38 0 17.51 -82.09z"/>
   <path class="fil0" d="M3408.29 757.78c-1.42,-0.23 -2.76,-0.35 -4.01,-0.41 -1.26,-0.05 -2.81,-0.08 -4.66,-0.08 -1.53,0 -3.96,0.08 -7.28,0.24 -3.31,0.17 -6.77,0.78 -10.3,1.8 -3.54,1.04 -6.82,2.71 -9.81,4.99 -3,2.29 -4.94,5.5 -5.81,9.64 -0.31,1.32 -0.4,2.79 -0.24,4.43 0.17,1.63 0.71,3.17 1.63,4.67 0.92,1.47 2.36,2.69 4.34,3.66 1.95,0.98 4.68,1.48 8.16,1.48 7.87,0 14.35,-2.94 19.46,-8.83 1.21,-1.42 2.19,-2.78 2.95,-4.08 0.74,-1.32 1.42,-2.78 1.96,-4.42 0.55,-1.63 1.09,-3.52 1.63,-5.65 0.56,-2.1 1.22,-4.61 1.98,-7.43zm-6.7 39.9c-0.12,-2.07 -0.06,-4.09 0.16,-6.05 0.23,-1.96 0.54,-4.03 0.98,-6.21 -2.62,3.36 -5.23,6.06 -7.85,8 -2.61,1.96 -5.19,3.47 -7.7,4.51 -2.5,1.03 -4.83,1.69 -7.01,1.96 -2.17,0.27 -4.15,0.42 -5.9,0.42 -4.68,0 -8.73,-0.64 -12.09,-1.89 -3.38,-1.25 -6.05,-2.98 -8.01,-5.16 -1.97,-2.17 -3.27,-4.72 -3.94,-7.68 -0.64,-2.96 -0.58,-6.1 0.18,-9.48 0.32,-1.64 0.9,-3.49 1.72,-5.56 0.81,-2.07 1.97,-4.17 3.52,-6.3 1.53,-2.11 3.42,-4.23 5.72,-6.36 2.27,-2.13 5.12,-4.06 8.49,-5.82 2.51,-1.19 5.11,-2.15 7.87,-2.86 2.71,-0.71 5.44,-1.25 8.16,-1.64 2.74,-0.38 5.25,-0.63 7.61,-0.74 2.34,-0.1 4.34,-0.15 5.96,-0.15 1.95,0 3.7,0.04 5.23,0.09 1.54,0.04 3.5,0.18 5.89,0.41 0.55,-2.51 0.98,-4.73 1.29,-6.62 0.36,-1.91 0.57,-3.54 0.67,-4.93 0.1,-1.35 0.1,-2.58 0,-3.66 -0.11,-1.1 -0.49,-2.06 -1.15,-2.96 -1.09,-2.07 -3,-3.49 -5.72,-4.23 -2.73,-0.78 -5.18,-1.15 -7.36,-1.15 -3.91,0 -7.09,0.58 -9.47,1.71 -2.41,1.15 -4.31,2.48 -5.73,4.01 -1.41,1.53 -2.43,3.09 -3.02,4.67 -0.61,1.57 -1,2.74 -1.23,3.51l-15.38 0c0.68,-2.18 1.6,-4.61 2.78,-7.28 1.21,-2.67 3.28,-5.42 6.23,-8.25 1.95,-1.74 4.15,-3.2 6.53,-4.33 2.4,-1.15 4.85,-2.06 7.37,-2.71 2.49,-0.66 5,-1.11 7.5,-1.38 2.51,-0.28 4.86,-0.43 7.04,-0.43 2.94,0 5.86,0.26 8.75,0.75 2.89,0.49 5.54,1.23 7.92,2.22 2.41,0.98 4.47,2.23 6.21,3.74 1.76,1.52 2.95,3.33 3.62,5.41 0.76,2.51 1.04,4.76 0.9,6.77 -0.17,2.02 -0.42,3.96 -0.75,5.82l-8.98 39.24c-0.12,0.33 -0.27,1.21 -0.49,2.61 -0.23,1.42 -0.51,3.11 -0.89,5.07 -0.38,1.96 -0.74,4.1 -1.08,6.4 -0.33,2.27 -0.54,4.47 -0.66,6.53l-13.88 0z"/>
   <polygon class="fil0" points="3467.8,679.79 3483.18,679.79 3458.16,797.67 3442.78,797.67 "/>
   <polygon class="fil0" points="2291.76,163.65 2254.78,232.21 2200.14,333.47 2254.78,333.47 2309.4,333.47 2293.48,163.65 "/>
   <path class="fil0" d="M2865.18 99.01l-120.69 0 0 -15.14 120.69 0 0 15.14zm0 96.68l-120.69 0 0 -15.16 120.69 0 0 15.16zm0 99.2l-120.69 0 0 -15.14 120.69 0 0 15.14zm0 100.58l-120.69 0 0 -15.15 120.69 0 0 15.15zm0 96.96l-120.69 0 0 -15.15 120.69 0 0 15.15zm-250.46 0.1l-113.22 0 86.91 -408.7 113.2 0 -86.89 408.7zm-284.18 0l-10.19 -79.83 -65.57 0 -100.28 0 -43.61 79.83 -90.7 0 -22.51 0 22.51 -37.06 225.7 -371.64 8.88 0 129.26 0 74.43 408.7 -127.93 0zm-531.55 0l-72.16 -313.05 -1.13 0 -66.51 313.05 -90.43 0 -11.46 0 11.46 -53.91 75.42 -354.79 158.49 0 72.3 304.54 1.31 -1.14 64.52 -303.39 79.4 0 22.5 0 -22.5 105.84 -64.41 302.86 -156.8 0zm-286.23 -165.88l-182.29 0 -18.4 86.62 198.12 0 -16.88 79.26 -311.34 0 86.9 -408.7 299.9 0 11.46 0 -11.46 53.79 -5.43 25.43 -198.14 0 -17.94 84.36 182.31 0 -16.81 79.23zm-346.91 -122.83l-113.24 0c3.88,-15.85 1.33,-27.76 -7.05,-36.23 -7.85,-8.48 -21.63,-13.02 -40.86,-13.02 -26.04,0 -52.28,16.98 -56.6,37.35 -6.33,30.03 27.81,39.64 56.13,47.57 64.8,17.56 162.95,24.33 139.52,134.7 -18.3,86.07 -111.89,126.9 -206.4,126.9 -95.11,0 -173.05,-27.82 -151.18,-138.78l113.23 0c-8.68,38.49 15.1,59.45 55.86,59.45 26.14,0 62.37,-13.59 68.12,-40.76 11.81,-55.48 -74.53,-43.61 -155.08,-82.65 -37.48,-18.12 -49.82,-55.49 -40.51,-99.62 25.09,-96.8 115.67,-123.39 201.15,-123.39 84.37,0 164.55,29.98 136.92,128.48zm-547.89 -203.83l0 83.87 120.68 0 0 15.14 -120.68 0 0 81.52 120.68 0 0 15.16 -120.68 0 0 84.06 120.68 0 0 15.15 -120.68 0 0 85.41 120.68 0 0 15.17 -120.68 0 0 81.8 120.68 0 0 15.16 -120.68 0 0 83.07 2247.26 0 0 -575.51 -2247.26 0z"/>
   <path class="fil0" d="M675.86 998.85l12.9 0c2.67,0.2 5,-0.01 7.01,-0.61 2.03,-0.61 3.72,-1.49 5.08,-2.69 1.39,-1.27 2.42,-2.67 3.1,-4.18 0.68,-1.52 1.02,-3.23 1.02,-5.16 0,-2.1 -0.41,-3.94 -1.29,-5.49 -0.86,-1.57 -2.16,-2.8 -3.91,-3.71 -1.73,-0.92 -3.73,-1.6 -5.9,-2.07 -2.21,-0.46 -4.65,-0.69 -7.28,-0.69l-10.73 -0.27 0 24.85zm20.47 -44.23c6.77,0.17 12.6,0.93 17.45,2.25 4.84,1.34 8.74,3.33 11.66,5.98 2.94,2.56 5.14,5.82 6.62,9.75 1.46,3.95 2.18,8.48 2.18,13.61 0,5.31 -0.72,9.9 -2.18,13.74 -1.47,3.85 -3.67,6.97 -6.62,9.35 -2.83,2.28 -5.87,4.16 -9.12,5.62 -3.25,1.48 -6.64,2.49 -10.1,3.02 -0.72,0.08 -1.47,0.21 -2.21,0.34 -0.72,0.15 -1.46,0.21 -2.21,0.21 -0.72,0.09 -1.44,0.13 -2.17,0.13l-2.21 0 -21.56 -0.27 0 35.72 -28.18 0 0 -99.47 48.65 0z"/>
   <polygon class="fil0" points="821.79,954.61 821.79,975.1 774.23,975.1 774.23,994.59 818.63,994.59 818.63,1015.2 774.23,1015.2 774.23,1034.57 821.79,1034.57 821.79,1054.09 746.07,1054.09 746.07,954.61 "/>
   <polygon class="fil0" points="866.16,954.61 866.16,1033.48 910.55,1033.48 910.55,1054.09 838,1054.09 838,954.61 "/>
   <path class="fil0" d="M949.78 1016.23c0.96,3.71 2.4,7.27 4.34,10.65 1.91,3.39 4.38,5.94 7.41,7.63 3.02,1.69 6.53,2.54 10.57,2.54 3.47,0 6.58,-0.66 9.29,-2 2.68,-1.31 4.97,-3.36 6.78,-6.11 1.85,-2.66 3.25,-6.02 4.2,-10.09 0.95,-4.07 1.42,-8.81 1.42,-14.22 0,-4.31 -0.42,-8.36 -1.29,-12.15 -0.86,-3.81 -2.22,-7.31 -4.05,-10.53 -1.74,-3.21 -4.07,-5.63 -7.01,-7.28 -2.92,-1.64 -6.4,-2.47 -10.44,-2.47 -4.02,0 -7.46,0.85 -10.29,2.53 -2.86,1.71 -5.1,4.24 -6.76,7.63 -1.63,3.41 -2.92,6.95 -3.83,10.64 -0.92,3.71 -1.53,7.6 -1.8,11.63l0 -0.28c0,4.21 0.5,8.17 1.45,11.88zm-27.61 -29.87c1.78,-6.06 4.33,-11.82 7.62,-17.34 3.3,-5.39 8.48,-9.47 15.53,-12.23 7.06,-2.73 15.98,-4.11 26.79,-4.11l0.41 0 0.43 0 0.34 0 0.34 0 0.41 0 0.42 0 0.33 0 0.35 0c5.97,0.28 11.69,1.34 17.18,3.16 5.49,1.84 10.73,4.5 15.68,7.97 4.93,3.48 8.66,8.63 11.19,15.45 2.51,6.83 3.77,15.26 3.77,25.36 0,1.37 -0.02,2.73 -0.08,4.13 -0.03,1.36 -0.14,2.78 -0.33,4.24 -0.08,0.74 -0.18,1.47 -0.29,2.2 -0.1,0.73 -0.17,1.46 -0.27,2.21 -0.19,0.82 -0.34,1.6 -0.48,2.32 -0.13,0.74 -0.31,1.47 -0.48,2.21 -1.11,4.39 -2.81,8.56 -5.15,12.5 -2.34,3.95 -5.26,7.7 -8.72,11.26 -3.49,3.58 -8.05,6.25 -13.69,7.99 -5.63,1.73 -12.37,2.6 -20.25,2.6 -10.46,0 -19.15,-1.2 -26.11,-3.64 -6.96,-2.44 -12.23,-6.11 -15.8,-11.06 -3.59,-4.95 -6.38,-10.14 -8.39,-15.58 -2.02,-5.45 -3.24,-11.21 -3.72,-17.24l0 -0.3 0 -0.4c-0.08,-0.09 -0.12,-0.21 -0.12,-0.35l0 -0.36 0 -0.81 0 -0.82 0 -0.28c0.27,-6.68 1.29,-13.04 3.09,-19.08z"/>
   <polygon class="fil0" points="1152.94,954.61 1152.94,975.1 1110.75,975.1 1110.75,997.89 1149.64,997.89 1149.64,1017.27 1110.75,1017.27 1110.75,1054.09 1082.59,1054.09 1082.59,954.61 "/>
   <path class="fil0" d="M1196.23 954.61l0 58.4c0,3.66 0.37,6.93 1.09,9.81 0.73,2.9 1.83,5.44 3.29,7.64 1.57,2.19 3.58,3.85 6.05,4.95 2.48,1.11 5.46,1.66 8.93,1.66 4.05,0 7.42,-0.55 10.18,-1.66 2.74,-1.09 4.81,-2.79 6.18,-5.07 1.36,-2.31 2.42,-4.96 3.16,-7.99 0.72,-3.01 1.1,-6.41 1.1,-10.17l0 -57.56 28.17 0 0 61.55c0,6.13 -0.97,11.69 -2.88,16.63 -1.93,4.95 -4.78,9.34 -8.52,13.18 -3.86,3.85 -8.86,6.72 -15.05,8.59 -6.18,1.89 -13.62,2.83 -22.34,2.83 -7.22,0 -13.75,-0.93 -19.56,-2.76 -5.83,-1.82 -10.89,-4.66 -15.18,-8.52 -4.22,-3.86 -7.4,-8.15 -9.58,-12.91 -2.14,-4.76 -3.22,-9.99 -3.22,-15.67l0 -62.93 28.18 0z"/>
   <polygon class="fil0" points="1363.85,954.61 1363.85,975.1 1332.54,975.1 1332.54,1054.09 1305.47,1054.09 1305.47,975.1 1274.12,975.1 1274.12,954.61 "/>
   <path class="fil0" d="M1402.9 954.61l0 58.4c0,3.66 0.36,6.93 1.09,9.81 0.73,2.9 1.83,5.44 3.3,7.64 1.56,2.19 3.56,3.85 6.04,4.95 2.48,1.11 5.46,1.66 8.93,1.66 4.04,0 7.43,-0.55 10.18,-1.66 2.74,-1.09 4.8,-2.79 6.17,-5.07 1.38,-2.31 2.44,-4.96 3.15,-7.99 0.75,-3.01 1.11,-6.41 1.11,-10.17l0 -57.56 28.17 0 0 61.55c0,6.13 -0.96,11.69 -2.88,16.63 -1.94,4.95 -4.78,9.34 -8.53,13.18 -3.86,3.85 -8.85,6.72 -15.06,8.59 -6.16,1.89 -13.62,2.83 -22.32,2.83 -7.23,0 -13.76,-0.93 -19.56,-2.76 -5.84,-1.82 -10.89,-4.66 -15.18,-8.52 -4.23,-3.86 -7.41,-8.15 -9.58,-12.91 -2.14,-4.76 -3.22,-9.99 -3.22,-15.67l0 -62.93 28.18 0z"/>
   <path class="fil0" d="M1515.42 996.79l10.85 0c0.19,0.19 0.39,0.27 0.61,0.27l0.63 0 0.61 0 0.74 0c1.67,-0.08 3.26,-0.35 4.83,-0.75 1.55,-0.42 3.06,-0.94 4.54,-1.59 1.38,-0.72 2.42,-1.77 3.16,-3.15 0.73,-1.37 1.09,-3.17 1.09,-5.36 0,-1.84 -0.36,-3.44 -1.09,-4.81 -0.74,-1.37 -1.83,-2.51 -3.29,-3.43 -1.48,-0.84 -3.13,-1.47 -4.96,-1.93 -1.83,-0.45 -3.8,-0.68 -5.91,-0.68l-11.81 -0.27 0 21.69zm16.22 -42.17c0.17,0.17 0.38,0.26 0.61,0.26l0.61 0 0.63 0 0.75 0c4.66,0.1 9.14,0.62 13.39,1.52 4.25,0.92 8.35,2.2 12.29,3.85 3.85,1.73 6.76,4.32 8.74,7.76 1.96,3.42 2.95,7.7 2.95,12.84 0,4.03 -0.58,7.54 -1.73,10.53 -1.13,2.98 -2.91,5.37 -5.28,7.2 -2.29,1.84 -4.86,3.34 -7.69,4.55 -2.83,1.17 -5.87,2.06 -9.07,2.6 4.85,0.18 8.78,1.1 11.81,2.74 3.03,1.65 5.14,4.05 6.32,7.15 1.19,3.11 2.16,6.37 2.95,9.76 0.79,3.38 1.35,6.91 1.73,10.58l0 0.28 0 0.27 0 0.28c0,0.09 0.04,0.19 0.13,0.28 0.18,1.46 0.35,2.95 0.48,4.46 0.13,1.52 0.3,3.05 0.48,4.6 0.19,1.48 0.46,2.87 0.82,4.19 0.36,1.33 0.78,2.59 1.25,3.78l-30.25 0c-0.36,-0.73 -0.65,-1.6 -0.88,-2.61 -0.22,-1 -0.44,-2.11 -0.61,-3.31 -0.1,-1.19 -0.19,-2.38 -0.29,-3.64 -0.09,-1.22 -0.17,-2.5 -0.27,-3.78l0 -0.41 0 -0.42c-0.09,-0.08 -0.13,-0.19 -0.13,-0.35l0 -0.33 0 -0.83 0 -0.82c-0.19,-2.66 -0.51,-5.21 -0.95,-7.62 -0.47,-2.42 -1.06,-4.76 -1.8,-6.93 -0.73,-2.21 -1.96,-3.86 -3.7,-4.95 -1.75,-1.11 -3.94,-1.66 -6.59,-1.66l-12.92 -0.27 0 37.92 -28.18 0 0 -99.47 44.4 0z"/>
   <path class="fil0" d="M1615.25 1016.23c0.96,3.71 2.4,7.27 4.34,10.65 1.91,3.39 4.39,5.94 7.41,7.63 3.01,1.69 6.54,2.54 10.59,2.54 3.47,0 6.56,-0.66 9.27,-2 2.69,-1.31 4.97,-3.36 6.79,-6.11 1.84,-2.66 3.24,-6.02 4.2,-10.09 0.95,-4.07 1.43,-8.81 1.43,-14.22 0,-4.31 -0.42,-8.36 -1.31,-12.15 -0.85,-3.81 -2.22,-7.31 -4.04,-10.53 -1.75,-3.21 -4.08,-5.63 -7.03,-7.28 -2.92,-1.64 -6.39,-2.47 -10.44,-2.47 -4.03,0 -7.44,0.85 -10.29,2.53 -2.85,1.71 -5.09,4.24 -6.75,7.63 -1.63,3.41 -2.92,6.95 -3.83,10.64 -0.92,3.71 -1.52,7.6 -1.8,11.63l0 -0.28c0,4.21 0.5,8.17 1.46,11.88zm-27.62 -29.87c1.77,-6.06 4.34,-11.82 7.63,-17.34 3.29,-5.39 8.47,-9.47 15.52,-12.23 7.04,-2.73 15.98,-4.11 26.8,-4.11l0.38 0 0.43 0 0.35 0 0.34 0 0.4 0 0.43 0 0.33 0 0.33 0c5.97,0.28 11.68,1.34 17.18,3.16 5.49,1.84 10.73,4.5 15.68,7.97 4.93,3.48 8.66,8.63 11.2,15.45 2.5,6.83 3.77,15.26 3.77,25.36 0,1.37 -0.03,2.73 -0.08,4.13 -0.04,1.36 -0.15,2.78 -0.32,4.24 -0.1,0.74 -0.2,1.47 -0.3,2.2 -0.1,0.73 -0.17,1.46 -0.26,2.21 -0.19,0.82 -0.35,1.6 -0.49,2.32 -0.13,0.74 -0.3,1.47 -0.48,2.21 -1.1,4.39 -2.82,8.56 -5.14,12.5 -2.34,3.95 -5.27,7.7 -8.73,11.26 -3.49,3.58 -8.06,6.25 -13.7,7.99 -5.64,1.73 -12.37,2.6 -20.25,2.6 -10.44,0 -19.14,-1.2 -26.1,-3.64 -6.96,-2.44 -12.23,-6.11 -15.79,-11.06 -3.58,-4.95 -6.39,-10.14 -8.4,-15.58 -2.01,-5.45 -3.24,-11.21 -3.7,-17.24l0 -0.3 0 -0.4c-0.1,-0.09 -0.14,-0.21 -0.14,-0.35l0 -0.36 0 -0.81 0 -0.82 0 -0.28c0.27,-6.68 1.31,-13.04 3.09,-19.08z"/>
   <path class="fil0" d="M1791.33 1034.58c4.58,0.18 8.53,-0.38 11.88,-1.72 3.34,-1.34 6.15,-3.36 8.45,-6.12 2.28,-2.74 4.07,-5.64 5.35,-8.64 1.28,-3.04 2.07,-6.2 2.33,-9.48l0 -0.28c0,-0.09 0.05,-0.22 0.13,-0.4l0 -0.35 0 -0.35 0 -0.42 0 -0.42 0 -0.35 0 -0.33 0 -0.54 0 -0.69c-0.08,-0.19 -0.13,-0.36 -0.13,-0.55l0 -0.54c0,-0.47 -0,-0.91 -0.06,-1.31 -0.05,-0.42 -0.12,-0.79 -0.21,-1.18 -0.56,-3.2 -1.53,-6.28 -2.95,-9.2 -1.42,-2.92 -3.34,-5.72 -5.72,-8.38 -2.38,-2.65 -5.07,-4.65 -8.12,-5.97 -2.99,-1.34 -6.32,-2 -9.88,-2l-15.11 -0.27 0 59.49 14.02 0zm0 -79.96c11.35,0.17 20.85,1.54 28.45,4.06 7.58,2.51 13.32,6.29 17.16,11.33 3.84,5.05 6.76,10.48 8.73,16.35 1.97,5.87 2.98,12.09 3.09,18.7l0 0.4 0 0.28 0 0.28 0 0.4 0 0.29 0 0.27c-0.11,0.2 -0.14,0.36 -0.14,0.55l0 0.56 0 0.34 0 0.48c-0.27,7.87 -1.67,14.7 -4.2,20.47 -2.5,5.77 -6.14,10.45 -10.9,14.02 -4.77,3.66 -9.75,6.36 -14.99,8.11 -5.22,1.73 -10.67,2.61 -16.36,2.61l-53.02 0 0 -99.47 42.18 0z"/>
   <path class="fil0" d="M1890.2 1016.23c0.95,3.71 2.38,7.27 4.34,10.65 1.92,3.39 4.38,5.94 7.41,7.63 3.02,1.69 6.53,2.54 10.58,2.54 3.46,0 6.57,-0.66 9.29,-2 2.68,-1.31 4.96,-3.36 6.78,-6.11 1.84,-2.66 3.24,-6.02 4.2,-10.09 0.94,-4.07 1.43,-8.81 1.43,-14.22 0,-4.31 -0.41,-8.36 -1.3,-12.15 -0.85,-3.81 -2.22,-7.31 -4.04,-10.53 -1.75,-3.21 -4.09,-5.63 -7.03,-7.28 -2.92,-1.64 -6.39,-2.47 -10.43,-2.47 -4.03,0 -7.46,0.85 -10.29,2.53 -2.86,1.71 -5.09,4.24 -6.75,7.63 -1.64,3.41 -2.93,6.95 -3.84,10.64 -0.91,3.71 -1.52,7.6 -1.79,11.63l0 -0.28c0,4.21 0.5,8.17 1.45,11.88zm-27.61 -29.87c1.77,-6.06 4.32,-11.82 7.61,-17.34 3.3,-5.39 8.48,-9.47 15.53,-12.23 7.06,-2.73 15.99,-4.11 26.8,-4.11l0.4 0 0.43 0 0.35 0 0.34 0 0.4 0 0.42 0 0.33 0 0.34 0c5.97,0.28 11.69,1.34 17.18,3.16 5.5,1.84 10.73,4.5 15.68,7.97 4.93,3.48 8.66,8.63 11.19,15.45 2.51,6.83 3.78,15.26 3.78,25.36 0,1.37 -0.01,2.73 -0.08,4.13 -0.04,1.36 -0.15,2.78 -0.33,4.24 -0.08,0.74 -0.19,1.47 -0.28,2.2 -0.1,0.73 -0.18,1.46 -0.27,2.21 -0.19,0.82 -0.34,1.6 -0.48,2.32 -0.13,0.74 -0.3,1.47 -0.47,2.21 -1.11,4.39 -2.82,8.56 -5.16,12.5 -2.34,3.95 -5.26,7.7 -8.73,11.26 -3.49,3.58 -8.05,6.25 -13.68,7.99 -5.64,1.73 -12.38,2.6 -20.25,2.6 -10.46,0 -19.16,-1.2 -26.11,-3.64 -6.96,-2.44 -12.23,-6.11 -15.8,-11.06 -3.59,-4.95 -6.37,-10.14 -8.4,-15.58 -2,-5.45 -3.24,-11.21 -3.69,-17.24l0 -0.3 0 -0.4c-0.1,-0.09 -0.14,-0.21 -0.14,-0.35l0 -0.36 0 -0.81 0 -0.82 0 -0.28c0.27,-6.68 1.3,-13.04 3.09,-19.08z"/>
   <polygon class="fil0" points="2105.16,954.61 2105.16,975.1 2073.84,975.1 2073.84,1054.09 2046.77,1054.09 2046.77,975.1 2015.43,975.1 2015.43,954.61 "/>
   <path class="fil0" d="M2141.99 996.79l10.85 0c0.19,0.19 0.39,0.27 0.62,0.27l0.62 0 0.61 0 0.75 0c1.65,-0.08 3.26,-0.35 4.81,-0.75 1.55,-0.42 3.07,-0.94 4.55,-1.59 1.37,-0.72 2.41,-1.77 3.16,-3.15 0.72,-1.37 1.09,-3.17 1.09,-5.36 0,-1.84 -0.37,-3.44 -1.09,-4.81 -0.75,-1.37 -1.83,-2.51 -3.3,-3.43 -1.48,-0.84 -3.13,-1.47 -4.95,-1.93 -1.84,-0.45 -3.81,-0.68 -5.92,-0.68l-11.81 -0.27 0 21.69zm16.22 -42.17c0.16,0.17 0.38,0.26 0.61,0.26l0.61 0 0.63 0 0.75 0c4.68,0.1 9.15,0.62 13.4,1.52 4.25,0.92 8.36,2.2 12.3,3.85 3.84,1.73 6.77,4.32 8.73,7.76 1.95,3.42 2.96,7.7 2.96,12.84 0,4.03 -0.58,7.54 -1.73,10.53 -1.15,2.98 -2.92,5.37 -5.29,7.2 -2.28,1.84 -4.85,3.34 -7.69,4.55 -2.84,1.17 -5.86,2.06 -9.06,2.6 4.85,0.18 8.77,1.1 11.82,2.74 3.02,1.65 5.13,4.05 6.32,7.15 1.19,3.11 2.17,6.37 2.95,9.76 0.79,3.38 1.35,6.91 1.73,10.58l0 0.28 0 0.27 0 0.28c0,0.09 0.04,0.19 0.14,0.28 0.17,1.46 0.34,2.95 0.47,4.46 0.14,1.52 0.28,3.05 0.47,4.6 0.19,1.48 0.46,2.87 0.83,4.19 0.37,1.33 0.78,2.59 1.25,3.78l-30.25 0c-0.36,-0.73 -0.66,-1.6 -0.88,-2.61 -0.22,-1 -0.45,-2.11 -0.61,-3.31 -0.1,-1.19 -0.19,-2.38 -0.29,-3.64 -0.1,-1.22 -0.17,-2.5 -0.27,-3.78l0 -0.41 0 -0.42c-0.09,-0.08 -0.13,-0.19 -0.13,-0.35l0 -0.33 0 -0.83 0 -0.82c-0.19,-2.66 -0.52,-5.21 -0.96,-7.62 -0.46,-2.42 -1.05,-4.76 -1.8,-6.93 -0.73,-2.21 -1.96,-3.86 -3.7,-4.95 -1.75,-1.11 -3.95,-1.66 -6.6,-1.66l-12.92 -0.27 0 37.92 -28.18 0 0 -99.47 44.4 0z"/>
   <path class="fil0" d="M2260.98 975.09l-13.05 40.11 24.86 0 -11.81 -40.11zm18.27 -20.48l39.02 99.48 -31.32 0 -6.58 -18.41 -38.89 0 -6.47 18.41 -29.27 0 40 -99.48 33.52 0z"/>
   <path class="fil0" d="M2372.42 1034.58c2.11,0.18 3.91,0.09 5.41,-0.27 1.52,-0.37 2.74,-0.97 3.66,-1.79 0.99,-0.82 1.78,-1.7 2.34,-2.61 0.54,-0.92 0.96,-1.83 1.23,-2.75l0 -0.28c0,-0.09 0.06,-0.19 0.13,-0.26l0 -0.43 0 -0.27c0,-0.1 0.05,-0.19 0.15,-0.28l0 -0.27 0 -0.27 0 -0.48 0 -0.36c-0.1,-0.17 -0.15,-0.34 -0.15,-0.48l0 -0.35c-0.07,-0.28 -0.15,-0.58 -0.19,-0.88 -0.07,-0.33 -0.17,-0.67 -0.35,-1.04 -0.36,-0.84 -0.84,-1.66 -1.45,-2.48 -0.6,-0.82 -1.34,-1.59 -2.27,-2.34 -0.91,-0.73 -2,-1.29 -3.21,-1.71 -1.25,-0.42 -2.65,-0.6 -4.21,-0.6l-16.21 -0.29 0 20.48 15.12 0zm-1.11 -41.1c2.11,0.2 3.95,0.08 5.5,-0.33 1.56,-0.42 2.79,-1.03 3.72,-1.85 0.9,-0.84 1.6,-1.84 2.04,-3.03 0.47,-1.19 0.69,-2.61 0.69,-4.26 0,-1.28 -0.27,-2.51 -0.82,-3.71 -0.56,-1.18 -1.32,-2.24 -2.34,-3.15 -1.08,-1.02 -2.38,-1.74 -3.85,-2.21 -1.45,-0.46 -3.09,-0.69 -4.95,-0.69l-14.01 -0.27 0 19.48 14.01 0zm2.2 -38.86c0.83,0.17 1.88,0.29 3.17,0.35 1.28,0.04 2.8,0.12 4.55,0.19 1.72,0.09 3.48,0.29 5.29,0.61 1.77,0.33 3.61,0.77 5.56,1.31 2.36,0.64 4.68,1.59 6.93,2.82 2.24,1.23 4.36,2.67 6.38,4.32 2.11,1.74 3.74,3.9 4.89,6.46 1.13,2.57 1.83,5.59 2.12,9.08l0 0.27 0 0.27 0 0.21c0,0.05 0.05,0.12 0.13,0.21l0 0.28 0 0.26 0 0.23 0 0.2c0,2.74 -0.5,5.31 -1.5,7.7 -1.02,2.38 -2.48,4.53 -4.4,6.46 -2.01,1.92 -4.32,3.43 -6.94,4.54 -2.6,1.1 -5.57,1.78 -8.87,2.05l0.15 0 0 0.14 0.27 0c2.94,0.83 5.71,1.9 8.38,3.21 2.68,1.34 5.24,2.93 7.71,4.75 2.37,1.84 4.17,4.14 5.43,6.94 1.23,2.79 1.85,6.07 1.85,9.81 0,4.89 -0.88,9.02 -2.62,12.46 -1.75,3.42 -4.35,6.2 -7.82,8.32 -3.4,2.02 -7.66,3.51 -12.79,4.52 -5.14,1.02 -11.08,1.52 -17.87,1.52l-44.37 0 0 -99.47 44.37 0z"/>
   <path class="fil0" d="M2475.19 975.09l-13.04 40.11 24.86 0 -11.82 -40.11zm18.27 -20.48l39.02 99.48 -31.31 0 -6.59 -18.41 -38.89 0 -6.47 18.41 -29.25 0 39.98 -99.48 33.52 0z"/>
   <polygon class="fil0" points="2571.51,954.61 2571.51,1033.48 2615.89,1033.48 2615.89,1054.09 2543.35,1054.09 2543.35,954.61 "/>
   <polygon class="fil0" points="2655.88,954.61 2655.88,994.59 2689.41,994.59 2689.41,954.61 2717.59,954.61 2717.59,1054.09 2689.41,1054.09 2689.41,1014.1 2655.88,1014.1 2655.88,1054.09 2627.73,1054.09 2627.73,954.61 "/>
   <path class="fil0" d="M2762.32 1016.23c0.96,3.71 2.39,7.27 4.33,10.65 1.91,3.39 4.39,5.94 7.41,7.63 3.01,1.69 6.54,2.54 10.58,2.54 3.47,0 6.57,-0.66 9.28,-2 2.68,-1.31 4.95,-3.36 6.78,-6.11 1.84,-2.66 3.23,-6.02 4.19,-10.09 0.97,-4.07 1.44,-8.81 1.44,-14.22 0,-4.31 -0.42,-8.36 -1.31,-12.15 -0.86,-3.81 -2.22,-7.31 -4.05,-10.53 -1.73,-3.21 -4.07,-5.63 -7.01,-7.28 -2.94,-1.64 -6.4,-2.47 -10.44,-2.47 -4.03,0 -7.46,0.85 -10.29,2.53 -2.86,1.71 -5.11,4.24 -6.75,7.63 -1.65,3.41 -2.94,6.95 -3.84,10.64 -0.92,3.71 -1.51,7.6 -1.8,11.63l0 -0.28c0,4.21 0.51,8.17 1.47,11.88zm-27.62 -29.87c1.77,-6.06 4.34,-11.82 7.64,-17.34 3.29,-5.39 8.46,-9.47 15.52,-12.23 7.04,-2.73 15.98,-4.11 26.79,-4.11l0.39 0 0.43 0 0.34 0 0.34 0 0.41 0 0.42 0 0.31 0 0.35 0c5.97,0.28 11.69,1.34 17.17,3.16 5.51,1.84 10.74,4.5 15.69,7.97 4.94,3.48 8.66,8.63 11.2,15.45 2.5,6.83 3.78,15.26 3.78,25.36 0,1.37 -0.03,2.73 -0.08,4.13 -0.04,1.36 -0.15,2.78 -0.34,4.24 -0.08,0.74 -0.18,1.47 -0.27,2.2 -0.11,0.73 -0.18,1.46 -0.26,2.21 -0.19,0.82 -0.36,1.6 -0.49,2.32 -0.13,0.74 -0.31,1.47 -0.48,2.21 -1.11,4.39 -2.82,8.56 -5.14,12.5 -2.34,3.95 -5.26,7.7 -8.72,11.26 -3.5,3.58 -8.07,6.25 -13.7,7.99 -5.64,1.73 -12.38,2.6 -20.25,2.6 -10.46,0 -19.15,-1.2 -26.11,-3.64 -6.96,-2.44 -12.23,-6.11 -15.79,-11.06 -3.57,-4.95 -6.38,-10.14 -8.39,-15.58 -2.01,-5.45 -3.25,-11.21 -3.71,-17.24l0 -0.3 0 -0.4c-0.1,-0.09 -0.13,-0.21 -0.13,-0.35l0 -0.36 0 -0.81 0 -0.82 0 -0.28c0.27,-6.68 1.31,-13.04 3.09,-19.08z"/>
  </g>
 </g>
</svg>
