<?xml version="1.0" encoding="UTF-8"?>
<!DOCTYPE svg PUBLIC "-//W3C//DTD SVG 1.1//EN" "http://www.w3.org/Graphics/SVG/1.1/DTD/svg11.dtd">
<!-- Creator: CorelDRAW 2020 (64 Bit) -->
<svg xmlns="http://www.w3.org/2000/svg" xml:space="preserve" width="54.7024mm" height="26.6565mm" version="1.1" style="shape-rendering:geometricPrecision; text-rendering:geometricPrecision; image-rendering:optimizeQuality; fill-rule:evenodd; clip-rule:evenodd"
viewBox="0 0 1459.35 711.14"
 xmlns:xlink="http://www.w3.org/1999/xlink"
 xmlns:xodm="http://www.corel.com/coreldraw/odm/2003">
 <defs>
  <style type="text/css">
   <![CDATA[
    .fil0 {fill:#FEFEFE;fill-rule:nonzero}
   ]]>
  </style>
 </defs>
 <g id="Camada_x0020_1">
  <metadata id="CorelCorpID_0Corel-Layer"/>
  <g id="_2939872880800">
   <path class="fil0" d="M53.55 513.18c-0.22,1.38 -0.38,2.96 -0.5,4.75 -0.11,1.78 0.28,3.47 1.16,5.07 0.88,1.61 2.47,2.97 4.78,4.1 2.31,1.13 5.74,1.69 10.29,1.69 4.1,0 7.51,-0.54 10.22,-1.64 2.71,-1.1 4.87,-2.42 6.48,-3.96 1.62,-1.54 2.79,-3.09 3.52,-4.67 0.73,-1.57 1.22,-2.88 1.43,-3.89 0.44,-2.2 0.39,-4.01 -0.11,-5.43 -0.51,-1.43 -1.48,-2.62 -2.91,-3.58 -1.42,-0.95 -3.19,-1.75 -5.27,-2.41 -2.09,-0.66 -4.46,-1.31 -7.09,-1.98 -2.86,-0.72 -5.35,-1.39 -7.47,-1.97 -2.13,-0.58 -3.97,-1.13 -5.55,-1.64 -1.57,-0.52 -2.93,-1.05 -4.07,-1.59 -1.14,-0.56 -2.14,-1.16 -3.02,-1.81 -2.72,-2.2 -4.34,-4.69 -4.9,-7.48 -0.55,-2.78 -0.54,-5.48 0.06,-8.12 0.81,-4.02 2.4,-7.5 4.78,-10.43 2.37,-2.93 5.18,-5.33 8.4,-7.18 3.23,-1.88 6.75,-3.26 10.56,-4.18 3.81,-0.93 7.58,-1.38 11.31,-1.38 1.32,0 2.94,0.07 4.84,0.22 1.9,0.15 3.81,0.5 5.72,1.04 1.9,0.55 3.75,1.34 5.55,2.36 1.8,1.03 3.31,2.42 4.56,4.18 0.88,1.24 1.5,2.5 1.87,3.73 0.37,1.26 0.58,2.46 0.65,3.63 0.08,1.17 0.04,2.29 -0.1,3.35 -0.15,1.06 -0.29,1.99 -0.44,2.8l-11.43 0c0.36,-2.5 0.22,-4.53 -0.44,-6.1 -0.66,-1.58 -1.69,-2.81 -3.08,-3.69 -1.39,-0.87 -3.01,-1.48 -4.84,-1.81 -1.82,-0.33 -3.73,-0.49 -5.71,-0.49 -5.5,0 -10.06,1.16 -13.68,3.47 -3.63,2.3 -5.86,5.44 -6.65,9.4 -0.38,1.75 -0.41,3.26 -0.11,4.51 0.29,1.24 0.93,2.3 1.92,3.18 0.99,0.88 2.33,1.64 4.01,2.25 1.69,0.62 3.66,1.24 5.94,1.82 4.41,1.24 7.96,2.23 10.67,2.96 2.71,0.73 4.87,1.37 6.49,1.93 1.61,0.55 2.88,1.08 3.79,1.59 0.91,0.51 1.88,1.14 2.91,1.88 1.54,1.24 2.69,2.6 3.47,4.06 0.77,1.47 1.25,2.94 1.43,4.4 0.18,1.47 0.22,2.86 0.11,4.17 -0.11,1.32 -0.28,2.39 -0.5,3.2 -0.72,3.52 -2.08,6.77 -4.06,9.79 -1.98,3.01 -4.52,5.63 -7.63,7.86 -3.12,2.24 -6.79,3.98 -10.99,5.22 -4.22,1.25 -8.86,1.88 -13.92,1.88 -1.53,0 -3.37,-0.1 -5.49,-0.29 -2.13,-0.18 -4.27,-0.59 -6.43,-1.21 -2.17,-0.61 -4.22,-1.54 -6.16,-2.74 -1.94,-1.22 -3.47,-2.8 -4.55,-4.78 -0.82,-1.47 -1.37,-2.95 -1.66,-4.45 -0.29,-1.5 -0.44,-2.96 -0.44,-4.35 0,-1.39 0.09,-2.71 0.27,-3.96 0.18,-1.25 0.38,-2.34 0.61,-3.29l11.43 0z"/>
   <path class="fil0" d="M156.46 503.39c0.29,-1.32 0.51,-2.93 0.65,-4.78 0.15,-1.88 -0.05,-3.65 -0.61,-5.34 -0.55,-1.69 -1.61,-3.14 -3.19,-4.34 -1.57,-1.22 -3.94,-1.81 -7.08,-1.81 -1.7,0 -3.47,0.27 -5.34,0.83 -1.87,0.54 -3.65,1.46 -5.33,2.75 -1.69,1.28 -3.22,2.94 -4.62,5 -1.4,2.05 -2.46,4.61 -3.19,7.7l28.69 0zm-30.68 7.25c-0.73,2.86 -1.07,5.5 -0.99,7.92 0.08,2.42 0.57,4.52 1.49,6.31 0.91,1.81 2.27,3.2 4.07,4.19 1.8,0.99 4.11,1.48 6.98,1.48 3.37,0 6.46,-0.92 9.28,-2.75 2.83,-1.83 4.86,-4.73 6.1,-8.68l10.33 0c-0.44,1.39 -1.14,3.12 -2.08,5.22 -0.96,2.09 -2.64,4.18 -5.06,6.31 -0.73,0.65 -1.7,1.43 -2.92,2.32 -1.21,0.88 -2.65,1.68 -4.34,2.41 -1.69,0.74 -3.62,1.35 -5.83,1.86 -2.2,0.52 -4.69,0.78 -7.48,0.78 -8.72,0 -14.63,-2.53 -17.75,-7.59 -3.12,-5.05 -3.75,-11.95 -1.92,-20.66 1.17,-5.43 2.96,-10.36 5.39,-14.8 2.41,-4.43 6.12,-8.15 11.1,-11.15 1.46,-0.96 2.97,-1.69 4.5,-2.2 1.54,-0.51 3.02,-0.93 4.45,-1.22 1.44,-0.29 2.73,-0.47 3.91,-0.54 1.17,-0.08 2.16,-0.12 2.97,-0.12 4.11,0 7.45,0.56 10.07,1.66 2.59,1.1 4.6,2.55 5.99,4.34 1.39,1.8 2.33,3.82 2.8,6.05 0.48,2.24 0.66,4.51 0.55,6.83 -0.11,2.3 -0.38,4.52 -0.83,6.64 -0.43,2.13 -0.81,3.93 -1.09,5.39l-39.69 0z"/>
   <path class="fil0" d="M185.04 492.39c0.44,-1.9 0.8,-3.79 1.04,-5.67 0.26,-1.87 0.53,-3.72 0.83,-5.54l10.44 0 -2.08 10.66c0.96,-1.9 2.05,-3.52 3.3,-4.84 1.25,-1.32 2.59,-2.4 4.01,-3.24 1.43,-0.85 2.87,-1.49 4.3,-1.93 1.42,-0.43 2.73,-0.72 3.9,-0.88 1.62,-0.21 3,-0.33 4.18,-0.33 1.17,0 2.2,0.04 3.07,0.11l-2.2 10.11c-0.44,-0.14 -1.07,-0.29 -1.87,-0.43 -0.36,-0.07 -0.8,-0.11 -1.32,-0.11l-1.65 0c-3.08,0 -5.69,0.43 -7.8,1.26 -2.13,0.85 -3.91,2.02 -5.34,3.52 -1.42,1.5 -2.57,3.28 -3.4,5.34 -0.84,2.05 -1.52,4.26 -2.03,6.59l-6.27 29.35 -10.44 0 9.34 -43.97z"/>
   <polygon class="fil0" points="221.31,481.18 232.86,481.18 241.1,524.93 267.6,481.18 279.03,481.18 243.09,536.37 232.64,536.37 "/>
   <path class="fil0" d="M294.87 457.21l12.42 0 -2.42 11.32 -12.42 0 2.42 -11.32zm-3.96 23.97l10.34 0 -11.77 55.19 -10.34 0 11.76 -55.19z"/>
   <path class="fil0" d="M355.78 518c-0.66,2.57 -1.72,5.01 -3.13,7.31 -1.43,2.32 -3.22,4.35 -5.39,6.11 -2.16,1.76 -4.6,3.19 -7.3,4.29 -2.71,1.1 -5.69,1.76 -8.91,1.98l-4.63 5.07c0.59,-0.16 1.23,-0.28 1.93,-0.39 0.7,-0.11 1.52,-0.17 2.48,-0.17 1.6,0 2.91,0.25 3.89,0.77 1,0.51 1.74,1.16 2.26,1.91 0.51,0.77 0.83,1.62 0.93,2.53 0.11,0.92 0.09,1.77 -0.05,2.59 -0.09,0.22 -0.3,0.86 -0.66,1.92 -0.37,1.06 -1.09,2.18 -2.2,3.35 -1.1,1.17 -2.66,2.24 -4.67,3.2 -2.02,0.95 -4.71,1.42 -8.08,1.42 -2.56,0 -4.56,-0.22 -5.99,-0.66 -1.43,-0.44 -2.71,-0.94 -3.79,-1.54l2.96 -4.06c0.59,0.37 1.42,0.71 2.48,1.04 1.06,0.34 2.59,0.5 4.56,0.5 1.91,0 3.45,-0.37 4.62,-1.1 1.18,-0.73 1.91,-1.84 2.2,-3.31 0.22,-0.95 0.18,-1.72 -0.11,-2.29 -0.29,-0.59 -0.72,-1.03 -1.26,-1.32 -0.55,-0.29 -1.14,-0.48 -1.76,-0.55 -0.63,-0.08 -1.15,-0.11 -1.6,-0.11 -0.82,0 -1.49,0.07 -2.04,0.22 -0.55,0.15 -1.22,0.37 -2.02,0.65l-1.32 -1.86 7.25 -7.81c-4.18,-0.51 -7.48,-1.63 -9.9,-3.35 -2.41,-1.72 -4.19,-3.85 -5.33,-6.38 -1.14,-2.52 -1.7,-5.34 -1.7,-8.46 0,-3.12 0.33,-6.29 0.98,-9.51 1.32,-6.15 3.21,-11.18 5.67,-15.06 2.46,-3.89 5.2,-6.96 8.24,-9.24 3.04,-2.27 6.09,-3.83 9.12,-4.67 3.04,-0.84 5.84,-1.28 8.41,-1.28 0.88,0 2.03,0.08 3.47,0.23 1.43,0.15 2.88,0.45 4.34,0.93 1.47,0.48 2.91,1.16 4.29,2.04 1.4,0.88 2.52,2.08 3.41,3.62 1.54,2.35 2.32,4.6 2.32,6.77 0,2.16 -0.12,4.02 -0.33,5.55l-10.45 0c0.07,-0.66 0.15,-1.64 0.22,-2.92 0.07,-1.28 -0.13,-2.56 -0.6,-3.85 -0.48,-1.28 -1.32,-2.39 -2.53,-3.36 -1.21,-0.96 -3.06,-1.42 -5.55,-1.42 -3.6,0 -6.55,0.87 -8.86,2.64 -2.3,1.75 -4.16,3.81 -5.54,6.15 -1.4,2.34 -2.41,4.67 -3.03,6.98 -0.62,2.31 -1.05,3.98 -1.26,5.01 -0.66,2.84 -1.06,5.58 -1.21,8.18 -0.15,2.61 0.07,4.94 0.66,6.99 0.58,2.05 1.63,3.68 3.13,4.89 1.49,1.21 3.65,1.81 6.44,1.81 2.19,0 4.13,-0.37 5.82,-1.09 1.69,-0.74 3.09,-1.7 4.23,-2.87 1.13,-1.17 2.09,-2.47 2.86,-3.9 0.78,-1.43 1.29,-2.8 1.6,-4.12l10.44 0z"/>
   <path class="fil0" d="M377.11 508.77c-0.58,2.86 -0.84,5.59 -0.77,8.19 0.08,2.61 0.57,4.91 1.48,6.93 0.91,2.02 2.29,3.62 4.12,4.83 1.83,1.21 4.22,1.82 7.14,1.82 1.99,0 4.05,-0.39 6.21,-1.15 2.16,-0.77 4.22,-2.02 6.16,-3.74 1.94,-1.72 3.72,-3.99 5.33,-6.81 1.62,-2.82 2.86,-6.33 3.74,-10.5 1.46,-6.89 1.12,-12.11 -1.05,-15.67 -2.17,-3.55 -5.67,-5.33 -10.5,-5.33 -1.68,0 -3.59,0.31 -5.71,0.93 -2.13,0.62 -4.23,1.72 -6.32,3.3 -2.09,1.57 -4.02,3.76 -5.78,6.54 -1.75,2.79 -3.11,6.34 -4.06,10.66zm-10.89 0.66c0.73,-3.37 1.91,-6.81 3.52,-10.33 1.61,-3.52 3.81,-6.71 6.6,-9.56 2.79,-2.86 6.15,-5.2 10.11,-7.05 3.95,-1.83 8.65,-2.75 14.07,-2.75 5.51,0 9.81,0.98 12.92,2.92 3.12,1.95 5.37,4.36 6.76,7.25 1.4,2.89 2.11,6.04 2.14,9.41 0.03,3.38 -0.23,6.49 -0.82,9.35 -0.88,4.04 -2.28,7.85 -4.18,11.43 -1.9,3.6 -4.28,6.73 -7.15,9.4 -2.86,2.68 -6.23,4.8 -10.11,6.38 -3.89,1.57 -8.18,2.37 -12.87,2.37 -4.55,0 -8.35,-0.76 -11.43,-2.26 -3.08,-1.5 -5.48,-3.53 -7.21,-6.1 -1.72,-2.57 -2.77,-5.61 -3.13,-9.13 -0.37,-3.5 -0.11,-7.28 0.77,-11.31z"/>
   <path class="fil0" d="M475.17 513.18c-0.21,1.38 -0.38,2.96 -0.5,4.75 -0.11,1.78 0.28,3.47 1.16,5.07 0.88,1.61 2.48,2.97 4.78,4.1 2.31,1.13 5.73,1.69 10.28,1.69 4.1,0 7.51,-0.54 10.22,-1.64 2.71,-1.1 4.88,-2.42 6.49,-3.96 1.62,-1.54 2.79,-3.09 3.52,-4.67 0.74,-1.57 1.21,-2.88 1.44,-3.89 0.43,-2.2 0.4,-4.01 -0.11,-5.43 -0.51,-1.43 -1.48,-2.62 -2.91,-3.58 -1.44,-0.95 -3.19,-1.75 -5.28,-2.41 -2.09,-0.66 -4.45,-1.31 -7.1,-1.98 -2.86,-0.72 -5.35,-1.39 -7.47,-1.97 -2.12,-0.58 -3.97,-1.13 -5.54,-1.64 -1.58,-0.52 -2.94,-1.05 -4.08,-1.59 -1.13,-0.56 -2.13,-1.16 -3.01,-1.81 -2.72,-2.2 -4.34,-4.69 -4.9,-7.48 -0.55,-2.78 -0.53,-5.48 0.06,-8.12 0.81,-4.02 2.4,-7.5 4.78,-10.43 2.38,-2.93 5.18,-5.33 8.41,-7.18 3.22,-1.88 6.75,-3.26 10.56,-4.18 3.81,-0.93 7.6,-1.38 11.33,-1.38 1.31,0 2.92,0.07 4.83,0.22 1.91,0.15 3.81,0.5 5.72,1.04 1.9,0.55 3.76,1.34 5.55,2.36 1.8,1.03 3.32,2.42 4.56,4.18 0.89,1.24 1.51,2.5 1.87,3.73 0.36,1.26 0.59,2.46 0.66,3.63 0.08,1.17 0.05,2.29 -0.11,3.35 -0.14,1.06 -0.29,1.99 -0.44,2.8l-11.43 0c0.37,-2.5 0.22,-4.53 -0.43,-6.1 -0.67,-1.58 -1.69,-2.81 -3.08,-3.69 -1.39,-0.87 -3,-1.48 -4.84,-1.81 -1.83,-0.33 -3.73,-0.49 -5.71,-0.49 -5.5,0 -10.06,1.16 -13.69,3.47 -3.63,2.3 -5.85,5.44 -6.66,9.4 -0.37,1.75 -0.4,3.26 -0.11,4.51 0.29,1.24 0.93,2.3 1.93,3.18 0.99,0.88 2.33,1.64 4.01,2.25 1.69,0.62 3.67,1.24 5.94,1.82 4.4,1.24 7.96,2.23 10.67,2.96 2.71,0.73 4.87,1.37 6.48,1.93 1.61,0.55 2.88,1.08 3.8,1.59 0.93,0.51 1.88,1.14 2.91,1.88 1.55,1.24 2.7,2.6 3.46,4.06 0.78,1.47 1.25,2.94 1.43,4.4 0.18,1.47 0.22,2.86 0.11,4.17 -0.11,1.32 -0.28,2.39 -0.5,3.2 -0.73,3.52 -2.09,6.77 -4.07,9.79 -1.99,3.01 -4.53,5.63 -7.64,7.86 -3.12,2.24 -6.79,3.98 -10.99,5.22 -4.22,1.25 -8.86,1.88 -13.91,1.88 -1.54,0 -3.38,-0.1 -5.49,-0.29 -2.13,-0.18 -4.28,-0.59 -6.43,-1.21 -2.17,-0.61 -4.22,-1.54 -6.16,-2.74 -1.95,-1.22 -3.46,-2.8 -4.55,-4.78 -0.82,-1.47 -1.36,-2.95 -1.66,-4.45 -0.29,-1.5 -0.44,-2.96 -0.44,-4.35 0,-1.39 0.09,-2.71 0.28,-3.96 0.18,-1.25 0.39,-2.34 0.6,-3.29l11.43 0z"/>
   <path class="fil0" d="M548.18 508.77c-0.58,2.86 -0.85,5.59 -0.77,8.19 0.08,2.61 0.57,4.91 1.48,6.93 0.92,2.02 2.29,3.62 4.13,4.83 1.82,1.21 4.21,1.82 7.14,1.82 1.97,0 4.05,-0.39 6.22,-1.15 2.16,-0.77 4.2,-2.02 6.15,-3.74 1.94,-1.72 3.71,-3.99 5.33,-6.81 1.61,-2.82 2.86,-6.33 3.75,-10.5 1.46,-6.89 1.11,-12.11 -1.05,-15.67 -2.16,-3.55 -5.66,-5.33 -10.5,-5.33 -1.69,0 -3.59,0.31 -5.71,0.93 -2.13,0.62 -4.23,1.72 -6.32,3.3 -2.09,1.57 -4.02,3.76 -5.77,6.54 -1.76,2.79 -3.12,6.34 -4.07,10.66zm-10.89 0.66c0.74,-3.37 1.9,-6.81 3.52,-10.33 1.61,-3.52 3.81,-6.71 6.6,-9.56 2.78,-2.86 6.15,-5.2 10.11,-7.05 3.96,-1.83 8.65,-2.75 14.08,-2.75 5.49,0 9.79,0.98 12.91,2.92 3.11,1.95 5.36,4.36 6.76,7.25 1.4,2.89 2.1,6.04 2.14,9.41 0.04,3.38 -0.24,6.49 -0.82,9.35 -0.88,4.04 -2.27,7.85 -4.18,11.43 -1.91,3.6 -4.28,6.73 -7.15,9.4 -2.86,2.68 -6.23,4.8 -10.12,6.38 -3.88,1.57 -8.17,2.37 -12.85,2.37 -4.55,0 -8.36,-0.76 -11.43,-2.26 -3.08,-1.5 -5.48,-3.53 -7.2,-6.1 -1.72,-2.57 -2.77,-5.61 -3.14,-9.13 -0.37,-3.5 -0.11,-7.28 0.77,-11.31z"/>
   <path class="fil0" d="M642.17 498.88c0.07,-0.67 0.15,-1.64 0.22,-2.93 0.08,-1.27 -0.13,-2.55 -0.6,-3.83 -0.49,-1.29 -1.32,-2.4 -2.53,-3.36 -1.21,-0.95 -3.07,-1.43 -5.56,-1.43 -3.59,0 -6.54,0.88 -8.85,2.65 -2.3,1.75 -4.16,3.81 -5.55,6.15 -1.38,2.34 -2.4,4.66 -3.02,6.98 -0.62,2.3 -1.04,3.97 -1.26,5 -0.66,2.85 -1.06,5.58 -1.21,8.19 -0.15,2.6 0.07,4.93 0.65,6.98 0.59,2.05 1.63,3.68 3.14,4.89 1.5,1.22 3.64,1.81 6.43,1.81 2.2,0 4.14,-0.37 5.82,-1.1 1.69,-0.73 3.11,-1.69 4.23,-2.86 1.14,-1.17 2.1,-2.47 2.86,-3.89 0.78,-1.44 1.3,-2.8 1.6,-4.13l10.45 0c-0.67,2.71 -1.78,5.27 -3.36,7.64 -1.58,2.38 -3.51,4.48 -5.83,6.27 -2.31,1.79 -4.93,3.22 -7.85,4.29 -2.95,1.05 -6.09,1.6 -9.45,1.6 -0.96,0 -2.16,-0.08 -3.58,-0.22 -1.43,-0.14 -2.91,-0.45 -4.46,-0.93 -1.54,-0.48 -3.07,-1.19 -4.62,-2.14 -1.54,-0.95 -2.85,-2.23 -3.95,-3.85 -0.59,-0.95 -1.14,-2.05 -1.7,-3.29 -0.55,-1.25 -0.95,-2.71 -1.2,-4.39 -0.27,-1.7 -0.34,-3.64 -0.22,-5.84 0.1,-2.2 0.45,-4.72 1.04,-7.58 1.16,-5.71 2.96,-10.49 5.38,-14.35 2.42,-3.84 5.09,-6.9 8.03,-9.19 2.94,-2.26 5.95,-3.88 9.07,-4.83 3.11,-0.96 6.06,-1.44 8.85,-1.44 0.88,0 2.02,0.09 3.46,0.23 1.44,0.14 2.89,0.45 4.35,0.93 1.46,0.48 2.89,1.16 4.28,2.04 1.4,0.88 2.53,2.08 3.41,3.62 1.54,2.35 2.31,4.6 2.31,6.77 0,2.16 -0.11,4 -0.33,5.55l-10.44 0z"/>
   <path class="fil0" d="M673.62 457.21l12.42 0 -2.42 11.32 -12.42 0 2.42 -11.32zm-3.96 23.97l10.34 0 -11.76 55.19 -10.34 0 11.77 -55.19z"/>
   <path class="fil0" d="M726.5 509.54c-0.94,-0.15 -1.85,-0.24 -2.69,-0.27 -0.85,-0.03 -1.89,-0.06 -3.14,-0.06 -1.02,0 -2.65,0.06 -4.89,0.16 -2.24,0.11 -4.54,0.52 -6.93,1.21 -2.38,0.7 -4.58,1.82 -6.59,3.35 -2.02,1.55 -3.32,3.71 -3.91,6.49 -0.22,0.88 -0.27,1.86 -0.17,2.97 0.11,1.09 0.48,2.13 1.11,3.12 0.61,0.99 1.59,1.82 2.91,2.48 1.32,0.66 3.15,0.99 5.49,0.99 5.28,0 9.64,-1.98 13.09,-5.94 0.8,-0.96 1.47,-1.86 1.97,-2.75 0.51,-0.88 0.96,-1.88 1.32,-2.96 0.37,-1.1 0.73,-2.37 1.1,-3.79 0.38,-1.43 0.81,-3.1 1.32,-5zm-4.51 26.82c-0.07,-1.39 -0.03,-2.74 0.11,-4.07 0.15,-1.31 0.37,-2.71 0.66,-4.17 -1.76,2.27 -3.52,4.07 -5.27,5.39 -1.77,1.32 -3.48,2.33 -5.17,3.02 -1.69,0.7 -3.26,1.14 -4.72,1.32 -1.48,0.19 -2.79,0.28 -3.96,0.28 -3.15,0 -5.87,-0.42 -8.14,-1.27 -2.26,-0.83 -4.07,-1.99 -5.38,-3.45 -1.32,-1.48 -2.21,-3.2 -2.64,-5.16 -0.44,-1.99 -0.41,-4.11 0.1,-6.39 0.23,-1.1 0.61,-2.34 1.16,-3.73 0.55,-1.39 1.34,-2.81 2.36,-4.23 1.03,-1.42 2.31,-2.86 3.86,-4.29 1.53,-1.42 3.44,-2.73 5.71,-3.89 1.68,-0.81 3.44,-1.45 5.27,-1.93 1.84,-0.48 3.66,-0.85 5.49,-1.1 1.84,-0.26 3.54,-0.43 5.13,-0.5 1.56,-0.07 2.91,-0.11 4,-0.11 1.31,0 2.49,0.02 3.52,0.05 1.02,0.03 2.34,0.12 3.96,0.29 0.37,-1.69 0.65,-3.17 0.88,-4.46 0.21,-1.28 0.37,-2.39 0.43,-3.3 0.08,-0.91 0.08,-1.74 0,-2.47 -0.06,-0.73 -0.32,-1.4 -0.77,-1.98 -0.73,-1.4 -2.02,-2.34 -3.84,-2.86 -1.84,-0.51 -3.49,-0.78 -4.96,-0.78 -2.63,0 -4.76,0.39 -6.38,1.16 -1.62,0.78 -2.89,1.68 -3.84,2.7 -0.96,1.03 -1.63,2.07 -2.03,3.13 -0.41,1.06 -0.67,1.85 -0.83,2.36l-10.33 0c0.44,-1.45 1.06,-3.1 1.87,-4.9 0.8,-1.78 2.2,-3.64 4.17,-5.55 1.32,-1.17 2.79,-2.14 4.41,-2.91 1.6,-0.77 3.25,-1.37 4.94,-1.82 1.68,-0.44 3.37,-0.75 5.06,-0.93 1.68,-0.18 3.26,-0.27 4.73,-0.27 1.97,0 3.94,0.17 5.88,0.49 1.94,0.34 3.72,0.84 5.33,1.49 1.62,0.67 3.01,1.51 4.18,2.54 1.18,1.02 1.98,2.22 2.41,3.62 0.52,1.69 0.72,3.2 0.61,4.56 -0.11,1.35 -0.28,2.66 -0.5,3.91l-6.05 26.39c-0.08,0.21 -0.18,0.8 -0.34,1.75 -0.14,0.97 -0.35,2.09 -0.59,3.42 -0.26,1.32 -0.5,2.74 -0.71,4.28 -0.23,1.54 -0.38,3.01 -0.44,4.4l-9.35 0z"/>
   <polygon class="fil0" points="766.52,457.1 776.85,457.1 760.03,536.36 749.69,536.36 "/>
   <path class="fil0" d="M855.24 508c0.88,-4.03 1.14,-7.24 0.83,-9.61 -0.34,-2.38 -0.9,-4.32 -1.7,-5.78 -0.82,-1.46 -2.11,-2.77 -3.91,-3.9 -1.81,-1.14 -4.17,-1.71 -7.09,-1.71 -2.57,0 -4.81,0.46 -6.71,1.38 -1.9,0.91 -3.56,2.08 -4.95,3.51 -1.4,1.43 -2.59,3.01 -3.56,4.73 -0.99,1.72 -1.82,3.4 -2.48,5.06 -0.66,1.65 -1.15,3.15 -1.48,4.51 -0.34,1.36 -0.54,2.33 -0.61,2.92 -0.51,2.41 -0.84,4.89 -0.99,7.41 -0.15,2.54 0.1,4.82 0.77,6.83 0.65,2.01 1.85,3.66 3.56,4.94 1.72,1.29 4.16,1.93 7.32,1.93 4.02,0 7.36,-0.95 10,-2.86 2.64,-1.89 4.72,-4.12 6.26,-6.65 1.54,-2.52 2.65,-4.99 3.36,-7.42 0.7,-2.42 1.16,-4.18 1.37,-5.28zm10.45 -50.9l10.34 0 -14.95 70.48c-0.07,0.29 -0.17,0.78 -0.29,1.48 -0.11,0.7 -0.23,1.48 -0.38,2.32 -0.14,0.84 -0.3,1.7 -0.44,2.59 -0.15,0.88 -0.25,1.68 -0.33,2.41l-10.33 0 1.64 -8.79c-0.58,0.8 -1.34,1.72 -2.25,2.75 -0.92,1.03 -2.22,2.05 -3.9,3.08 -2.65,1.53 -5.23,2.59 -7.81,3.19 -2.56,0.59 -4.8,0.88 -6.7,0.88 -1.84,0 -4.03,-0.33 -6.6,-0.98 -2.57,-0.67 -4.89,-1.98 -6.98,-3.97 -2.09,-1.98 -3.65,-4.8 -4.67,-8.46 -1.03,-3.66 -0.88,-8.54 0.43,-14.62 1.11,-5.28 2.75,-9.81 4.96,-13.58 2.19,-3.78 4.72,-6.88 7.58,-9.34 2.86,-2.45 5.9,-4.28 9.12,-5.44 3.23,-1.17 6.45,-1.77 9.68,-1.77 2.94,0 5.35,0.39 7.26,1.15 1.9,0.78 3.4,1.68 4.51,2.71 1.09,1.02 1.88,2.04 2.36,3.07 0.48,1.03 0.83,1.84 1.04,2.42l6.71 -31.55z"/>
   <path class="fil0" d="M915.93 509.54c-0.95,-0.15 -1.85,-0.24 -2.69,-0.27 -0.84,-0.03 -1.89,-0.06 -3.13,-0.06 -1.03,0 -2.65,0.06 -4.89,0.16 -2.25,0.11 -4.55,0.52 -6.94,1.21 -2.38,0.7 -4.58,1.82 -6.59,3.35 -2.01,1.55 -3.31,3.71 -3.9,6.49 -0.22,0.88 -0.27,1.86 -0.17,2.97 0.12,1.09 0.48,2.13 1.11,3.12 0.62,0.99 1.58,1.82 2.91,2.48 1.33,0.66 3.15,0.99 5.5,0.99 5.28,0 9.64,-1.98 13.09,-5.94 0.8,-0.96 1.46,-1.86 1.97,-2.75 0.52,-0.88 0.96,-1.88 1.32,-2.96 0.36,-1.1 0.73,-2.37 1.1,-3.79 0.37,-1.43 0.81,-3.1 1.32,-5zm-4.51 26.82c-0.07,-1.39 -0.03,-2.74 0.11,-4.07 0.15,-1.31 0.37,-2.71 0.66,-4.17 -1.75,2.27 -3.52,4.07 -5.27,5.39 -1.76,1.32 -3.48,2.33 -5.18,3.02 -1.69,0.7 -3.26,1.14 -4.72,1.32 -1.48,0.19 -2.79,0.28 -3.96,0.28 -3.15,0 -5.87,-0.42 -8.14,-1.27 -2.27,-0.83 -4.06,-1.99 -5.38,-3.45 -1.32,-1.48 -2.2,-3.2 -2.64,-5.16 -0.44,-1.99 -0.41,-4.11 0.11,-6.39 0.22,-1.1 0.61,-2.34 1.15,-3.73 0.55,-1.39 1.34,-2.81 2.36,-4.23 1.03,-1.42 2.31,-2.86 3.86,-4.29 1.54,-1.42 3.45,-2.73 5.72,-3.89 1.68,-0.81 3.44,-1.45 5.27,-1.93 1.84,-0.48 3.67,-0.85 5.5,-1.1 1.84,-0.26 3.54,-0.43 5.12,-0.5 1.58,-0.07 2.92,-0.11 4.02,-0.11 1.31,0 2.48,0.02 3.51,0.05 1.02,0.03 2.34,0.12 3.96,0.29 0.37,-1.69 0.66,-3.17 0.88,-4.46 0.22,-1.28 0.37,-2.39 0.43,-3.3 0.09,-0.91 0.09,-1.74 0,-2.47 -0.07,-0.73 -0.33,-1.4 -0.77,-1.98 -0.73,-1.4 -2.02,-2.34 -3.84,-2.86 -1.84,-0.51 -3.48,-0.78 -4.96,-0.78 -2.64,0 -4.77,0.39 -6.38,1.16 -1.62,0.78 -2.9,1.68 -3.84,2.7 -0.95,1.03 -1.63,2.07 -2.04,3.13 -0.41,1.06 -0.68,1.85 -0.82,2.36l-10.34 0c0.44,-1.45 1.06,-3.1 1.87,-4.9 0.81,-1.78 2.2,-3.64 4.18,-5.55 1.32,-1.17 2.79,-2.14 4.4,-2.91 1.61,-0.77 3.26,-1.37 4.95,-1.82 1.68,-0.44 3.36,-0.75 5.05,-0.93 1.69,-0.18 3.27,-0.27 4.73,-0.27 1.98,0 3.95,0.17 5.89,0.49 1.94,0.34 3.72,0.84 5.33,1.49 1.61,0.67 3.01,1.51 4.18,2.54 1.16,1.02 1.98,2.22 2.41,3.62 0.51,1.69 0.73,3.2 0.62,4.56 -0.11,1.35 -0.28,2.66 -0.5,3.91l-6.05 26.39c-0.07,0.21 -0.18,0.8 -0.33,1.75 -0.15,0.97 -0.35,2.09 -0.6,3.42 -0.27,1.32 -0.5,2.74 -0.71,4.28 -0.23,1.54 -0.38,3.01 -0.45,4.4l-9.35 0z"/>
   <polygon class="fil0" points="986.29,456.99 997.29,456.99 980.46,536.36 969.48,536.36 "/>
   <path class="fil0" d="M1010.7 487.55l1.31 -6.38 10.34 0 -1.86 8.91c0.43,-0.59 1.13,-1.43 2.07,-2.53 0.96,-1.1 2.22,-2.2 3.8,-3.29 1.57,-1.1 3.52,-2.08 5.82,-2.92 2.31,-0.84 5.05,-1.26 8.19,-1.26 1.25,0 2.95,0.18 5.12,0.55 2.16,0.38 4.19,1.2 6.09,2.48 1.91,1.28 3.41,3.17 4.51,5.66 1.1,2.49 1.18,5.86 0.22,10.11l-7.91 37.48 -10.56 0 7.48 -35.07c0.36,-1.82 0.53,-3.55 0.49,-5.16 -0.04,-1.6 -0.53,-3.04 -1.49,-4.28 -1.02,-1.25 -2.34,-2.18 -3.95,-2.8 -1.61,-0.62 -3.29,-0.94 -5.06,-0.94 -1.9,0 -3.79,0.33 -5.66,1 -1.86,0.66 -3.61,1.68 -5.22,3.08 -1.61,1.39 -3.02,3.11 -4.22,5.16 -1.22,2.05 -2.16,4.46 -2.81,7.25l-6.71 31.77 -10.34 0 10.34 -48.81z"/>
   <path class="fil0" d="M1111.84 508c0.87,-4.03 1.16,-7.24 0.83,-9.61 -0.33,-2.38 -0.91,-4.32 -1.71,-5.78 -0.81,-1.46 -2.1,-2.77 -3.9,-3.9 -1.8,-1.14 -4.17,-1.71 -7.1,-1.71 -2.57,0 -4.79,0.46 -6.7,1.38 -1.91,0.91 -3.56,2.08 -4.95,3.51 -1.4,1.43 -2.59,3.01 -3.58,4.73 -0.99,1.72 -1.81,3.4 -2.48,5.06 -0.65,1.65 -1.14,3.15 -1.48,4.51 -0.33,1.36 -0.54,2.33 -0.61,2.92 -0.51,2.41 -0.84,4.89 -0.99,7.41 -0.14,2.54 0.11,4.82 0.77,6.83 0.67,2.01 1.85,3.66 3.58,4.94 1.72,1.29 4.16,1.93 7.31,1.93 4.03,0 7.37,-0.95 10,-2.86 2.64,-1.89 4.73,-4.12 6.27,-6.65 1.54,-2.52 2.66,-4.99 3.35,-7.42 0.7,-2.42 1.16,-4.18 1.38,-5.28zm10.45 -50.9l10.33 0 -14.95 70.48c-0.07,0.29 -0.17,0.78 -0.27,1.48 -0.12,0.7 -0.24,1.48 -0.38,2.32 -0.15,0.84 -0.3,1.7 -0.44,2.59 -0.15,0.88 -0.26,1.68 -0.34,2.41l-10.33 0 1.65 -8.79c-0.59,0.8 -1.34,1.72 -2.26,2.75 -0.9,1.03 -2.21,2.05 -3.9,3.08 -2.63,1.53 -5.23,2.59 -7.8,3.19 -2.57,0.59 -4.8,0.88 -6.71,0.88 -1.84,0 -4.03,-0.33 -6.59,-0.98 -2.57,-0.67 -4.9,-1.98 -6.99,-3.97 -2.09,-1.98 -3.65,-4.8 -4.67,-8.46 -1.03,-3.66 -0.88,-8.54 0.45,-14.62 1.09,-5.28 2.75,-9.81 4.95,-13.58 2.19,-3.78 4.73,-6.88 7.58,-9.34 2.86,-2.45 5.9,-4.28 9.12,-5.44 3.23,-1.17 6.45,-1.77 9.68,-1.77 2.93,0 5.35,0.39 7.26,1.15 1.9,0.78 3.4,1.68 4.5,2.71 1.1,1.02 1.89,2.04 2.36,3.07 0.47,1.03 0.82,1.84 1.05,2.42l6.7 -31.55z"/>
   <path class="fil0" d="M1189.57 455.01l-16.61 15.83 -7.14 0 12.31 -15.83 11.43 0zm-33.97 26.17l-7.6 35.51c-0.29,1.32 -0.47,2.71 -0.55,4.18 -0.07,1.47 0.18,2.79 0.77,3.96 0.6,1.17 1.56,2.15 2.92,2.91 1.35,0.77 3.35,1.17 5.99,1.17 2.57,0 5.11,-0.48 7.65,-1.43 2.52,-0.95 4.74,-2.54 6.65,-4.73 1.53,-1.69 2.6,-3.48 3.19,-5.39 0.58,-1.9 1.03,-3.56 1.32,-4.95l6.71 -31.22 10.66 0 -9.56 44.85c-0.07,0.3 -0.18,0.85 -0.33,1.66 -0.14,0.81 -0.29,1.72 -0.43,2.74 -0.16,1.04 -0.34,2.09 -0.56,3.2 -0.22,1.1 -0.39,2.01 -0.54,2.74l-10.78 0 1.76 -9.45c-0.66,0.96 -1.51,2.02 -2.53,3.19 -1.03,1.18 -2.31,2.26 -3.85,3.25 -1.54,0.99 -3.42,1.84 -5.61,2.53 -2.2,0.69 -4.77,1.05 -7.69,1.05 -3.45,0 -6.33,-0.46 -8.64,-1.38 -2.31,-0.92 -4.11,-2.2 -5.38,-3.84 -1.29,-1.65 -2.09,-3.63 -2.42,-5.94 -0.34,-2.3 -0.21,-4.82 0.38,-7.52l7.91 -37.05 10.56 0z"/>
   <path class="fil0" d="M1211.01 519.99c-0.22,1.03 -0.31,2.13 -0.27,3.29 0.03,1.18 0.4,2.25 1.1,3.24 0.69,0.99 1.76,1.82 3.19,2.48 1.43,0.66 3.39,0.99 5.87,0.99 2.13,0 4.06,-0.23 5.78,-0.71 1.72,-0.47 3.28,-1.41 4.67,-2.8 1.53,-1.54 2.49,-3.26 2.86,-5.17 0.29,-1.32 0.29,-2.42 0,-3.3 -0.3,-0.88 -0.89,-1.59 -1.76,-2.15 -0.88,-0.55 -2.04,-1.04 -3.46,-1.48 -1.44,-0.44 -3.15,-0.88 -5.12,-1.32 -2.71,-0.66 -5.28,-1.36 -7.75,-2.1 -2.45,-0.72 -4.51,-1.68 -6.15,-2.85 -1.66,-1.17 -2.85,-2.68 -3.58,-4.51 -0.73,-1.83 -0.8,-4.18 -0.22,-7.03 0.51,-2.5 1.53,-4.79 3.03,-6.88 1.5,-2.08 3.35,-3.84 5.55,-5.27 2.2,-1.43 4.69,-2.55 7.48,-3.36 2.79,-0.8 5.78,-1.2 9.02,-1.2 1.76,0 3.6,0.14 5.55,0.44 1.93,0.3 3.75,0.77 5.44,1.42 1.69,0.67 3.18,1.55 4.46,2.64 1.29,1.1 2.18,2.46 2.69,4.07 0.37,1.55 0.47,2.97 0.33,4.3 -0.15,1.32 -0.37,2.56 -0.65,3.73l-10.56 0c0.51,-2.05 0.53,-3.68 0.05,-4.89 -0.48,-1.21 -1.21,-2.12 -2.2,-2.75 -0.99,-0.62 -2.09,-1.01 -3.3,-1.16 -1.2,-0.15 -2.28,-0.22 -3.24,-0.22 -0.37,0 -1.18,0.03 -2.41,0.11 -1.25,0.07 -2.59,0.37 -4.02,0.87 -1.43,0.53 -2.77,1.31 -4.01,2.36 -1.25,1.07 -2.08,2.6 -2.53,4.57 -0.22,1.25 -0.14,2.28 0.22,3.13 0.36,0.85 0.9,1.53 1.59,2.03 0.7,0.53 1.45,0.9 2.25,1.16 0.81,0.25 1.58,0.49 2.31,0.72 3.59,0.87 6.56,1.62 8.91,2.24 2.35,0.62 4.23,1.21 5.66,1.77 1.43,0.56 2.56,1.1 3.41,1.64 0.84,0.56 1.6,1.2 2.26,1.93 1.24,1.47 1.98,3.09 2.19,4.89 0.21,1.81 0.15,3.57 -0.22,5.33 -0.66,3.08 -1.98,5.86 -3.96,8.36 -1.98,2.49 -4.15,4.36 -6.49,5.61 -2.72,1.47 -5.53,2.46 -8.46,2.97 -2.94,0.51 -5.83,0.76 -8.69,0.76 -2.79,0 -5.4,-0.32 -7.85,-0.93 -2.46,-0.62 -4.54,-1.63 -6.27,-3.02 -1.72,-1.4 -2.93,-3.25 -3.63,-5.56 -0.7,-2.32 -0.67,-5.12 0.05,-8.41l10.89 0z"/>
   <path class="fil0" d="M1259.82 480.95l9.79 0 2.41 -11.54 11 -3.29 -3.19 14.84 12.32 0 -1.65 7.59 -12.31 0 -7.03 33.1c-0.07,0.66 -0.18,1.42 -0.33,2.3 -0.14,0.88 -0.06,1.68 0.27,2.42 0.33,0.73 0.93,1.35 1.81,1.88 0.88,0.5 2.23,0.76 4.07,0.76 1.02,0 2.01,-0.06 2.97,-0.16 0.95,-0.11 1.65,-0.25 2.08,-0.38l-1.64 8.03c-1.03,0.14 -2.26,0.29 -3.68,0.43 -1.44,0.15 -3.11,0.22 -5.01,0.22 -4.77,0 -8.12,-0.83 -10.06,-2.48 -1.94,-1.65 -2.44,-4.74 -1.48,-9.29l7.81 -36.83 -9.79 0 1.64 -7.59z"/>
   <path class="fil0" d="M1303.02 492.39c0.45,-1.9 0.78,-3.79 1.05,-5.67 0.25,-1.87 0.53,-3.72 0.82,-5.54l10.44 0 -2.09 10.66c0.96,-1.9 2.05,-3.52 3.3,-4.84 1.24,-1.32 2.58,-2.4 4.02,-3.24 1.43,-0.85 2.86,-1.49 4.29,-1.93 1.43,-0.43 2.72,-0.72 3.9,-0.88 1.61,-0.21 3,-0.33 4.18,-0.33 1.17,0 2.19,0.04 3.08,0.11l-2.2 10.11c-0.44,-0.14 -1.07,-0.29 -1.87,-0.43 -0.37,-0.07 -0.8,-0.11 -1.31,-0.11l-1.66 0c-3.08,0 -5.67,0.43 -7.81,1.26 -2.12,0.85 -3.9,2.02 -5.32,3.52 -1.44,1.5 -2.57,3.28 -3.42,5.34 -0.84,2.05 -1.53,4.26 -2.03,6.59l-6.27 29.35 -10.44 0 9.34 -43.97z"/>
   <path class="fil0" d="M1351.73 457.21l12.42 0 -2.42 11.32 -12.42 0 2.42 -11.32zm-3.95 23.97l10.33 0 -11.76 55.19 -10.34 0 11.77 -55.19z"/>
   <path class="fil0" d="M1404.61 509.54c-0.95,-0.15 -1.86,-0.24 -2.7,-0.27 -0.84,-0.03 -1.89,-0.06 -3.13,-0.06 -1.02,0 -2.65,0.06 -4.89,0.16 -2.24,0.11 -4.54,0.52 -6.93,1.21 -2.38,0.7 -4.58,1.82 -6.6,3.35 -2.01,1.55 -3.31,3.71 -3.89,6.49 -0.22,0.88 -0.28,1.86 -0.17,2.97 0.12,1.09 0.48,2.13 1.1,3.12 0.62,0.99 1.6,1.82 2.91,2.48 1.32,0.66 3.16,0.99 5.5,0.99 5.28,0 9.64,-1.98 13.08,-5.94 0.8,-0.96 1.47,-1.86 1.98,-2.75 0.51,-0.88 0.95,-1.88 1.32,-2.96 0.37,-1.1 0.73,-2.37 1.1,-3.79 0.37,-1.43 0.8,-3.1 1.32,-5zm-4.51 26.82c-0.07,-1.39 -0.03,-2.74 0.11,-4.07 0.15,-1.31 0.37,-2.71 0.66,-4.17 -1.76,2.27 -3.52,4.07 -5.27,5.39 -1.76,1.32 -3.49,2.33 -5.18,3.02 -1.68,0.7 -3.26,1.14 -4.72,1.32 -1.48,0.19 -2.79,0.28 -3.96,0.28 -3.15,0 -5.87,-0.42 -8.14,-1.27 -2.27,-0.83 -4.07,-1.99 -5.38,-3.45 -1.32,-1.48 -2.21,-3.2 -2.65,-5.16 -0.44,-1.99 -0.4,-4.11 0.11,-6.39 0.22,-1.1 0.61,-2.34 1.16,-3.73 0.55,-1.39 1.34,-2.81 2.36,-4.23 1.03,-1.42 2.31,-2.86 3.86,-4.29 1.53,-1.42 3.44,-2.73 5.71,-3.89 1.68,-0.81 3.44,-1.45 5.27,-1.93 1.84,-0.48 3.66,-0.85 5.5,-1.1 1.84,-0.26 3.54,-0.43 5.12,-0.5 1.57,-0.07 2.91,-0.11 4.01,-0.11 1.31,0 2.48,0.02 3.52,0.05 1.02,0.03 2.34,0.12 3.96,0.29 0.37,-1.69 0.66,-3.17 0.89,-4.46 0.21,-1.28 0.36,-2.39 0.43,-3.3 0.08,-0.91 0.08,-1.74 0,-2.47 -0.06,-0.73 -0.33,-1.4 -0.77,-1.98 -0.73,-1.4 -2.02,-2.34 -3.84,-2.86 -1.84,-0.51 -3.49,-0.78 -4.96,-0.78 -2.63,0 -4.76,0.39 -6.37,1.16 -1.61,0.78 -2.89,1.68 -3.84,2.7 -0.96,1.03 -1.63,2.07 -2.04,3.13 -0.41,1.06 -0.68,1.85 -0.82,2.36l-10.33 0c0.44,-1.45 1.06,-3.1 1.87,-4.9 0.8,-1.78 2.19,-3.64 4.17,-5.55 1.33,-1.17 2.78,-2.14 4.4,-2.91 1.61,-0.77 3.25,-1.37 4.96,-1.82 1.68,-0.44 3.36,-0.75 5.06,-0.93 1.68,-0.18 3.26,-0.27 4.72,-0.27 1.98,0 3.94,0.17 5.88,0.49 1.95,0.34 3.72,0.84 5.33,1.49 1.61,0.67 3.01,1.51 4.19,2.54 1.17,1.02 1.98,2.22 2.41,3.62 0.52,1.69 0.72,3.2 0.62,4.56 -0.11,1.35 -0.28,2.66 -0.5,3.91l-6.05 26.39c-0.07,0.21 -0.18,0.8 -0.33,1.75 -0.15,0.97 -0.35,2.09 -0.6,3.42 -0.26,1.32 -0.5,2.74 -0.71,4.28 -0.23,1.54 -0.38,3.01 -0.44,4.4l-9.35 0z"/>
   <path class="fil0" d="M1140.9 332.64l-76.56 0 58.76 -276.4 76.57 0 -58.76 276.4zm-86.71 -195.23l-76.56 0c2.62,-10.72 0.89,-18.75 -4.78,-24.5 -5.3,-5.75 -14.61,-8.81 -27.62,-8.81 -17.62,0 -35.35,11.48 -38.28,25.27 -4.27,20.28 18.82,26.79 37.96,32.15 43.83,11.87 110.18,16.44 94.36,91.1 -12.37,58.19 -75.67,85.81 -139.6,85.81 -47.35,0 -88.39,-10.19 -100.85,-45.51 -4.47,-12.66 -5.26,-28.54 -1.36,-48.34l1.36 0 75.2 0c-5.87,26.02 10.21,40.2 37.78,40.2 17.67,0 42.17,-9.19 46.06,-27.57 7.98,-37.52 -50.4,-29.48 -104.88,-55.9 -25.33,-12.25 -33.69,-37.51 -27.37,-67.38 16.97,-65.45 78.23,-83.44 136.02,-83.44 57.05,0 111.28,20.29 92.58,86.9zm-285.77 29.47l-11.36 53.6 -123.26 0 -12.44 58.57 133.98 0 -11.42 53.59 -210.55 0 58.76 -276.4 206.67 0 3.87 0 -3.87 18.18 -7.55 35.42 -133.98 0 -12.13 57.04 123.27 0zm-245.96 -29.47l-76.57 0c2.62,-10.72 0.9,-18.75 -4.78,-24.5 -5.3,-5.75 -14.61,-8.81 -27.63,-8.81 -17.6,0 -35.35,11.48 -38.28,25.27 -4.28,20.28 18.82,26.79 37.96,32.15 43.84,11.87 110.19,16.44 94.37,91.1 -12.37,58.19 -75.67,85.81 -139.6,85.81 -64.31,0 -117.01,-18.81 -102.21,-93.84l76.56 0c-5.86,26.02 10.21,40.2 37.78,40.2 17.67,0 42.18,-9.19 46.07,-27.57 7.97,-37.52 -50.41,-29.48 -104.9,-55.9 -25.33,-12.25 -33.69,-37.51 -27.37,-67.38 16.97,-65.45 78.22,-83.44 136.02,-83.44 57.04,0 111.28,20.29 92.58,86.9zm705.97 -70.52l0 -10.24 78.38 0 0 -56.65 -1154.26 0 0 56.65 78.41 0 0 10.24 -78.41 0 0 55.06 78.41 0 0 10.25 -78.41 0 0 56.78 78.41 0 0 10.23 -78.41 0 0 57.72 78.41 0 0 10.23 -78.41 0 0 55.26 78.41 0 0 10.25 -78.41 0 0 56.12 1154.26 0 0 -56.12 -78.38 0 0 -10.25 78.38 0 0 -55.26 -78.38 0 0 -10.23 78.38 0 0 -57.72 -78.38 0 0 -10.23 78.38 0 0 -56.78 -78.38 0 0 -10.25 78.38 0 0 -55.06 -78.38 0z"/>
   <path class="fil0" d="M18.79 672.1l8.62 0c1.77,0.12 3.33,-0.02 4.67,-0.42 1.34,-0.4 2.47,-0.99 3.39,-1.8 0.92,-0.85 1.61,-1.78 2.06,-2.79 0.47,-1.01 0.69,-2.14 0.69,-3.43 0,-1.41 -0.29,-2.62 -0.87,-3.66 -0.58,-1.04 -1.44,-1.87 -2.62,-2.48 -1.16,-0.6 -2.47,-1.07 -3.93,-1.37 -1.47,-0.31 -3.09,-0.47 -4.87,-0.47l-7.15 -0.17 0 16.59zm13.67 -29.52c4.52,0.13 8.39,0.63 11.63,1.51 3.25,0.89 5.83,2.22 7.79,3.99 1.95,1.7 3.43,3.87 4.41,6.51 0.97,2.62 1.46,5.65 1.46,9.07 0,3.54 -0.49,6.6 -1.46,9.17 -0.98,2.56 -2.46,4.64 -4.41,6.24 -1.89,1.52 -3.92,2.77 -6.09,3.75 -2.17,0.98 -4.42,1.66 -6.74,2.01 -0.49,0.06 -0.97,0.15 -1.46,0.24 -0.49,0.08 -0.97,0.13 -1.47,0.13 -0.49,0.06 -0.98,0.09 -1.46,0.09l-1.46 0 -14.39 -0.19 0 23.84 -18.79 0 0 -66.37 32.45 0z"/>
   <polygon class="fil0" points="116.13,642.58 116.13,656.24 84.41,656.24 84.41,669.25 114.02,669.25 114.02,683 84.41,683 84.41,695.92 116.13,695.92 116.13,708.93 65.63,708.93 65.63,642.58 "/>
   <polygon class="fil0" points="145.73,642.58 145.73,695.19 175.34,695.19 175.34,708.93 126.94,708.93 126.94,642.58 "/>
   <path class="fil0" d="M201.51 683.7c0.64,2.47 1.6,4.84 2.88,7.1 1.28,2.25 2.94,3.96 4.95,5.09 2.02,1.13 4.37,1.69 7.06,1.69 2.32,0 4.38,-0.44 6.18,-1.32 1.81,-0.89 3.32,-2.25 4.54,-4.08 1.22,-1.77 2.15,-4.02 2.79,-6.73 0.65,-2.72 0.97,-5.88 0.97,-9.49 0,-2.87 -0.29,-5.58 -0.87,-8.12 -0.58,-2.54 -1.48,-4.87 -2.7,-7.01 -1.16,-2.14 -2.72,-3.75 -4.67,-4.86 -1.97,-1.1 -4.28,-1.65 -6.97,-1.65 -2.7,0 -4.98,0.56 -6.88,1.7 -1.89,1.13 -3.39,2.83 -4.48,5.08 -1.1,2.26 -1.96,4.63 -2.57,7.11 -0.61,2.47 -1.01,5.06 -1.19,7.74l0 -0.18c0,2.81 0.33,5.45 0.97,7.93zm-18.42 -19.94c1.2,-4.03 2.89,-7.89 5.09,-11.55 2.2,-3.61 5.65,-6.33 10.36,-8.16 4.71,-1.83 10.66,-2.75 17.87,-2.75l0.27 0 0.27 0 0.23 0 0.22 0 0.27 0 0.29 0 0.22 0 0.24 0c3.96,0.18 7.78,0.89 11.46,2.11 3.65,1.22 7.14,3 10.44,5.31 3.29,2.32 5.79,5.76 7.47,10.31 1.69,4.56 2.52,10.2 2.52,16.91 0,0.92 -0.02,1.84 -0.05,2.74 -0.04,0.92 -0.11,1.88 -0.23,2.85 -0.06,0.5 -0.12,0.98 -0.18,1.47 -0.06,0.49 -0.12,0.97 -0.19,1.47 -0.12,0.54 -0.22,1.06 -0.31,1.54 -0.09,0.49 -0.2,0.98 -0.32,1.48 -0.73,2.93 -1.88,5.71 -3.44,8.34 -1.56,2.62 -3.5,5.12 -5.82,7.52 -2.32,2.38 -5.36,4.15 -9.12,5.31 -3.76,1.17 -8.26,1.74 -13.52,1.74 -6.96,0 -12.77,-0.81 -17.41,-2.42 -4.65,-1.62 -8.16,-4.08 -10.54,-7.38 -2.38,-3.3 -4.25,-6.77 -5.59,-10.4 -1.35,-3.64 -2.17,-7.47 -2.48,-11.51l0 -0.18 0 -0.27c-0.06,-0.07 -0.09,-0.15 -0.09,-0.23l0 -0.23 0 -0.55 0 -0.55 0 -0.17c0.2,-4.47 0.88,-8.72 2.07,-12.75z"/>
   <polygon class="fil0" points="337.02,642.58 337.02,656.24 308.89,656.24 308.89,671.45 334.82,671.45 334.82,684.37 308.89,684.37 308.89,708.93 290.09,708.93 290.09,642.58 "/>
   <path class="fil0" d="M365.89 642.58l0 38.96c0,2.45 0.25,4.62 0.73,6.55 0.49,1.92 1.23,3.62 2.21,5.09 1.04,1.46 2.39,2.57 4.03,3.29 1.65,0.74 3.63,1.1 5.96,1.1 2.69,0 4.95,-0.36 6.78,-1.1 1.83,-0.72 3.21,-1.86 4.12,-3.39 0.92,-1.52 1.62,-3.29 2.12,-5.3 0.48,-2.02 0.73,-4.28 0.73,-6.79l0 -38.4 18.79 0 0 41.06c0,4.1 -0.64,7.79 -1.93,11.08 -1.28,3.32 -3.18,6.24 -5.68,8.81 -2.57,2.57 -5.91,4.48 -10.04,5.74 -4.12,1.24 -9.09,1.87 -14.89,1.87 -4.83,0 -9.19,-0.61 -13.06,-1.84 -3.88,-1.21 -7.26,-3.11 -10.13,-5.67 -2.81,-2.57 -4.94,-5.44 -6.37,-8.62 -1.44,-3.17 -2.16,-6.66 -2.16,-10.44l0 -41.99 18.78 0z"/>
   <polygon class="fil0" points="477.71,642.58 477.71,656.24 456.82,656.24 456.82,708.93 438.76,708.93 438.76,656.24 417.86,656.24 417.86,642.58 "/>
   <path class="fil0" d="M503.74 642.58l0 38.96c0,2.45 0.24,4.62 0.73,6.55 0.49,1.92 1.22,3.62 2.2,5.09 1.04,1.46 2.38,2.57 4.04,3.29 1.64,0.74 3.63,1.1 5.95,1.1 2.69,0 4.95,-0.36 6.79,-1.1 1.84,-0.72 3.21,-1.86 4.13,-3.39 0.92,-1.52 1.62,-3.29 2.11,-5.3 0.49,-2.02 0.73,-4.28 0.73,-6.79l0 -38.4 18.78 0 0 41.06c0,4.1 -0.63,7.79 -1.93,11.08 -1.28,3.32 -3.17,6.24 -5.68,8.81 -2.57,2.57 -5.91,4.48 -10.03,5.74 -4.13,1.24 -9.1,1.87 -14.91,1.87 -4.82,0 -9.18,-0.61 -13.06,-1.84 -3.87,-1.21 -7.25,-3.11 -10.13,-5.67 -2.81,-2.57 -4.93,-5.44 -6.36,-8.62 -1.44,-3.17 -2.16,-6.66 -2.16,-10.44l0 -41.99 18.79 0z"/>
   <path class="fil0" d="M578.8 670.72l7.25 0c0.13,0.13 0.26,0.18 0.41,0.18l0.42 0 0.42 0 0.51 0c1.09,-0.05 2.16,-0.23 3.2,-0.5 1.04,-0.27 2.04,-0.62 3.02,-1.06 0.92,-0.49 1.61,-1.19 2.11,-2.11 0.49,-0.92 0.73,-2.11 0.73,-3.58 0,-1.22 -0.24,-2.29 -0.73,-3.21 -0.49,-0.92 -1.22,-1.68 -2.2,-2.29 -0.98,-0.55 -2.08,-0.97 -3.3,-1.28 -1.23,-0.31 -2.54,-0.47 -3.94,-0.47l-7.89 -0.17 0 14.48zm10.82 -28.14c0.12,0.13 0.26,0.18 0.41,0.18l0.42 0 0.41 0 0.5 0c3.11,0.07 6.09,0.41 8.94,1.01 2.85,0.6 5.57,1.47 8.2,2.56 2.57,1.16 4.51,2.89 5.82,5.18 1.32,2.3 1.97,5.15 1.97,8.57 0,2.69 -0.38,5.02 -1.14,7 -0.77,1.99 -1.95,3.6 -3.53,4.82 -1.53,1.22 -3.23,2.23 -5.13,3.03 -1.9,0.79 -3.91,1.37 -6.05,1.73 3.23,0.12 5.86,0.73 7.87,1.83 2.02,1.1 3.43,2.69 4.22,4.78 0.8,2.08 1.46,4.24 1.97,6.5 0.53,2.25 0.9,4.62 1.15,7.06l0 0.18 0 0.18 0 0.18c0,0.06 0.03,0.13 0.09,0.18 0.13,0.99 0.23,1.98 0.32,2.98 0.09,1.02 0.2,2.03 0.32,3.08 0.12,0.97 0.31,1.9 0.54,2.79 0.25,0.89 0.52,1.72 0.83,2.52l-20.16 0c-0.25,-0.49 -0.45,-1.08 -0.6,-1.74 -0.16,-0.67 -0.29,-1.41 -0.41,-2.21 -0.06,-0.79 -0.12,-1.6 -0.19,-2.42 -0.06,-0.83 -0.12,-1.66 -0.18,-2.52l0 -0.27 0 -0.27c-0.06,-0.07 -0.09,-0.15 -0.09,-0.23l0 -0.23 0 -0.55 0 -0.55c-0.13,-1.77 -0.33,-3.47 -0.64,-5.09 -0.31,-1.61 -0.71,-3.16 -1.19,-4.63 -0.49,-1.45 -1.31,-2.56 -2.48,-3.29 -1.16,-0.73 -2.63,-1.11 -4.4,-1.11l-8.62 -0.18 0 25.3 -18.79 0 0 -66.37 29.61 0z"/>
   <path class="fil0" d="M645.4 683.7c0.65,2.47 1.6,4.84 2.89,7.1 1.28,2.25 2.93,3.96 4.94,5.09 2.03,1.13 4.37,1.69 7.06,1.69 2.32,0 4.38,-0.44 6.19,-1.32 1.79,-0.89 3.31,-2.25 4.53,-4.08 1.22,-1.77 2.15,-4.02 2.79,-6.73 0.65,-2.72 0.96,-5.88 0.96,-9.49 0,-2.87 -0.29,-5.58 -0.87,-8.12 -0.58,-2.54 -1.48,-4.87 -2.7,-7.01 -1.17,-2.14 -2.72,-3.75 -4.67,-4.86 -1.96,-1.1 -4.29,-1.65 -6.97,-1.65 -2.69,0 -4.98,0.56 -6.87,1.7 -1.9,1.13 -3.4,2.83 -4.5,5.08 -1.1,2.26 -1.96,4.63 -2.56,7.11 -0.62,2.47 -1.02,5.06 -1.19,7.74l0 -0.18c0,2.81 0.32,5.45 0.96,7.93zm-18.42 -19.94c1.19,-4.03 2.89,-7.89 5.08,-11.55 2.2,-3.61 5.65,-6.33 10.36,-8.16 4.71,-1.83 10.66,-2.75 17.88,-2.75l0.27 0 0.27 0 0.23 0 0.23 0 0.28 0 0.27 0 0.22 0 0.23 0c3.96,0.18 7.79,0.89 11.46,2.11 3.67,1.22 7.14,3 10.44,5.31 3.31,2.32 5.79,5.76 7.47,10.31 1.69,4.56 2.53,10.2 2.53,16.91 0,0.92 -0.02,1.84 -0.05,2.74 -0.04,0.92 -0.1,1.88 -0.23,2.85 -0.07,0.5 -0.13,0.98 -0.19,1.47 -0.06,0.49 -0.11,0.97 -0.18,1.47 -0.11,0.54 -0.22,1.06 -0.31,1.54 -0.09,0.49 -0.2,0.98 -0.31,1.48 -0.74,2.93 -1.88,5.71 -3.44,8.34 -1.56,2.62 -3.5,5.12 -5.81,7.52 -2.33,2.38 -5.36,4.15 -9.13,5.31 -3.75,1.17 -8.27,1.74 -13.53,1.74 -6.95,0 -12.76,-0.81 -17.41,-2.42 -4.64,-1.62 -8.16,-4.08 -10.54,-7.38 -2.39,-3.3 -4.24,-6.77 -5.59,-10.4 -1.34,-3.64 -2.17,-7.47 -2.47,-11.51l0 -0.18 0 -0.27c-0.07,-0.07 -0.09,-0.15 -0.09,-0.23l0 -0.23 0 -0.55 0 -0.55 0 -0.17c0.18,-4.47 0.87,-8.72 2.06,-12.75z"/>
   <path class="fil0" d="M762.86 695.92c3.05,0.13 5.7,-0.25 7.93,-1.14 2.23,-0.88 4.11,-2.24 5.64,-4.08 1.53,-1.84 2.72,-3.76 3.57,-5.77 0.86,-2.01 1.38,-4.12 1.56,-6.33l0 -0.18c0,-0.06 0.03,-0.15 0.09,-0.28l0 -0.23 0 -0.22 0 -0.28 0 -0.27 0 -0.23 0 -0.23 0 -0.37 0 -0.46c-0.06,-0.13 -0.09,-0.24 -0.09,-0.37l0 -0.37c0,-0.3 -0.02,-0.59 -0.04,-0.86 -0.04,-0.29 -0.09,-0.54 -0.14,-0.78 -0.37,-2.14 -1.03,-4.18 -1.98,-6.14 -0.95,-1.96 -2.2,-3.82 -3.8,-5.59 -1.59,-1.77 -3.39,-3.1 -5.41,-3.99 -2.02,-0.88 -4.22,-1.33 -6.6,-1.33l-10.08 -0.17 0 39.68 9.35 0zm0 -53.34c7.57,0.13 13.89,1.02 18.98,2.7 5.06,1.68 8.89,4.21 11.45,7.56 2.57,3.37 4.51,7 5.82,10.91 1.31,3.92 2,8.08 2.06,12.47l0 0.28 0 0.18 0 0.18 0 0.28 0 0.19 0 0.18c-0.06,0.13 -0.08,0.25 -0.08,0.37l0 0.37 0 0.23 0 0.32c-0.2,5.26 -1.13,9.8 -2.8,13.65 -1.68,3.85 -4.11,6.97 -7.29,9.35 -3.19,2.45 -6.51,4.25 -9.99,5.4 -3.48,1.17 -7.12,1.74 -10.91,1.74l-35.37 0 0 -66.35 28.14 0z"/>
   <path class="fil0" d="M828.8 683.7c0.65,2.47 1.6,4.84 2.89,7.1 1.28,2.25 2.93,3.96 4.94,5.09 2.02,1.13 4.38,1.69 7.06,1.69 2.31,0 4.38,-0.44 6.19,-1.32 1.8,-0.89 3.31,-2.25 4.53,-4.08 1.22,-1.77 2.15,-4.02 2.8,-6.73 0.64,-2.72 0.96,-5.88 0.96,-9.49 0,-2.87 -0.3,-5.58 -0.87,-8.12 -0.58,-2.54 -1.49,-4.87 -2.71,-7.01 -1.16,-2.14 -2.72,-3.75 -4.67,-4.86 -1.96,-1.1 -4.28,-1.65 -6.97,-1.65 -2.69,0 -4.98,0.56 -6.87,1.7 -1.89,1.13 -3.4,2.83 -4.5,5.08 -1.1,2.26 -1.96,4.63 -2.56,7.11 -0.62,2.47 -1.02,5.06 -1.19,7.74l0 -0.18c0,2.81 0.32,5.45 0.95,7.93zm-18.42 -19.94c1.2,-4.03 2.89,-7.89 5.08,-11.55 2.21,-3.61 5.66,-6.33 10.36,-8.16 4.71,-1.83 10.67,-2.75 17.88,-2.75l0.28 0 0.26 0 0.23 0 0.23 0 0.27 0 0.27 0 0.22 0 0.23 0c3.97,0.18 7.79,0.89 11.46,2.11 3.67,1.22 7.14,3 10.44,5.31 3.3,2.32 5.79,5.76 7.47,10.31 1.69,4.56 2.53,10.2 2.53,16.91 0,0.92 -0.02,1.84 -0.05,2.74 -0.03,0.92 -0.09,1.88 -0.22,2.85 -0.07,0.5 -0.13,0.98 -0.19,1.47 -0.06,0.49 -0.11,0.97 -0.18,1.47 -0.12,0.54 -0.22,1.06 -0.31,1.54 -0.09,0.49 -0.2,0.98 -0.31,1.48 -0.74,2.93 -1.88,5.71 -3.45,8.34 -1.56,2.62 -3.5,5.12 -5.81,7.52 -2.33,2.38 -5.36,4.15 -9.13,5.31 -3.75,1.17 -8.26,1.74 -13.52,1.74 -6.96,0 -12.77,-0.81 -17.41,-2.42 -4.64,-1.62 -8.16,-4.08 -10.54,-7.38 -2.39,-3.3 -4.24,-6.77 -5.59,-10.4 -1.34,-3.64 -2.17,-7.47 -2.47,-11.51l0 -0.18 0 -0.27c-0.07,-0.07 -0.09,-0.15 -0.09,-0.23l0 -0.23 0 -0.55 0 -0.55 0 -0.17c0.18,-4.47 0.87,-8.72 2.05,-12.75z"/>
   <polygon class="fil0" points="972.19,642.58 972.19,656.24 951.29,656.24 951.29,708.93 933.24,708.93 933.24,656.24 912.34,656.24 912.34,642.58 "/>
   <path class="fil0" d="M996.75 670.72l7.24 0c0.13,0.13 0.26,0.18 0.41,0.18l0.41 0 0.42 0 0.51 0c1.1,-0.05 2.16,-0.23 3.2,-0.5 1.04,-0.27 2.05,-0.62 3.03,-1.06 0.91,-0.49 1.61,-1.19 2.1,-2.11 0.49,-0.92 0.73,-2.11 0.73,-3.58 0,-1.22 -0.24,-2.29 -0.73,-3.21 -0.49,-0.92 -1.22,-1.68 -2.2,-2.29 -0.98,-0.55 -2.08,-0.97 -3.3,-1.28 -1.22,-0.31 -2.54,-0.47 -3.95,-0.47l-7.88 -0.17 0 14.48zm10.82 -28.14c0.11,0.13 0.26,0.18 0.41,0.18l0.42 0 0.41 0 0.5 0c3.12,0.07 6.09,0.41 8.94,1.01 2.84,0.6 5.57,1.47 8.2,2.56 2.57,1.16 4.51,2.89 5.82,5.18 1.32,2.3 1.98,5.15 1.98,8.57 0,2.69 -0.39,5.02 -1.15,7 -0.77,1.99 -1.95,3.6 -3.53,4.82 -1.53,1.22 -3.24,2.23 -5.13,3.03 -1.9,0.79 -3.91,1.37 -6.05,1.73 3.24,0.12 5.87,0.73 7.88,1.83 2.02,1.1 3.43,2.69 4.22,4.78 0.8,2.08 1.46,4.24 1.97,6.5 0.53,2.25 0.9,4.62 1.15,7.06l0 0.18 0 0.18 0 0.18c0,0.06 0.03,0.13 0.09,0.18 0.13,0.99 0.23,1.98 0.32,2.98 0.09,1.02 0.2,2.03 0.31,3.08 0.12,0.97 0.31,1.9 0.55,2.79 0.25,0.89 0.53,1.72 0.84,2.52l-20.17 0c-0.25,-0.49 -0.45,-1.08 -0.6,-1.74 -0.15,-0.67 -0.3,-1.41 -0.41,-2.21 -0.07,-0.79 -0.13,-1.6 -0.19,-2.42 -0.06,-0.83 -0.12,-1.66 -0.18,-2.52l0 -0.27 0 -0.27c-0.06,-0.07 -0.09,-0.15 -0.09,-0.23l0 -0.23 0 -0.55 0 -0.55c-0.11,-1.77 -0.33,-3.47 -0.64,-5.09 -0.31,-1.61 -0.71,-3.16 -1.19,-4.63 -0.5,-1.45 -1.32,-2.56 -2.48,-3.29 -1.16,-0.73 -2.62,-1.11 -4.4,-1.11l-8.61 -0.18 0 25.3 -18.8 0 0 -66.37 29.62 0z"/>
   <path class="fil0" d="M1076.13 656.24l-8.71 26.77 16.59 0 -7.88 -26.77zm12.19 -13.66l26.02 66.37 -20.9 0 -4.4 -12.28 -25.93 0 -4.31 12.28 -19.53 0 26.67 -66.37 22.37 0z"/>
   <path class="fil0" d="M1150.46 695.92c1.4,0.13 2.62,0.07 3.62,-0.17 1.02,-0.26 1.82,-0.65 2.43,-1.2 0.68,-0.55 1.19,-1.13 1.56,-1.75 0.37,-0.61 0.64,-1.21 0.82,-1.83l0 -0.18c0,-0.06 0.02,-0.13 0.09,-0.18l0 -0.27 0 -0.18c0,-0.07 0.03,-0.12 0.1,-0.18l0 -0.18 0 -0.19 0 -0.32 0 -0.22c-0.07,-0.13 -0.1,-0.23 -0.1,-0.33l0 -0.24c-0.06,-0.17 -0.1,-0.37 -0.14,-0.59 -0.04,-0.22 -0.11,-0.45 -0.23,-0.69 -0.24,-0.55 -0.55,-1.1 -0.95,-1.65 -0.4,-0.55 -0.91,-1.07 -1.52,-1.56 -0.61,-0.48 -1.33,-0.86 -2.15,-1.14 -0.82,-0.28 -1.77,-0.42 -2.8,-0.42l-10.82 -0.19 0 13.66 10.08 0zm-0.73 -27.4c1.4,0.12 2.62,0.04 3.65,-0.23 1.05,-0.27 1.87,-0.69 2.48,-1.24 0.61,-0.55 1.07,-1.21 1.38,-2.02 0.31,-0.8 0.45,-1.74 0.45,-2.85 0,-0.85 -0.18,-1.68 -0.54,-2.47 -0.37,-0.79 -0.89,-1.5 -1.57,-2.11 -0.73,-0.67 -1.59,-1.16 -2.56,-1.46 -1,-0.31 -2.09,-0.46 -3.3,-0.46l-9.36 -0.18 0 13.01 9.36 0zm1.46 -25.94c0.55,0.13 1.25,0.2 2.1,0.23 0.86,0.03 1.87,0.08 3.04,0.14 1.15,0.07 2.33,0.2 3.52,0.41 1.2,0.21 2.45,0.5 3.72,0.88 1.59,0.42 3.13,1.05 4.63,1.88 1.5,0.81 2.91,1.78 4.26,2.88 1.41,1.16 2.48,2.6 3.25,4.31 0.76,1.7 1.24,3.73 1.43,6.05l0 0.18 0 0.18 0 0.14c0,0.02 0.02,0.07 0.09,0.14l0 0.17 0 0.19 0 0.13 0 0.14c0,1.83 -0.34,3.55 -1.01,5.13 -0.67,1.58 -1.64,3.02 -2.92,4.31 -1.36,1.28 -2.89,2.3 -4.63,3.03 -1.74,0.73 -3.72,1.18 -5.91,1.37l0.08 0 0 0.09 0.19 0c1.95,0.55 3.82,1.28 5.59,2.16 1.78,0.89 3.48,1.94 5.13,3.16 1.59,1.24 2.8,2.77 3.62,4.63 0.83,1.87 1.24,4.05 1.24,6.55 0,3.24 -0.59,6 -1.74,8.29 -1.16,2.29 -2.91,4.15 -5.23,5.55 -2.27,1.34 -5.1,2.35 -8.52,3.02 -3.43,0.67 -7.4,1 -11.92,1l-29.61 0 0 -66.35 29.61 0z"/>
   <path class="fil0" d="M1219.02 656.24l-8.71 26.77 16.6 0 -7.88 -26.77zm12.19 -13.66l26.03 66.37 -20.9 0 -4.39 -12.28 -25.93 0 -4.31 12.28 -19.53 0 26.66 -66.37 22.37 0z"/>
   <polygon class="fil0" points="1283.27,642.58 1283.27,695.19 1312.88,695.19 1312.88,708.93 1264.48,708.93 1264.48,642.58 "/>
   <polygon class="fil0" points="1339.55,642.58 1339.55,669.25 1361.92,669.25 1361.92,642.58 1380.7,642.58 1380.7,708.93 1361.92,708.93 1361.92,682.26 1339.55,682.26 1339.55,708.93 1320.75,708.93 1320.75,642.58 "/>
   <path class="fil0" d="M1410.54 683.7c0.65,2.47 1.6,4.84 2.89,7.1 1.28,2.25 2.92,3.96 4.94,5.09 2.03,1.13 4.37,1.69 7.06,1.69 2.32,0 4.38,-0.44 6.19,-1.32 1.79,-0.89 3.31,-2.25 4.53,-4.08 1.22,-1.77 2.15,-4.02 2.8,-6.73 0.65,-2.72 0.96,-5.88 0.96,-9.49 0,-2.87 -0.29,-5.58 -0.87,-8.12 -0.58,-2.54 -1.48,-4.87 -2.71,-7.01 -1.16,-2.14 -2.72,-3.75 -4.67,-4.86 -1.95,-1.1 -4.28,-1.65 -6.97,-1.65 -2.69,0 -4.98,0.56 -6.87,1.7 -1.89,1.13 -3.39,2.83 -4.49,5.08 -1.1,2.26 -1.96,4.63 -2.56,7.11 -0.62,2.47 -1.02,5.06 -1.19,7.74l0 -0.18c0,2.81 0.31,5.45 0.96,7.93zm-18.42 -19.94c1.19,-4.03 2.89,-7.89 5.08,-11.55 2.2,-3.61 5.66,-6.33 10.36,-8.16 4.71,-1.83 10.66,-2.75 17.88,-2.75l0.28 0 0.26 0 0.23 0 0.23 0 0.27 0 0.27 0 0.22 0 0.23 0c3.97,0.18 7.8,0.89 11.46,2.11 3.67,1.22 7.15,3 10.45,5.31 3.3,2.32 5.79,5.76 7.47,10.31 1.69,4.56 2.53,10.2 2.53,16.91 0,0.92 -0.02,1.84 -0.05,2.74 -0.03,0.92 -0.1,1.88 -0.22,2.85 -0.06,0.5 -0.12,0.98 -0.19,1.47 -0.07,0.49 -0.12,0.97 -0.18,1.47 -0.12,0.54 -0.23,1.06 -0.32,1.54 -0.09,0.49 -0.2,0.98 -0.31,1.48 -0.74,2.93 -1.88,5.71 -3.45,8.34 -1.55,2.62 -3.5,5.12 -5.81,7.52 -2.33,2.38 -5.37,4.15 -9.13,5.31 -3.75,1.17 -8.26,1.74 -13.52,1.74 -6.96,0 -12.76,-0.81 -17.41,-2.42 -4.64,-1.62 -8.16,-4.08 -10.54,-7.38 -2.38,-3.3 -4.24,-6.77 -5.59,-10.4 -1.34,-3.64 -2.17,-7.47 -2.47,-11.51l0 -0.18 0 -0.27c-0.06,-0.07 -0.09,-0.15 -0.09,-0.23l0 -0.23 0 -0.55 0 -0.55 0 -0.17c0.18,-4.47 0.88,-8.72 2.06,-12.75z"/>
  </g>
 </g>
</svg>
